SplineFontDB: 3.2
FontName: Untitled1
FullName: Untitled1
FamilyName: Untitled1
Weight: Regular
Copyright: Copyright (c) 2025, Thierry
UComments: "2025-10-24: Created with FontForge (http://fontforge.org)"
Version: 001.000
ItalicAngle: 0
UnderlinePosition: -102.4
UnderlineWidth: 51.2
Ascent: 819
Descent: 205
InvalidEm: 0
LayerCount: 2
Layer: 0 0 "Back" 1
Layer: 1 0 "Fore" 0
XUID: [1021 873 1023869538 7434]
StyleMap: 0x0000
FSType: 0
OS2Version: 0
OS2_WeightWidthSlopeOnly: 0
OS2_UseTypoMetrics: 1
CreationTime: 1761333625
ModificationTime: 1763588123
OS2TypoAscent: 0
OS2TypoAOffset: 1
OS2TypoDescent: 0
OS2TypoDOffset: 1
OS2TypoLinegap: 92
OS2WinAscent: 0
OS2WinAOffset: 1
OS2WinDescent: 0
OS2WinDOffset: 1
HheadAscent: 0
HheadAOffset: 1
HheadDescent: 0
HheadDOffset: 1
OS2Vendor: 'PfEd'
MarkAttachClasses: 1
DEI: 91125
Encoding: ISO8859-1
UnicodeInterp: none
NameList: AGL For New Fonts
DisplaySize: -48
AntiAlias: 1
FitToEm: 0
WinInfo: 26 26 7
BeginPrivate: 0
EndPrivate
Grid
-1024 -205.5 m 0
 2048 -205.5 l 1024
EndSplineSet
BeginChars: 256 53

StartChar: A
Encoding: 65 65 0
Width: 1500
VWidth: 1000
Flags: HW
LayerCount: 2
Back
Fore
SplineSet
1135.89941406 325.049804688 m 5
 1146.30175781 296.852539062 l 5
 1162.546875 211.422851562 l 5
 1172.19628906 107.646484375 l 5
 1131.58105469 37.6142578125 l 5
 1108.140625 29.41015625 l 5
 1085.31640625 55.626953125 l 5
 1061.12792969 116.6015625 l 5
 1062.57519531 196.227539062 l 5
 1022.59863281 313.168945312 l 5
 1005.76074219 297.666015625 l 5
 966.473632812 249.08984375 l 5
 942.10546875 194.416015625 l 5
 980.462890625 86.126953125 979.295898438 90.759765625 990.032226562 4.1669921875 c 5
 1004.71582031 -74.21484375 l 5
 1046.99707031 -60.7158203125 l 5
 1124.34082031 -131.543945312 l 29
 1051.27832031 -176.900390625 l 5
 972.969726562 -169.174804688 l 5
 911.983398438 -183.190429688 911.983398438 -183.190429688 854.711914062 -197.668945312 c 5
 826.490234375 -188.672851562 l 5
 802.791015625 -144.19140625 l 5
 825.615234375 -108.767578125 l 5
 846.3828125 -94.580078125 867.150390625 -80.3916015625 887.918945312 -66.2041015625 c 5
 891.928710938 -19.939453125 l 5
 884.31640625 80.41015625 l 5
 858.379882812 169.947265625 894.77734375 172.997070312 740.131835938 68.3291015625 c 5
 719.072265625 59.1220703125 l 5
 705.270507812 54.0849609375 l 5
 685.46875 44.685546875 l 6
 644.385742188 24.33984375 658.025390625 30.6494140625 625.774414062 17.0732421875 c 5
 565.454101562 72 l 5
 605 86 l 5
 639.859375 106.827148438 649.060546875 136.631835938 685.385742188 155.993164062 c 5
 698.20703125 162.390625 l 5
 913.4140625 271.981445312 745.138671875 247.853515625 755.454101562 286 c 5
 710.260742188 232.9765625 l 5
 693.40625 222.633789062 676.794921875 212.048828125 659.513671875 202.1328125 c 5
 567.392578125 119.2890625 l 5
 525.9609375 36.9013671875 l 5
 554.216796875 -102.473632812 554.216796875 -102.473632812 560.28125 -127.055664062 c 5
 532.036132812 -147.067382812 l 5
 468.094726562 -163.668945312 l 5
 417.897460938 -150.21484375 l 29
 327.803710938 -83.0478515625 l 5
 390.107421875 -44.6142578125 l 5
 419.099609375 -44.6142578125 l 5
 423.370117188 20.7744140625 l 5
 463.459960938 151.676757812 l 5
 494.751953125 199.885742188 l 5
 510.079101562 214.470703125 l 5
 525.713867188 224.294921875 l 5
 571.655273438 264.46875 570.520507812 266.041992188 597.625 286.655273438 c 4
 634.166015625 314.444335938 654.223632812 325.270507812 700.391601562 368.0703125 c 5
 685.89453125 383.80078125 l 5
 663.106445312 399.530273438 l 5
 613.337890625 425.923828125 559.875976562 448.623046875 508.646484375 473.5546875 c 5
 455.096679688 524.998046875 l 5
 492.005859375 576.174804688 l 5
 560.586914062 560.192382812 l 5
 639.666992188 527.0859375 l 6
 673.92578125 512.744140625 668.237304688 516.068359375 710.983398438 485.412109375 c 4
 739.436523438 465.006835938 738.25 463.2890625 781.842773438 430.374023438 c 5
 893.741210938 548.20703125 l 5
 905.852539062 566.9375 l 5
 913.827148438 580.981445312 l 5
 981.384765625 645.721679688 l 5
 988.547851562 645.4453125 l 5
 989.545898438 595.344726562 1110.12988281 642.936523438 875.454101562 342 c 5
 908.454101562 293 l 13
 1016.45410156 450 l 5
 1079.3828125 441.047851562 1115.91796875 402.830078125 1135.89941406 325.049804688 c 5
EndSplineSet
EndChar

StartChar: B
Encoding: 66 66 1
Width: 1500
Flags: HW
LayerCount: 2
Back
Fore
SplineSet
802.984375 42.015625 m 4
 802.984375 -9.28125 824.170898438 -2.5654296875 824.170898438 -13.0595703125 c 4
 824.170898438 -28.14453125 867.956054688 -64.9404296875 880.264648438 -64.4150390625 c 4
 890.040039062 -63.9970703125 914.540039062 -38.5634765625 921.370117188 -16.7587890625 c 4
 927.79296875 3.7451171875 947.444335938 19.8046875 954.010742188 61.0771484375 c 4
 956.809570312 78.6669921875 963.490234375 101.13671875 970.525390625 114.379882812 c 4
 992.668945312 156.0625 1001.89746094 271.4609375 990.278320312 315.861328125 c 4
 975.655273438 371.7421875 900.293945312 421.081054688 861.848632812 413.713867188 c 4
 848.846679688 411.22265625 832.645507812 415.413085938 820.076171875 422.9921875 c 4
 756.756835938 461.169921875 604.21875 411.592773438 565.891601562 419.36328125 c 4
 549.33203125 422.719726562 531.587890625 411.290039062 524.940429688 390.192382812 c 4
 516.533203125 363.5078125 502.21875 389.890625 494.483398438 367.875976562 c 4
 487.547851562 348.138671875 458.529296875 319.506835938 441.13671875 279.366210938 c 4
 438.323242188 272.874023438 431.58984375 258.337890625 430.2890625 255.807617188 c 4
 413.930664062 223.997070312 401.944335938 -27.29296875 459.022460938 -106.6796875 c 4
 467.3828125 -118.306640625 467.354492188 -124.015625 456.884765625 -147.180664062 c 4
 442.139648438 -179.8046875 426.134765625 -204.014648438 417.5703125 -203.9765625 c 4
 411.453125 -203.94921875 401.859375 -191.51953125 367.840820312 -192.853515625 c 4
 328.668945312 -194.389648438 321.640625 -177.686523438 284.915039062 -177.686523438 c 4
 235.194335938 -177.686523438 195.646484375 -147.069335938 195.646484375 -121.076171875 c 4
 195.646484375 -96.47265625 231.079101562 -49.6533203125 238.211914062 -54.017578125 c 4
 240.70703125 -55.544921875 259.55859375 -58.697265625 279.33203125 -60.8095703125 c 6
 315.702148438 -64.693359375 l 5
 315.702148438 -39.623046875 l 6
 315.702148438 18.744140625 296.192382812 79.1240234375 307.693359375 184.112304688 c 4
 314.86328125 249.568359375 332.606445312 318.84765625 343.965820312 322.727539062 c 4
 347.856445312 324.055664062 351.01171875 332.547851562 351.01171875 343.021484375 c 4
 351.01171875 364.21875 363.934570312 360.325195312 378.53125 389.008789062 c 4
 401.010742188 433.182617188 473.174804688 505.526367188 498.939453125 515.26953125 c 4
 507.790039062 518.616210938 513.439453125 526.069335938 513.439453125 533.037109375 c 4
 513.439453125 541.208007812 505.671875 543.084960938 479.462890625 542.1875 c 4
 420.220703125 540.158203125 290.326171875 546.659179688 281.989257812 551.775390625 c 4
 279.04296875 553.583984375 258.499023438 557.04296875 236.803710938 559.116210938 c 4
 182.934570312 564.262695312 162.177734375 575.469726562 149.576171875 614.142578125 c 4
 145.490234375 626.68359375 146.263671875 629.830078125 158.506835938 638.426757812 c 4
 188.006835938 659.139648438 220.565429688 666.88671875 223.98828125 666.030273438 c 4
 229.720703125 664.59765625 450.771484375 653.8828125 533.688476562 646.310546875 c 4
 664.4609375 634.368164062 822.375 643.506835938 850.271484375 628.62890625 c 4
 873.845703125 616.055664062 993.41796875 618.958007812 1008.4296875 609.349609375 c 4
 1031.296875 594.71484375 1267.14746094 628.061523438 1268.85742188 549.361328125 c 4
 1269.34179688 527.108398438 1251.01367188 500.118164062 1225.609375 491.30859375 c 4
 1207.64160156 485.077148438 1174.76660156 483.999023438 1170.25 488.689453125 c 4
 1165.68164062 493.43359375 1127.83984375 496.690429688 1084.3359375 498.334960938 c 4
 995.073242188 501.708984375 975.778320312 494.749023438 1007.55859375 479.526367188 c 4
 1061.00585938 453.92578125 1064.75195312 406.305664062 1077.70996094 395.508789062 c 4
 1087.52636719 387.329101562 1082.11035156 366.30078125 1122.98730469 342.18359375 c 4
 1151.85058594 325.154296875 1155.54492188 310.897460938 1127.82910156 286.979492188 c 4
 1115.83398438 276.626953125 1113.8984375 271.688476562 1120.98242188 263.286132812 c 4
 1131.95214844 250.275390625 1146.87695312 249.921875 1151.26171875 262.799804688 c 4
 1153.2734375 268.708984375 1156.44140625 268.708984375 1160.23046875 265.573242188 c 4
 1169.88964844 257.579101562 1195.98925781 253.01953125 1236.11230469 251.555664062 c 4
 1266.609375 250.442382812 1273.41113281 248.110351562 1287.2421875 234.571289062 c 4
 1368.05175781 155.462890625 1275.51367188 98.3564453125 1258.8125 125.263671875 c 4
 1250.63378906 138.439453125 1230.41601562 121.569335938 1224.26171875 131.510742188 c 4
 1221.09472656 136.625976562 1210.81933594 140.106445312 1198.5 140.106445312 c 4
 1165.22460938 140.106445312 1176.2109375 165.499023438 1123.8359375 141.866210938 c 4
 1089.35644531 126.307617188 1110.81640625 127.134765625 1100.41210938 118.959960938 c 4
 1081.796875 104.334960938 1081.59472656 52.8447265625 1075.35351562 42.5712890625 c 4
 1068.96679688 32.056640625 1084.56640625 4.154296875 1091.73144531 8.5751953125 c 4
 1095.97265625 11.1923828125 1114.421875 9.4287109375 1127.65917969 6.3955078125 c 4
 1151.39355469 0.9560546875 1199.16699219 -2.0693359375 1277.16992188 -0.9228515625 c 4
 1308.62890625 -0.4599609375 1311.41210938 -1.025390625 1323.21582031 -11.6181640625 c 4
 1357.5625 -42.4423828125 1358.6171875 -59.75 1342.85546875 -81.3486328125 c 4
 1328.53417969 -100.974609375 1316.39746094 -102.122070312 1231.32324219 -102.122070312 c 4
 1105.94726562 -102.122070312 1061.08203125 -99.6298828125 1051.9296875 -90.4775390625 c 4
 1045.21386719 -83.7607421875 1021.90917969 -83.275390625 1021.90917969 -91.037109375 c 4
 1021.90917969 -102.202148438 973.6953125 -114.7578125 957.0546875 -160.500976562 c 4
 936.866210938 -216 874.453125 -210.94921875 846.178710938 -197.59765625 c 4
 818.204101562 -184.387695312 789.58203125 -146.965820312 762.219726562 -115.54296875 c 4
 731.77734375 -80.5830078125 711.177734375 -51.2919921875 711.177734375 -41.0771484375 c 4
 711.177734375 -37.5048828125 708.659179688 -29.484375 705.248046875 -25.7958984375 c 4
 694.8515625 -14.552734375 668.475585938 63.197265625 673.811523438 71.9951171875 c 4
 674.920898438 73.82421875 673.395507812 76.5478515625 669.936523438 76.5478515625 c 4
 665.11328125 76.5478515625 661.743164062 81.8447265625 661.743164062 87.828125 c 4
 661.743164062 108.219726562 622.607421875 87.4140625 589.478515625 94.181640625 c 4
 503.345703125 111.77734375 588.203125 289.126953125 623.537109375 302.262695312 c 4
 634.95703125 306.508789062 629.326171875 319.646484375 672.12890625 329.791992188 c 4
 719.65234375 341.056640625 748.28125 330.001953125 775.876953125 296.79296875 c 4
 806.866210938 259.5 809.965820312 226.263671875 794.276367188 195.162109375 c 4
 784.439453125 175.661132812 777.698242188 146.815429688 775.189453125 111.379882812 c 4
 773.6484375 89.61328125 775.030273438 84.087890625 786.334960938 77.8974609375 c 4
 799.74609375 70.5537109375 802.984375 62.0703125 802.984375 42.015625 c 4
EndSplineSet
EndChar

StartChar: C
Encoding: 67 67 2
Width: 1500
Flags: HW
LayerCount: 2
Back
Fore
SplineSet
940.631835938 258 m 25
 886.631835938 226 l 25
 898.631835938 170 l 25
 950.631835938 164 l 25
 992.631835938 198 l 25
 940.631835938 258 l 25
589.642578125 303.716796875 m 0
 616.611328125 303.716796875 628.92578125 275.852539062 667.432617188 275.852539062 c 0
 700.362304688 275.852539062 723.869140625 255.4765625 737.271484375 281.061523438 c 0
 752.231445312 309.620117188 727.189453125 343.114257812 760.889648438 361.291015625 c 0
 777.798828125 370.41015625 805.494140625 373.515625 810.241210938 365.682617188 c 0
 812.366210938 362.177734375 819.943359375 359.444335938 826.592773438 359.444335938 c 0
 856.764648438 359.444335938 842.893554688 303.173828125 885.744140625 323.731445312 c 0
 919.905273438 340.12109375 980.509765625 337.663085938 980.509765625 324.034179688 c 0
 980.509765625 315.259765625 1005.62597656 318.870117188 1015.61425781 294.1640625 c 0
 1025.84570312 268.857421875 1064.1015625 243.205078125 1064.1015625 220.157226562 c 0
 1064.1015625 185.233398438 976.271484375 49.275390625 910.80859375 84.5244140625 c 0
 893.434570312 93.8798828125 877.677734375 89.455078125 873.768554688 71.5498046875 c 0
 867.577148438 43.1884765625 823.626953125 11.8408203125 791.99609375 20.6591796875 c 0
 767.350585938 27.5302734375 743.666015625 60.603515625 743.666015625 115.260742188 c 0
 743.666015625 126.083984375 742.737304688 127.303710938 737.392578125 126.306640625 c 0
 704.65625 120.1953125 639.17578125 55.693359375 639.17578125 31.3955078125 c 0
 639.17578125 18.5107421875 620.760742188 27.9990234375 631.58984375 -14.232421875 c 0
 637.229492188 -36.2236328125 643.23046875 -42.7255859375 672.983398438 -52.904296875 c 0
 698.552734375 -61.6513671875 708.874023438 -61.8955078125 720.6328125 -67.0009765625 c 0
 747.728515625 -78.765625 793.124023438 -75.9814453125 833.771484375 -60.814453125 c 0
 879.959960938 -43.580078125 910.514648438 -50.455078125 916.493164062 -27.732421875 c 0
 920.555664062 -12.29296875 930.306640625 -32.0244140625 948.944335938 -6.677734375 c 0
 969.732421875 21.59375 1000.41992188 22.28125 1016.41015625 -9.5615234375 c 0
 1033.64746094 -43.8857421875 1032.91992188 -114.2421875 1010.79589844 -114.2421875 c 0
 1006.28417969 -114.2421875 1001.40722656 -117.16796875 1001.40722656 -118.426757812 c 0
 1001.40722656 -127.438476562 751.631835938 -286 607.65625 -142.627929688 c 0
 575.303710938 -110.411132812 527.720703125 -83.5927734375 527.720703125 -55.8896484375 c 0
 527.720703125 -42.0712890625 515.880859375 -45.9248046875 510.545898438 -0.875 c 0
 499.752929688 90.259765625 548.618164062 102.553710938 548.618164062 116.541992188 c 0
 548.618164062 122.579101562 557.720703125 135.8359375 577.2734375 156.786132812 c 0
 594.12890625 174.845703125 594.950195312 178.329101562 581.196289062 178.329101562 c 0
 568.819335938 178.329101562 562.549804688 181.150390625 562.549804688 184.797851562 c 0
 562.549804688 194.600585938 517.270507812 207.122070312 475.1328125 246.450195312 c 0
 455.655273438 264.629882812 449.692382812 276.549804688 441.779296875 319.807617188 c 0
 432.872070312 368.5 433.716796875 390.081054688 446.840820312 416.00390625 c 0
 453.122070312 428.408203125 458.060546875 442.721679688 458.060546875 448.567382812 c 0
 458.060546875 453.978515625 462.29296875 466.373046875 468.501953125 478.125976562 c 0
 473.090820312 486.811523438 483.477539062 508.865234375 487.965820312 519.176757812 c 0
 498.639648438 543.6953125 507.78515625 554.4921875 516.8671875 554.4921875 c 0
 533.1796875 554.4921875 538.7109375 589.322265625 555.794921875 589.322265625 c 0
 564.825195312 589.322265625 561.635742188 599.0546875 600.4375 627.669921875 c 0
 642.129882812 658.41796875 642.866210938 672.9140625 655.571289062 672.9140625 c 0
 675.265625 672.9140625 701.288085938 707.744140625 727.935546875 707.744140625 c 0
 736.002929688 707.744140625 743.666015625 710.936523438 743.666015625 714.629882812 c 0
 743.666015625 718.40625 751.676757812 721.67578125 762.452148438 721.67578125 c 0
 786.198242188 721.67578125 776.881835938 737.551757812 803.983398438 729.211914062 c 0
 820.678710938 724.075195312 844.672851562 721.62890625 863.94921875 722.52734375 c 0
 931.05078125 725.655273438 1000.39746094 685.693359375 1007.16308594 630.436523438 c 0
 1014.76074219 568.384765625 927.965820312 613.4453125 918.731445312 577.432617188 c 0
 913.922851562 558.6796875 893.434570312 582.780273438 893.434570312 557.591796875 c 0
 893.434570312 527.625 864.435546875 534.203125 855.373046875 519.602539062 c 0
 848.26953125 508.158203125 834.223632812 518.26953125 834.223632812 532.069335938 c 0
 834.223632812 551.506835938 862.087890625 562.565429688 862.087890625 580.366210938 c 0
 862.087890625 598.4609375 890.881835938 615.075195312 873.624023438 621.350585938 c 0
 848.143554688 630.616210938 747.1484375 608.29296875 718.631835938 587.270507812 c 0
 713.201171875 583.266601562 696.296875 572.6953125 685.91796875 567.2109375 c 0
 633.603515625 539.567382812 574.541992188 466.720703125 566.287109375 420.498046875 c 0
 563.84375 406.813476562 557.51953125 394.004882812 551.663085938 391.758789062 c 0
 534.916992188 385.336914062 543.485351562 303.716796875 589.642578125 303.716796875 c 0
EndSplineSet
EndChar

StartChar: D
Encoding: 68 68 3
Width: 1500
Flags: HW
LayerCount: 2
Back
Fore
SplineSet
795.755859375 647.0234375 m 4
 783.688476562 642.197265625 762.419921875 650.711914062 786.541015625 650.711914062 c 4
 796.989257812 650.711914062 800.983398438 649.114257812 795.755859375 647.0234375 c 4
692.41015625 205.235351562 m 4
 692.41015625 190.045898438 642.490234375 159.461914062 630.768554688 82.4443359375 c 4
 626.325195312 53.24609375 609.186523438 -16.62109375 601.838867188 -68.6630859375 c 4
 598.459960938 -92.595703125 599.537109375 -95.86328125 610.025390625 -95.86328125 c 4
 620.512695312 -95.86328125 627.048828125 -92.595703125 627.048828125 -88.4150390625 c 4
 627.048828125 -84.7275390625 632.131835938 -81.3388671875 637.942382812 -81.3388671875 c 4
 643.751953125 -81.3388671875 648.8359375 -84.7275390625 648.8359375 -88.2509765625 c 4
 648.8359375 -92.66796875 656.82421875 -95.86328125 665.235351562 -95.86328125 c 4
 683.166992188 -95.86328125 693.974609375 -81.3388671875 696.313476562 -59.6279296875 c 4
 697.155273438 -51.8046875 699.7109375 -39.216796875 704.051757812 -20.734375 c 4
 731.747070312 97.1923828125 743.247070312 76.7275390625 743.247070312 98.7041015625 c 4
 743.247070312 109.662109375 746.106445312 114.74609375 749.309570312 114.74609375 c 4
 753.323242188 114.74609375 758.31640625 122.735351562 760.03515625 129.608398438 c 4
 766.249023438 154.465820312 819.501953125 210.705078125 852.244140625 227.673828125 c 4
 863.077148438 233.288085938 873.970703125 242.069335938 873.970703125 246.110351562 c 4
 873.970703125 249.5703125 881.958984375 252.732421875 890.48828125 252.732421875 c 4
 900.840820312 252.732421875 912.633789062 257.391601562 915.469726562 260.864257812 c 4
 922.388671875 269.340820312 998.215820312 303.934570312 1040.27929688 263.625976562 c 6
 1057.70898438 246.921875 l 5
 1044.07714844 219.325195312 l 6
 1028.67578125 188.146484375 1025.02832031 185.814453125 994.586914062 177.1171875 c 4
 931.34375 159.046875 913.973632812 148.516601562 889.993164062 123.125 c 4
 873.163085938 105.3046875 859.4453125 86.9072265625 859.4453125 81.5107421875 c 4
 859.4453125 77.263671875 850.947265625 57.373046875 844.76171875 45.7431640625 c 4
 819.270507812 -2.1787109375 808.399414062 -89.0771484375 822.510742188 -106.009765625 c 4
 836.966796875 -123.356445312 911.740234375 -108.1875 931.951171875 -129.953125 c 4
 947.680664062 -146.893554688 932.540039062 -188.552734375 935.565429688 -194 c 5
 813.565429688 -190 436.477539062 -234.520507812 460.739257812 -149.60546875 c 5
 447.614257812 -148.377929688 470.60546875 -108.3515625 476.061523438 -95.2578125 c 4
 482.719726562 -79.2783203125 491.522460938 -35.5859375 496.98828125 9.0439453125 c 4
 507.732421875 96.7880859375 521.048828125 96.5439453125 529.005859375 136.896484375 c 6
 534.08984375 162.677734375 l 5
 507.58203125 159.7734375 l 6
 485.068359375 157.305664062 480.471679688 159.166015625 477.504882812 170.494140625 c 4
 474.796875 180.833984375 469.661132812 187.370117188 463.299804688 187.370117188 c 4
 436.625976562 187.370117188 421.567382812 302.267578125 505.670898438 295.509765625 c 4
 546.129882812 292.258789062 552.033203125 318.09375 565.706054688 318.09375 c 4
 577.052734375 318.09375 597.5703125 335.88671875 627.762695312 370.435546875 c 4
 636.91796875 380.913085938 666.091796875 413.774414062 675.35546875 424.017578125 c 4
 700.40625 451.721679688 714.197265625 471.353515625 714.197265625 479.399414062 c 4
 714.197265625 490.311523438 739.567382812 523.654296875 734.505859375 536.625 c 4
 728.848632812 551.120117188 666.991210938 586.802734375 649.09375 586.802734375 c 4
 643.025390625 586.802734375 633.114257812 590.904296875 627.819335938 596.19921875 c 4
 612.17578125 611.842773438 569.807617188 603.506835938 545.529296875 577.662109375 c 4
 535.696289062 567.194335938 521.162109375 557.752929688 512.497070312 557.752929688 c 4
 499.956054688 557.752929688 474.538085938 577.5234375 474.538085938 587.479492188 c 4
 474.538085938 591.931640625 469.454101562 599.875 465.416015625 603.9140625 c 4
 440.905273438 628.423828125 464.370117188 710.263671875 489.87890625 710.263671875 c 4
 497.087890625 710.263671875 506.245117188 716.799804688 518.341796875 731.012695312 c 4
 528.619140625 743.08984375 531.184570312 743.0546875 543.081054688 732.055664062 c 4
 561.686523438 714.854492188 571.916992188 711.111328125 580.731445312 716.599609375 c 4
 592.848632812 724.14453125 621.96484375 723.157226562 638.202148438 712.916015625 c 4
 647.3828125 707.124023438 659.521484375 705.024414062 667.5234375 707.9140625 c 4
 687.40625 715.094726562 699.672851562 679.5 699.672851562 687.33203125 c 4
 699.672851562 702.37890625 744.948242188 676.856445312 764.590820312 651.020507812 c 4
 772.002929688 641.270507812 783.969726562 630.376953125 788.548828125 630.376953125 c 4
 793.27734375 630.376953125 807.5078125 618.7578125 818.7890625 606.295898438 c 4
 849.327148438 572.5625 851.967773438 539.59765625 831.698242188 480.534179688 c 4
 823.305664062 456.079101562 818.830078125 436.067382812 821.8984375 430.806640625 c 4
 825.360351562 424.872070312 843.467773438 429.06640625 870.78125 442.478515625 c 4
 928.499023438 470.822265625 917.967773438 444.671875 934.393554688 454.8671875 c 4
 956.291015625 468.458984375 990.168945312 454.626953125 990.168945312 437.309570312 c 4
 990.168945312 432.11328125 993.21875 427.030273438 997.556640625 427.030273438 c 4
 1006.53710938 427.030273438 1012.90234375 405.2421875 1009.20019531 393.786132812 c 4
 1003.7734375 376.999023438 966.928710938 352.078125 948.702148438 350.208007812 c 4
 931.564453125 348.450195312 888.649414062 325.356445312 865.958984375 325.356445312 c 4
 819.729492188 325.356445312 692.41015625 229.4921875 692.41015625 205.235351562 c 4
EndSplineSet
EndChar

StartChar: E
Encoding: 69 69 4
Width: 1500
Flags: HW
LayerCount: 2
Back
Fore
SplineSet
610.1796875 102.399414062 m 6
 551.176757812 102.399414062 564.483398438 124.342773438 548.171875 124.342773438 c 4
 529.337890625 124.342773438 531.671875 153.599609375 514.526367188 153.599609375 c 4
 503.756835938 153.599609375 501.400390625 165.143554688 509.172851562 169.90234375 c 4
 524.284179688 179.153320312 511.733398438 220.548828125 525.317382812 225.2734375 c 4
 529.6953125 226.796875 533.745117188 232.959960938 533.745117188 237.211914062 c 4
 533.745117188 246.66796875 553.772460938 272.741210938 587.200195312 264.91796875 c 4
 592.625976562 263.6484375 605.861328125 261.361328125 611.108398438 260.8984375 c 4
 633.154296875 258.952148438 629.51171875 239.529296875 653.381835938 245.497070312 c 4
 665.611328125 248.5546875 670.940429688 245.028320312 677.87890625 228.838867188 c 4
 682.5390625 217.965820312 690.51953125 203.36328125 694.205078125 198.555664062 c 4
 701.608398438 188.899414062 697.474609375 177.37109375 676.008789062 144.45703125 c 6
 648.580078125 102.399414062 l 5
 610.1796875 102.399414062 l 6
709.288085938 -204.80078125 m 1030
357.774414062 7.3134765625 m 4
 353.935546875 7.3134765625 350.803710938 10.970703125 350.70703125 15.11328125 c 4
 350.432617188 26.9052734375 325.288085938 46.7685546875 307.555664062 52.4765625 c 4
 293.94921875 56.85546875 280.783203125 68.0224609375 274.90234375 77.0166015625 c 4
 258.306640625 102.399414062 250.498046875 185.7890625 263.51171875 201.446289062 c 4
 267.2109375 205.896484375 272.8359375 220.159179688 274.240234375 228.13671875 c 4
 280.981445312 266.440429688 366.248046875 342.861328125 430.340820312 375.950195312 c 4
 456.9453125 389.684570312 469.16796875 401.577148438 472.0546875 411.200195312 c 4
 473.98828125 417.645507812 479.25390625 422.25390625 483.668945312 419.604492188 c 4
 499.775390625 409.94140625 620.157226562 441.096679688 629.775390625 455.111328125 c 4
 632.997070312 459.806640625 643.825195312 459.397460938 659.272460938 454.555664062 c 4
 712.939453125 437.732421875 783.764648438 451.563476562 806.9921875 422.704101562 c 4
 811.947265625 416.547851562 821.268554688 409.599609375 828.008789062 409.599609375 c 4
 841.311523438 409.599609375 833.387695312 382.537109375 809.73828125 355.473632812 c 6
 786.088867188 328.411132812 l 5
 734.888671875 336.5625 l 6
 685.151367188 344.48046875 616.911132812 340.876953125 597.302734375 331.197265625 c 4
 589.830078125 327.5078125 495.389648438 285.256835938 483.8046875 285.256835938 c 4
 472.813476562 285.256835938 421.418945312 247.22265625 402.940429688 225.6640625 c 4
 353.033203125 167.438476562 428.111328125 95.0849609375 451.112304688 95.0849609375 c 4
 455.848632812 95.0849609375 460.602539062 92.017578125 460.602539062 87.671875 c 4
 460.602539062 83.6748046875 464.625976562 80.45703125 468.528320312 80.45703125 c 4
 474.698242188 80.45703125 484.922851562 72.4111328125 491.000976562 64.306640625 c 4
 514.568359375 32.8837890625 570.317382812 42.5322265625 570.317382812 30.794921875 c 4
 570.317382812 11.1728515625 726.111328125 6.939453125 807.92578125 21.3388671875 c 4
 824.854492188 24.318359375 845.754882812 26.6416015625 846.918945312 25.4775390625 c 4
 848.596679688 23.7998046875 849.6484375 -25.5205078125 849.787109375 -29.962890625 c 4
 851.638671875 -89.154296875 764.072265625 -75.205078125 685.350585938 -81.51171875 c 4
 597.021484375 -88.587890625 473.997070312 -72.05078125 436.251953125 -43.4873046875 c 4
 428.419921875 -37.560546875 413.091796875 -29.2578125 406.635742188 -29.2578125 c 4
 393.086914062 -29.2578125 369.915039062 7.3134765625 357.774414062 7.3134765625 c 4
594.2890625 -200 m 6
 586.2890625 -199.94140625 598.391601562 -124.096679688 608.833007812 -119.515625 c 4
 623.189453125 -113.217773438 949.928710938 -103.232421875 986.826171875 -118.501953125 c 4
 1006.39257812 -126.598632812 1020.06445312 -91.4287109375 997.806640625 -50.4541015625 c 4
 975.133789062 -8.71484375 990.692382812 25.2568359375 975.270507812 57.4228515625 c 4
 940.4609375 130.02734375 987.215820312 370.9140625 984.883789062 382.572265625 c 4
 982.833007812 392.822265625 1037.08398438 488.493164062 1019.41210938 495.290039062 c 4
 1007.90820312 499.71484375 895.071289062 493.735351562 842.397460938 487.45703125 c 4
 776.513671875 479.604492188 682.95703125 480.139648438 629.748046875 484.422851562 c 4
 576.168945312 488.736328125 581.760742188 481.192382812 574.376953125 479.442382812 c 4
 568.2890625 478 551.2890625 480 543.787109375 483.209960938 c 4
 534.872070312 487.0234375 528.095703125 497.37109375 520.758789062 497.37109375 c 4
 504.051757812 497.37109375 465.198242188 551.015625 488.234375 581.473632812 c 4
 508.5546875 608.340820312 581.288085938 622.796875 646.155273438 607.9140625 c 4
 689.927734375 597.87109375 749.573242188 598.369140625 749.57421875 598.369140625 c 4
 1048.8828125 600.864257812 1196.375 644.526367188 1227 619.088867188 c 4
 1247.62011719 601.961914062 1247.62011719 526.627929688 1231.07714844 526.627929688 c 4
 1227.140625 526.627929688 1219.29101562 522.361328125 1215.85742188 516.998046875 c 4
 1207.07910156 503.282226562 1155.45996094 474.930664062 1155.45996094 464.586914062 c 4
 1155.45996094 456.72265625 1125.62207031 420.56640625 1130.50683594 415.139648438 c 4
 1135.07617188 410.0625 1111.57421875 375.514648438 1111.57421875 357.146484375 c 4
 1111.57421875 351.084960938 1109.01464844 343.418945312 1106.47167969 340.889648438 c 4
 1091.09472656 325.594726562 1064.27539062 111.6640625 1076.42285156 98.5322265625 c 4
 1079.328125 95.3916015625 1082.31738281 78.2626953125 1082.31738281 57.6279296875 c 4
 1082.31738281 37.302734375 1085.21777344 29.2568359375 1097.53320312 29.2568359375 c 4
 1114.92089844 29.2568359375 1081.73242188 13.220703125 1102.49804688 -9.791015625 c 4
 1129.30175781 -39.4921875 1119.87011719 -117.029296875 1134.83105469 -117.029296875 c 4
 1146.97949219 -117.029296875 1143.83105469 -168.16015625 1142.2890625 -204 c 5
 594.2890625 -200 l 6
EndSplineSet
EndChar

StartChar: F
Encoding: 70 70 5
Width: 1500
Flags: HW
LayerCount: 2
Back
Fore
SplineSet
926.169921875 13.525390625 m 4
 938.655273438 13.525390625 970.557617188 61.1533203125 984.87109375 61.1533203125 c 4
 999.00390625 61.1533203125 1049.5390625 107.590820312 1065.61035156 139.733398438 c 4
 1076.35253906 161.217773438 1082.28320312 197.48828125 1082.28320312 264.83203125 c 4
 1082.28320312 302.864257812 1080.39160156 311.689453125 1068.38085938 333.7109375 c 4
 1054.68066406 358.827148438 1041.28515625 376.416992188 1031.64648438 381.359375 c 4
 1019.984375 387.33984375 983.799804688 421.588867188 954.864257812 440.411132812 c 4
 896.905273438 478.112304688 890.083007812 525.524414062 880.607421875 525.524414062 c 4
 870.041015625 525.524414062 877.37109375 584.463867188 887.064453125 603.728515625 c 4
 891.760742188 613.063476562 895.34375 630.603515625 895.34375 644.197265625 c 4
 895.34375 656.740234375 898.39453125 680.61328125 902.759765625 699.78125 c 4
 907.61328125 721.096679688 912.254882812 728.525390625 927.888671875 734.247070312 c 4
 962.618164062 746.958984375 994.275390625 730.268554688 989.28515625 704.315429688 c 4
 987.477539062 694.920898438 979.328125 628.786132812 968.147460938 583.09375 c 4
 964.588867188 568.55078125 964.999023438 566.901367188 975.330078125 551.405273438 c 4
 1003.52246094 509.1171875 1016.19921875 497.803710938 1036.68066406 487.462890625 c 4
 1087.04589844 462.033203125 1140.26269531 405.452148438 1152.75292969 363.297851562 c 4
 1155.13574219 355.254882812 1161.37304688 338.682617188 1164.25878906 333.420898438 c 4
 1176.0703125 311.880859375 1177.30859375 222.493164062 1162.86914062 139.8125 c 4
 1154.12207031 89.73046875 1144.50488281 70.0625 1093.91992188 21.3017578125 c 4
 1059.06445312 -12.294921875 1031.31933594 -34.1025390625 1021.92480469 -34.1025390625 c 4
 1010.51660156 -34.1025390625 996.552734375 -66.2509765625 996.552734375 -93.751953125 c 4
 996.552734375 -139.424804688 1035.06835938 -125.567382812 1028.20605469 -143.41015625 c 28
 1021.52929688 -160.768554688 990.599609375 -159.522460938 990.599609375 -169.209960938 c 4
 990.599609375 -174.239257812 982.264648438 -180.692382812 975.512695312 -184.177734375 c 4
 936.671875 -204.224609375 828.463867188 -188.890625 815.971679688 -182.077148438 c 4
 812.399414062 -180.12890625 800.087890625 -176.985351562 790.569335938 -176.985351562 c 4
 771.08984375 -176.985351562 771.926757812 -163.8203125 766.25390625 -167.0625 c 4
 752.317382812 -175.026367188 702.255859375 -170.716796875 523.458984375 -183.35546875 c 4
 352.981445312 -195.40625 383.549804688 -206.73828125 358.322265625 -189.749023438 c 4
 291.529296875 -144.768554688 351.543945312 -120.317382812 347.674804688 -107.740234375 c 4
 347.015625 -105.599609375 327.381835938 -48.1484375 339.58984375 -36.8447265625 c 4
 350.333007812 -26.896484375 397.529296875 -41.7685546875 387.22265625 -10.8466796875 c 4
 382.403320312 3.6103515625 378.58203125 42.771484375 439.098632812 26.9306640625 c 4
 447.046875 24.849609375 460.739257812 21.923828125 460.739257812 22.8671875 c 4
 460.739257812 23.560546875 453.354492188 40.31640625 450.423828125 46.6943359375 c 4
 427.977539062 95.546875 418.987304688 155.21875 416.661132812 233.802734375 c 4
 415.303710938 279.646484375 417.298828125 295.294921875 423.837890625 300.623046875 c 4
 427.52734375 303.629882812 430.97265625 310.90234375 430.97265625 317.0390625 c 4
 430.97265625 331.517578125 450.149414062 339.956054688 465.60546875 367.557617188 c 4
 474.884765625 384.129882812 486.411132812 395.41015625 497.592773438 398.115234375 c 4
 512.859375 401.809570312 515.846679688 418.362304688 512.020507812 459.178710938 c 4
 504.572265625 538.622070312 513.373046875 628.166992188 524.622070312 639.415039062 c 4
 527.736328125 642.530273438 537.540039062 646.142578125 547.923828125 648.21875 c 4
 563.040039062 651.2421875 568.143554688 648.76171875 583.233398438 631.6328125 c 4
 604.856445312 607.087890625 607.321289062 597.487304688 602.833984375 589.047851562 c 4
 589.314453125 563.626953125 589.243164062 434.322265625 604.848632812 405.133789062 c 4
 621.485351562 374.016601562 570.052734375 323.106445312 559.905273438 323.106445312 c 4
 553.31640625 323.106445312 532.942382812 301.64453125 517.297851562 284.409179688 c 5
 517.297851562 109.971679688 530.46875 69.013671875 587.967773438 22.759765625 c 4
 619.102539062 -2.287109375 651.250976562 -37.0517578125 651.250976562 -51.12109375 c 4
 651.250976562 -56.7255859375 646.1484375 -66.7158203125 635.553710938 -76.3330078125 c 4
 621.483398438 -89.103515625 625.055664062 -95.310546875 651.881835938 -91.2373046875 c 4
 728.034179688 -79.67578125 709.428710938 -28.111328125 716.583984375 -19.525390625 c 4
 720.598632812 -14.70703125 725.977539062 15.013671875 730.77734375 62.28125 c 4
 734.62109375 100.1484375 736.888671875 107.555664062 750.110351562 121.225585938 c 4
 762.546875 134.083984375 770.3203125 146.600585938 770.3203125 152.497070312 c 4
 770.3203125 157.909179688 776.869140625 166.553710938 787.447265625 173.323242188 c 4
 798.040039062 180.102539062 800.087890625 185.87890625 800.087890625 209.971679688 c 4
 800.087890625 240.650390625 796.767578125 251.184570312 782.778320312 271.731445312 c 4
 770.498046875 289.766601562 755.069335938 308.067382812 742.288085938 318.783203125 c 4
 677.661132812 372.966796875 672.225585938 514.692382812 691.158203125 580.956054688 c 4
 694.37109375 592.204101562 699.759765625 615.696289062 701.1328125 624.805664062 c 4
 703.352539062 639.534179688 711.022460938 658.373046875 718.369140625 669.073242188 c 4
 739.790039062 700.2734375 773.780273438 684.596679688 775.879882812 682.49609375 c 4
 780.60546875 677.76953125 782.364257812 583.2734375 774.852539062 574.251953125 c 4
 767.493164062 565.413085938 763.1484375 467.461914062 771.520507812 462.346679688 c 4
 773.9296875 460.874023438 776.274414062 451.106445312 776.274414062 435.73828125 c 4
 776.274414062 410.623046875 782.537109375 394.547851562 793.33203125 394.547851562 c 4
 800.0625 394.547851562 808.973632812 388.296875 817.4921875 375.3828125 c 4
 827.056640625 360.883789062 837.020507812 354.926757812 845.506835938 336.846679688 c 4
 858.755859375 308.622070312 889.390625 280.573242188 889.390625 262.564453125 c 4
 889.390625 257.916015625 891.431640625 251.409179688 893.963867188 248.877929688 c 4
 905.768554688 237.07421875 905.31640625 140.4453125 856.549804688 114.778320312 c 4
 848.311523438 110.442382812 841.762695312 104.245117188 841.762695312 100.666992188 c 4
 841.762695312 97.333984375 836.079101562 88.5390625 829.250976562 81.3857421875 c 4
 818.198242188 69.806640625 816.7578125 60.85546875 816.7578125 3.6689453125 c 4
 816.7578125 -52.85546875 815.350585938 -61.84765625 802.455078125 -70.5986328125 c 4
 790.236328125 -78.8896484375 791.158203125 -85.4794921875 810.612304688 -90.416015625 c 4
 831.239257812 -95.650390625 850.028320312 -107.563476562 878.375976562 -109.116210938 c 6
 900.106445312 -110.306640625 l 5
 909.631835938 -58.8095703125 l 6
 914.91796875 -30.232421875 919.157226562 -2.6748046875 919.157226562 3.609375 c 4
 919.157226562 9.060546875 922.346679688 13.525390625 926.169921875 13.525390625 c 4
EndSplineSet
EndChar

StartChar: G
Encoding: 71 71 6
Width: 1500
Flags: HW
LayerCount: 2
Back
Fore
SplineSet
1034.16699219 617.559570312 m 1
 1234.6796875 609.329101562 l 1
 1257.65527344 599.771484375 l 1
 1330.484375 560.108398438 l 1
 1420.91015625 460.415039062 l 1
 1391.42480469 242.639648438 l 1
 1274.27050781 139.641601562 l 1
 1147.61621094 127.075195312 l 1
 1095.80566406 123.733398438 l 1
 1082.09277344 145.37109375 l 1
 1068.37792969 178.446289062 l 1
 1121.84179688 203.581054688 l 1
 1254.78027344 237.682617188 l 1
 1320.953125 321.40625 l 1
 1322.74707031 443.78125 l 1
 1306.50097656 464.4453125 l 1
 1257.7265625 496.067382812 l 1
 1118.98925781 533.6015625 l 1
 1080.56835938 520.692382812 l 1
 1048.90917969 489.868164062 l 1
 1021.31347656 501.028320312 l 1
 973.999023438 545.34375 l 1
 1012.44824219 609.5390625 l 1
 1034.16699219 617.559570312 l 1
910.923828125 -168.228515625 m 1
 872.790039062 -186.514648438 l 1
 833.581054688 -196.14453125 l 1
 755.874023438 -194.272460938 l 1
 745.330078125 -158.4765625 l 1
 745.330078125 -132.266601562 l 1
 853.873046875 -76.7998046875 l 1
 897.478515625 15.59765625 l 1
 897.430664062 259.905273438 l 1
 863.432617188 305.884765625 l 1
 751.72265625 308.153320312 l 1
 725.490234375 262.100585938 l 1
 741.295898438 72.521484375 l 1
 729.377929688 -26.5400390625 l 1
 689.169921875 -77.333984375 689.169921875 -77.333984375 644.557617188 -135.377929688 c 25
 569.346679688 -131.712890625 l 1
 481.599609375 -115.291015625 l 25
 538.09765625 -15.84765625 l 1
 550.8359375 -25.330078125 l 1
 616.159179688 6.572265625 l 1
 641.817382812 52.162109375 l 1
 628.809570312 253.865234375 l 1
 623.424804688 287.124023438 l 1
 611.705078125 300.727539062 l 1
 405.825195312 319.6953125 l 1
 369.698242188 405.931640625 l 1
 463.34765625 416.48828125 l 1
 602.743164062 416.549804688 l 1
 586.525390625 527.4609375 l 1
 580.7578125 549.623046875 l 1
 578.043945312 644.208007812 l 1
 612.37109375 660.723632812 l 1
 665.169921875 603.405273438 l 1
 687.35546875 523.647460938 l 1
 703.350585938 411.728515625 l 1
 873.330078125 416.205078125 l 1
 852.80078125 500.3515625 l 2
 848.948242188 514.85546875 848.948242188 514.85546875 821.260742188 622.137695312 c 1
 834.454101562 652.7734375 l 1
 864.28125 669.611328125 l 1
 931.172851562 589.428710938 l 1
 958.663085938 473.735351562 l 1
 988.723632812 398.62890625 l 1
 1018.16796875 407.987304688 l 1
 1087.43066406 423.009765625 l 1
 1148.46777344 394.526367188 l 1
 1150.43359375 379.491210938 l 1
 1137.95703125 339.405273438 l 1
 1084.15136719 322.34765625 l 1
 1011.38671875 315.733398438 l 1
 987.919921875 312.076171875 l 1
 990.967773438 250.208984375 l 1
 1008.31933594 85.3505859375 l 1
 936.719726562 -148.418945312 l 1
 910.923828125 -168.228515625 l 1
203.377929688 -132 m 5
 123.919921875 -63.6953125 l 1
 111.424804688 -23.490234375 l 1
 93.138671875 26.916015625 l 1
 79.08984375 197.8671875 l 1
 87.0439453125 220.803710938 l 1
 116.95703125 260.79296875 l 1
 173.109375 281.182617188 l 1
 241.159179688 289.34765625 l 1
 324.377929688 294 l 1
 521.420898438 250.263671875 l 1
 484.235351562 224.522460938 l 1
 459.92578125 215.681640625 l 1
 205.409179688 186.485351562 l 1
 180.584960938 169.758789062 l 1
 180.98828125 127.765625 l 1
 190.444335938 79.4501953125 l 1
 221.286132812 -24.5283203125 l 1
 295.317382812 32.9140625 l 1
 324.7578125 18.150390625 l 1
 339.534179688 8.533203125 339.534179688 8.533203125 346.782226562 3.2744140625 c 1
 339.99609375 -49.3720703125 l 1
 327.805664062 -127.390625 l 1
 283.12890625 -139.596679688 l 1
 203.377929688 -132 l 5
EndSplineSet
EndChar

StartChar: H
Encoding: 72 72 7
Width: 1500
Flags: HW
LayerCount: 2
Back
Fore
SplineSet
1129.77050781 -99.388671875 m 29
 1145.59082031 -69.873046875 l 5
 1220.12402344 -35.3359375 l 5
 1264.12109375 -68.66796875 l 5
 1261.02050781 -133 l 29
 1209.58203125 -159.924804688 l 5
 1163.50195312 -162.333984375 l 5
 1129.77050781 -99.388671875 l 29
545.7890625 554.165039062 m 5
 594.880859375 493.627929688 l 5
 599.27298898 479.748574917 604.403462876 466.607564438 609.337890625 453.270507812 c 5
 641.262695312 409.599609375 l 5
 644.39453125 371.651367188 l 5
 657.88671875 314.427734375 l 5
 714.749023438 252.98828125 l 5
 747.696289062 322.258789062 l 5
 733.12109375 493.9296875 l 5
 713.845703125 562.59765625 l 5
 711.98046875 619.821289062 l 5
 736.43359375 701.73046875 l 5
 777.99609375 692.706054688 l 5
 803.294921875 638.193359375 l 5
 799.079101562 619.21875 l 5
 820.366210938 508.98828125 820.366210938 508.98828125 862.326171875 287.391601562 c 5
 898.422851562 448.752929688 l 5
 935.2109375 554.165039062 l 5
 946.354492188 577.65625 l 5
 980.0859375 634.879882812 l 5
 1049.05566406 699.33203125 l 5
 1060.76151701 704.692584547 1071.44760334 711.072904473 1082.48535156 717.1015625 c 6
 1109.29003906 729.1484375 l 5
 1120.1328125 734.870117188 l 5
 1136.99902344 740.89453125 1136.99902344 740.89453125 1175.55078125 754.748046875 c 5
 1212.89550781 739.689453125 l 5
 1214.70214844 682.873046875 l 5
 1205.66796875 671.623046875 l 5
 1197.8359375 664.561523438 l 5
 1129.33984375 646.926757812 l 5
 1117.72363281 638.494140625 l 6
 1109.29003906 632.470703125 1109.29003906 632.470703125 1100.25488281 626.447265625 c 5
 1036.95019531 561.392578125 l 5
 1019.875 530.0703125 l 5
 977.216796875 405.383789062 l 5
 970.62109375 274.0703125 l 5
 995.446289062 260.743164062 l 5
 1152.66015625 262.408203125 l 5
 1186.39160156 252.858398438 l 5
 1213.27539062 196.969726562 l 5
 1090.6171875 165.927734375 l 5
 988.8203125 169.86328125 l 5
 960.689453125 166.8515625 l 5
 959.3046875 -48.1884765625 l 5
 957.196289062 -69.2705078125 l 5
 958.702148438 -145.76953125 l 21
 928.584960938 -180.706054688 l 5
 912.923828125 -186.729492188 l 5
 886.419921875 -180.103515625 l 5
 877.384765625 -174.682617188 l 5
 867.559570312 -142.7578125 l 5
 862.927734375 -141.251953125 l 29
 870.458007812 28.009765625 l 5
 866.84375 140.649414062 l 5
 862.326171875 122.27734375 l 5
 852.870117188 69.2705078125 l 5
 845.020507812 -11 l 5
 809.920898438 -178.59765625 l 5
 785.224609375 -193.35546875 l 5
 766.551757812 -173.477539062 l 5
 760.829101562 62.64453125 l 5
 764.744140625 163.40234375 l 5
 747.276367188 165.647460938 l 5
 717.459960938 161.731445312 l 5
 690.655273438 160.828125 l 5
 689.149414062 54.814453125 l 5
 637.020507812 -167 l 5
 597.020507812 -169 l 5
 571.991210938 -121.67578125 l 5
 590.665039062 -45.4716796875 l 5
 601.067382812 159.623046875 l 5
 549.403320312 174.682617188 l 5
 498.23828125 169.260742188 l 5
 449.556640625 186.729492188 l 5
 462.965820312 252.98828125 l 5
 479.83203125 258.7109375 l 5
 508.142578125 263.53515625 l 5
 565.366210938 263.284179688 565.366210938 263.284179688 575.002929688 263.228515625 c 5
 566.125 328.282226562 l 5
 561.149414062 352.075195312 l 5
 536.939453125 407.190429688 l 5
 469.591796875 505.720703125 l 5
 440.979492188 536.09375 l 5
 328.640625 565.86328125 l 5
 320.208007812 565.609375 l 5
 302.438476562 572.235351562 l 5
 288.584960938 561.995117188 l 5
 278.04296875 561.995117188 l 5
 249.732421875 572.235351562 l 5
 235.87890625 596.931640625 l 5
 337.676757812 653.94921875 l 5
 403.633789062 643.915039062 l 5
 426.22265625 632.470703125 426.22265625 632.470703125 503.172851562 592.71484375 c 5
 514.768554688 584.282226562 l 5
 545.7890625 554.165039062 l 5
EndSplineSet
EndChar

StartChar: I
Encoding: 73 73 8
Width: 1500
Flags: HW
LayerCount: 2
Back
Fore
SplineSet
866.725585938 -132.610351562 m 24
 819.9453125 -96.3935546875 752.989257812 5.8154296875 742.919921875 -3.5341796875 c 0
 741.029296875 -5.2900390625 739.09765625 -1.2880859375 739.09765625 7.8388671875 c 0
 739.09765625 27.5693359375 730.0703125 11.6689453125 719.61328125 61.77734375 c 0
 714.83203125 84.689453125 707.9296875 105.396484375 700.328125 114.764648438 c 0
 691.833984375 125.233398438 686.666015625 146.837890625 689.634765625 158.483398438 c 0
 694.892578125 179.111328125 733.9453125 200.935546875 755.291992188 200.935546875 c 0
 764.21484375 200.935546875 773.060546875 204.749023438 775.703125 208.052734375 c 0
 780.961914062 214.625 805.75390625 216.940429688 864.662109375 216.69140625 c 0
 922.322265625 216.448242188 940.5390625 214.052734375 967.997070312 201.239257812 c 0
 980.606445312 195.354492188 1004.22070312 185.622070312 1014.81347656 181.950195312 c 0
 1031.16210938 176.283203125 1041.7890625 168.915039062 1041.7890625 160.140625 c 0
 1041.7890625 152.466796875 1049.91992188 166.484375 1080.04785156 123.874023438 c 0
 1113.38085938 76.7314453125 1125.51171875 90.8076171875 1125.51171875 72.8984375 c 0
 1125.51171875 64.724609375 1128.0390625 59.2509765625 1132.29394531 59.2509765625 c 0
 1151.86523438 59.2509765625 1164.54394531 -56.5390625 1140.99121094 -114.908203125 c 24
 1118.54394531 -170.5390625 1059.82128906 -182.29296875 1045.77636719 -184.97265625 c 0
 1002.50390625 -193.228515625 975.997070312 -193.0625 979.907226562 -186.887695312 c 0
 986.630859375 -176.270507812 912.9453125 -168.393554688 866.725585938 -132.610351562 c 24
678.8671875 -149.666015625 m 24
 667.298828125 -179 647.645507812 -180.989257812 629.127929688 -185.124023438 c 0
 601.293945312 -191.33984375 595.868164062 -187.130859375 585.17578125 -169.056640625 c 1
 585.17578125 -169.056640625 572.298828125 -157 569.55078125 -124.028320312 c 24
 567.298828125 -97 572.938476562 -67.9443359375 572.938476562 -12.2197265625 c 0
 572.938476562 21.5751953125 570.864257812 34.197265625 557.798828125 58.9384765625 c 0
 545.560546875 82.11328125 538.056640625 88.6943359375 518.458007812 93.3984375 c 0
 470.229492188 104.974609375 473.658203125 75.20703125 431.80078125 98.7509765625 c 0
 416.49609375 107.360351562 413.61328125 112.704101562 412.21484375 134.203125 c 0
 409.5078125 175.819335938 418.211914062 188.055664062 444.709960938 188.055664062 c 0
 458.302734375 188.055664062 469.96484375 191.275390625 472.0703125 194.662109375 c 0
 478.439453125 204.905273438 563.918945312 200.291992188 568.782226562 187.477539062 c 0
 572.545898438 177.55859375 629.61328125 159.348632812 629.61328125 141.272460938 c 0
 629.61328125 131.873046875 645.044921875 138.391601562 655.7578125 106.7265625 c 0
 659.8359375 94.671875 665.66015625 85.01171875 669.096679688 85.01171875 c 0
 672.0390625 85.01171875 674.6953125 77.9267578125 674.6953125 68.08203125 c 0
 674.6953125 39.6416015625 696.864257812 25.7060546875 689.552734375 -9.2294921875 c 0
 682.048828125 -45.08203125 695.298828125 -108 678.8671875 -149.666015625 c 24
926.971679688 106.721679688 m 4
 919.872070312 108.119140625 859.231445312 119.46875 831.947265625 110.241210938 c 4
 818.583007812 105.721679688 819.939453125 98.5361328125 831.0625 78.408203125 c 4
 837.37890625 66.978515625 846.0234375 52.861328125 849.129882812 49.0634765625 c 4
 852.38671875 45.08203125 853.265625 40.10546875 852.153320312 38.9931640625 c 4
 845.751953125 32.5927734375 943.8984375 -63.1142578125 959.56640625 -63.1142578125 c 4
 966.62109375 -63.1142578125 972.697265625 -82.5146484375 990.981445312 -77.826171875 c 4
 997.672851562 -76.1103515625 1003.1484375 -77.513671875 1003.1484375 -81.576171875 c 4
 1003.1484375 -91.4169921875 1035.27929688 -81.791015625 1042.80957031 -67.7548828125 c 0
 1055.6640625 -43.7939453125 1032.5859375 59.6552734375 1015.65527344 49.2197265625 c 4
 1011.80566406 46.8466796875 1007.43359375 50.234375 1005.57519531 56.5693359375 c 4
 1000.34960938 74.380859375 966.4375 98.9580078125 926.971679688 106.721679688 c 4
1073 516.5078125 m 0
 1077.41015625 516.5078125 1119.07226562 507.95703125 1119.07226562 457.700195312 c 0
 1119.07226562 432.142578125 1108.29882812 417.069335938 1105.07324219 402.017578125 c 0
 1091.50585938 338.708007812 941.265625 260.364257812 912.776367188 278.428710938 c 0
 907.83203125 281.564453125 900.400390625 281.046875 897.79296875 278.876953125 c 0
 885.615234375 268.743164062 735.876953125 267.706054688 725.84375 275.670898438 c 0
 714.47265625 284.697265625 520.12890625 284.953125 520.12890625 261.25 c 0
 520.12890625 250.249023438 478.266601562 238.97265625 454.4609375 247.78515625 c 0
 427.575195312 257.737304688 422.744140625 293.67578125 461.670898438 348.563476562 c 0
 467.505859375 356.790039062 467.630859375 357.926757812 459.104492188 370.594726562 c 0
 450.623046875 383.1953125 442.30078125 396.868164062 433.131835938 414.334960938 c 1
 409.55078125 420.625976562 400.33984375 420.745117188 396.197265625 420.483398438 c 0
 369.856445312 418.8203125 346.2421875 445.665039062 346.2421875 466.181640625 c 0
 346.2421875 493.323242188 387.571289062 544 395.876953125 532.958007812 c 0
 398.852539062 529.001953125 411.610351562 525.6015625 439.440429688 524.1171875 c 0
 448.96484375 523.609375 449.298828125 523.91015625 449.755859375 535.186523438 c 0
 450.77734375 560.389648438 450.484375 592.825195312 449.884765625 610.452148438 c 0
 448.666015625 646.279296875 451.145507812 671.801757812 456.890625 682.532226562 c 0
 472.184570312 711.096679688 539.3359375 688.462890625 546.250976562 625.036132812 c 0
 549.586914062 594.435546875 551.572265625 438.122070312 541.665039062 412.115234375 c 0
 536.78125 399.295898438 544.279296875 379.73046875 561.313476562 385.271484375 c 0
 603.046875 398.846679688 929.935546875 373.09765625 951.284179688 394.446289062 c 0
 953.235351562 396.397460938 960.3671875 400.583984375 962.9765625 400.583984375 c 0
 966.841796875 400.583984375 978.99609375 409.7734375 993.189453125 423.7421875 c 0
 1008.34960938 438.661132812 1009.96289062 443.411132812 1007.75292969 467.224609375 c 0
 1005.0625 496.221679688 1007.15722656 506.469726562 1017.42578125 519.620117188 c 0
 1046.8125 557.25390625 1063.37402344 516.5078125 1073 516.5078125 c 0
EndSplineSet
EndChar

StartChar: J
Encoding: 74 74 9
Width: 1500
Flags: HW
LayerCount: 2
Fore
SplineSet
1021.51855469 270 m 0
 1021.51855469 296.712890625 958.231445312 386 931.518554688 386 c 0
 904.805664062 386 839.518554688 308.712890625 839.518554688 282 c 0
 839.518554688 255.287109375 906.805664062 194 933.518554688 194 c 0
 960.231445312 194 1021.51855469 243.287109375 1021.51855469 270 c 0
656.1015625 565.2265625 m 4
 739.587890625 658.333984375 777.657226562 669.981445312 825.518554688 576 c 4
 875.237304688 478.372070312 1152.51855469 360.666992188 1152.51855469 306 c 0
 1152.51855469 287.634765625 1074.56542969 207.209960938 985.662109375 106.65234375 c 0
 816.046875 -85.1962890625 730.034179688 -126.008789062 634.139648438 8.7041015625 c 0
 607.686523438 45.8662109375 557.640625 129.594726562 484.692382812 173.689453125 c 0
 305.606445312 281.940429688 300.979492188 304.6796875 475.788085938 406.76953125 c 0
 544.616210938 446.965820312 618.948242188 523.791015625 656.1015625 565.2265625 c 4
827.518554688 456 m 0
 827.518554688 482.712890625 778.231445312 546 751.518554688 546 c 0
 724.8046875 546 679.518554688 494.712890625 679.518554688 468 c 0
 679.518554688 441.287109375 724.8046875 376 751.518554688 376 c 0
 778.231445312 376 827.518554688 429.287109375 827.518554688 456 c 0
671.518554688 284 m 0
 676.779296875 306.6171875 628.231445312 362.286132812 601.518554688 372 c 0
 574.8046875 381.713867188 500.08203125 320.0390625 501.518554688 292 c 0
 506.061523438 203.338867188 641.46875 154.807617188 671.518554688 284 c 0
797.518554688 284 m 0
 797.546875 310.712890625 784.231445312 344 757.518554688 344 c 0
 730.805664062 344 708.474609375 310.712890625 708.474609375 284 c 0
 708.474609375 257.287109375 733.423828125 257.657226562 752.997070312 239.478515625 c 0
 780.181640625 214.231445312 797.491210938 258.727539062 797.518554688 284 c 0
835.518554688 104 m 0
 835.518554688 130.712890625 778.231445312 192 751.518554688 192 c 0
 724.8046875 192 679.518554688 134.712890625 679.518554688 108 c 0
 679.518554688 81.287109375 728.8046875 24 755.518554688 24 c 0
 782.231445312 24 835.518554688 77.287109375 835.518554688 104 c 0
EndSplineSet
EndChar

StartChar: K
Encoding: 75 75 10
Width: 1500
Flags: HW
LayerCount: 2
Back
Fore
SplineSet
821.577148438 357.157226562 m 0
 814.23828125 364.49609375 844.495117188 378.094726562 844.495117188 367.541015625 c 0
 844.495117188 359.55078125 827.15234375 351.58203125 821.577148438 357.157226562 c 0
464.67578125 -116.841796875 m 24
 445.075195312 -53 456.301757812 88.7177734375 437.78515625 114.206054688 c 0
 424.338867188 132.713867188 428.09765625 210.415039062 473.256835938 201.384765625 c 0
 480.629882812 199.91015625 487.821289062 200.563476562 487.821289062 203.655273438 c 0
 487.821289062 215.059570312 585.649414062 179.364257812 617.893554688 150.958984375 c 0
 625.888671875 143.916015625 633.439453125 140.368164062 638.049804688 140.368164062 c 0
 649.791015625 140.368164062 657.30078125 117.357421875 664.5625 117.357421875 c 0
 675.938476562 117.357421875 734.22265625 60.8916015625 733.922851562 57.8330078125 c 2
 733.922851562 57.8330078125 977.112304688 -162.32421875 671.928710938 -147.8046875 c 0
 670.327148438 -147.728515625 592.075195312 -144 592.075195312 -144 c 1
 562.032226562 -138.35546875 l 2
 554.385742188 -136.918945312 547.024414062 -153.024414062 541.420898438 -153.024414062 c 0
 538.619140625 -153.024414062 531.653320312 -157.051757812 528.239257812 -161.165039062 c 0
 516.4375 -175.387695312 480.075195312 -167 464.67578125 -116.841796875 c 24
671.911132812 -9.2666015625 m 0
 671.911132812 7.6611328125 550.35546875 103.63671875 542.6796875 83.994140625 c 0
 538.481445312 73.251953125 558.129882812 1.787109375 562.766601562 -45.2294921875 c 0
 569.364257812 -112.124023438 539.90234375 -72.01171875 568.807617188 -81.591796875 c 0
 598.08203125 -91.2939453125 707.2890625 -96.361328125 712.240234375 -91.41015625 c 0
 715.887695312 -87.763671875 697.952148438 -43.7216796875 682.958984375 -27.4912109375 c 0
 678.2890625 -22.4365234375 671.911132812 -13.1435546875 671.911132812 -9.2666015625 c 0
806.616210938 131.739257812 m 0
 799.536132812 131.739257812 685.018554688 238.166015625 521.647460938 238.166015625 c 0
 493.57421875 238.166015625 476.69921875 241.30859375 467.479492188 247.3515625 c 0
 451.002929688 258.151367188 432.422851562 295.623046875 443.2890625 302.677734375 c 0
 450.77734375 307.538085938 445.267578125 327.483398438 473.72265625 332.693359375 c 0
 505.984375 338.6015625 563.393554688 376.048828125 580.291015625 376.560546875 c 0
 591.629882812 376.903320312 608.337890625 393.4921875 616.760742188 393.4921875 c 0
 630.7265625 393.4921875 689.103515625 439.09765625 711.262695312 447.490234375 c 0
 743.24609375 459.602539062 832.990234375 542.541992188 832.990234375 559.401367188 c 0
 832.990234375 568.975585938 861.9375 577.703125 893.36328125 617.926757812 c 0
 903.249023438 630.580078125 945.9453125 682.426757812 981.478515625 644.900390625 c 0
 1021.96484375 602.14453125 948.045898438 554.36328125 948.045898438 541.176757812 c 0
 948.045898438 534.435546875 967.359375 514.30078125 973.985351562 514.30078125 c 0
 987.33203125 514.30078125 1063.76367188 432.611328125 1077.60449219 401.973632812 c 0
 1081.17578125 394.067382812 1089.23632812 382.05078125 1093.18261719 380.677734375 c 0
 1103.24511719 377.177734375 1112.38574219 314.103515625 1112.17675781 248.521484375 c 2
 1112.00097656 193.293945312 l 1
 1077.484375 143.245117188 l 2
 1058.44042969 115.630859375 1031.87890625 81.4619140625 1019.36816406 68.2236328125 c 0
 971.409179688 17.4775390625 1032.75585938 -6.7119140625 988.966796875 -51.740234375 c 0
 965.99609375 -75.3623046875 938.583984375 -79.533203125 922.40625 -61.439453125 c 0
 900.756835938 -37.224609375 897.017578125 29.337890625 877.099609375 47.158203125 c 0
 863.673828125 59.169921875 862.895507812 88.5927734375 856.331054688 88.5927734375 c 0
 848.380859375 88.5927734375 811.123046875 131.739257812 806.616210938 131.739257812 c 0
937.301757812 128.86328125 m 0
 940.95703125 128.86328125 956.08203125 163.379882812 966.0078125 163.379882812 c 0
 974.508789062 163.379882812 999.821289062 188.692382812 999.821289062 196.4375 c 0
 999.821289062 203.803710938 1022.72070312 209.905273438 1013.51269531 221.206054688 c 0
 998.268554688 239.916015625 1028.51269531 296.556640625 1005.41015625 321.760742188 c 0
 991.086914062 337.385742188 1013.34863281 347.551757812 985.192382812 379.958007812 c 0
 979.931640625 386.013671875 969.021484375 399.8203125 964.612304688 406.016601562 c 0
 946.586914062 431.349609375 932.28515625 425.936523438 904.075195312 454.146484375 c 0
 892.819335938 465.40234375 881.051757812 474.03125 876.659179688 474.03125 c 0
 866.978515625 474.03125 840.251953125 432.12109375 811.418945312 416.995117188 c 0
 785.119140625 403.198242188 770.173828125 372.155273438 705.926757812 339.147460938 c 0
 700.387695312 336.301757812 680.086914062 325.698242188 672.486328125 321.58203125 c 2
 658.6796875 314.103515625 l 1
 678.239257812 305.76171875 l 2
 709.439453125 292.456054688 741.78125 285.586914062 753.369140625 271.103515625 c 0
 766.654296875 254.49609375 795.803710938 262.1796875 893.274414062 167.526367188 c 0
 912.37890625 148.974609375 934.512695312 128.86328125 937.301757812 128.86328125 c 0
547.086914062 422.255859375 m 0
 531.903320312 422.255859375 523.7109375 393.4921875 501.168945312 393.4921875 c 0
 494.4375 393.4921875 487.821289062 390.926757812 487.821289062 388.524414062 c 0
 487.821289062 385.018554688 473.7265625 380.880859375 449.970703125 378.047851562 c 0
 429.430664062 375.59765625 423.374023438 376.711914062 410.845703125 388.426757812 c 0
 389.717773438 408.182617188 383.580078125 426.858398438 390.587890625 453.13671875 c 0
 401.619140625 494.502929688 383.830078125 531.106445312 398.197265625 552.176757812 c 0
 405.260742188 562.536132812 407.147460938 580.458007812 406.543945312 647.419921875 c 0
 406.162109375 689.76171875 406.940429688 694.270507812 418.822265625 709.80859375 c 0
 429.447265625 723.703125 436.045898438 735.124023438 436.045898438 738.857421875 c 0
 436.045898438 747.555664062 471.857421875 715.649414062 480.211914062 715.649414062 c 0
 490.59375 715.649414062 511.333984375 666.381835938 501.459960938 653.94921875 c 0
 488.32421875 637.411132812 489.142578125 505.0546875 496.309570312 497.833007812 c 0
 501.920898438 492.1796875 548.534179688 525.837890625 551.391601562 525.872070312 c 0
 555.801757812 525.923828125 638.848632812 605.770507812 648.075195312 622.194335938 c 0
 648.99609375 623.83203125 659.154296875 642.588867188 665.263671875 654.021484375 c 0
 690.202148438 700.692382812 694.34765625 704.227539062 712.658203125 704.890625 c 0
 750.149414062 706.249023438 773.719726562 692.912109375 776.055664062 678.490234375 c 0
 778.889648438 660.998046875 756.1328125 607.0390625 747.737304688 601.658203125 c 0
 738.58203125 595.790039062 693.4765625 520.053710938 678.336914062 520.053710938 c 0
 675.36328125 520.053710938 671.911132812 517.1328125 671.911132812 513.676757812 c 0
 671.911132812 495.015625 571.237304688 422.255859375 547.086914062 422.255859375 c 0
EndSplineSet
EndChar

StartChar: L
Encoding: 76 76 11
Width: 1500
Flags: HW
LayerCount: 2
Back
Fore
SplineSet
527.571289062 -89.4208984375 m 4
 665.640625 -116.490234375 902.74609375 -96.712890625 910.142578125 -73.716796875 c 4
 911.450195312 -69.6513671875 919.247070312 -67.8330078125 922.31640625 -67.8330078125 c 4
 939.94921875 -67.8330078125 1009.00585938 -7.828125 1024.40332031 21.71484375 c 4
 1029.40234375 31.306640625 1041.453125 46.787109375 1050.09863281 54.71875 c 4
 1076.65527344 79.0849609375 1097.08886719 139.576171875 1097.08886719 206.9765625 c 4
 1097.08886719 230.236328125 1094.65527344 237.766601562 1081.04589844 257.994140625 c 4
 1044.42871094 312.416992188 982.801757812 375.68359375 969.1640625 375.68359375 c 4
 960.993164062 375.68359375 945.815429688 398.396484375 910.078125 404.352539062 c 4
 880.9296875 409.209960938 850.87890625 427.64453125 763.060546875 436.662109375 c 4
 726.622070312 440.403320312 697.271484375 446.059570312 687.719726562 449.190429688 c 4
 648.354492188 462.095703125 438.0703125 463.669921875 427.830078125 446.84765625 c 4
 424.975585938 442.159179688 418.384765625 458.291015625 389.34765625 458.989257812 c 4
 343.110351562 460.100585938 325.864257812 501.018554688 364.846679688 530.130859375 c 0
 368.547851562 532.895507812 380.577148438 542.364257812 382.131835938 543.704101562 c 4
 403.541992188 562.161132812 598.114257812 558.946289062 652.206054688 568.700195312 c 4
 679.481445312 573.619140625 671.53515625 562.447265625 693.45703125 560.407226562 c 4
 717.805664062 558.140625 777.536132812 537.885742188 809.079101562 536.4296875 c 4
 820.216796875 535.916015625 829.673828125 533.297851562 829.673828125 530.569335938 c 4
 829.673828125 527.935546875 838.479492188 525.696289062 849.791992188 525.696289062 c 4
 876.681640625 525.696289062 867.556640625 513.043945312 895.901367188 513.916015625 c 4
 927.739257812 514.896484375 938.130859375 499.607421875 961.803710938 499.607421875 c 4
 972.186523438 499.607421875 979.6875 496.666015625 979.6875 492.69140625 c 4
 979.6875 489.703125 983.926757812 486.5625 987.399414062 486.5625 c 4
 1002.51269531 486.5625 1058.49023438 427.081054688 1103.39355469 392.869140625 c 4
 1128.39550781 373.8203125 1136.22265625 362.638671875 1136.22265625 350.45703125 c 4
 1136.22265625 343.724609375 1138.61328125 336.549804688 1141.33691406 336.549804688 c 4
 1149.03515625 336.549804688 1173.68261719 279.216796875 1179.81738281 275.608398438 c 4
 1184.61914062 272.784179688 1189.0625 243.93359375 1192.05859375 202.185546875 c 4
 1196.22460938 144.141601562 1192.92578125 126.197265625 1157.55273438 47.337890625 c 4
 1129.8828125 -14.349609375 1120.42871094 -28.9462890625 1080.75097656 -69.41796875 c 4
 1049.05371094 -101.749023438 1026.06152344 -128.362304688 1023.41601562 -135.485351562 c 4
 1016.625 -153.770507812 932.311523438 -148.206054688 934.321289062 -167.782226562 c 4
 939.116210938 -214.505859375 459.487304688 -189.416992188 398.860351562 -168.044921875 c 4
 370.694335938 -158.115234375 319.169921875 -171.030273438 310.311523438 -142.02734375 c 4
 307.009765625 -131.215820312 302.34375 -90.70703125 313.938476562 -75.1025390625 c 4
 332.8984375 -49.5869140625 425.291992188 -50.34765625 475.3515625 -76.201171875 c 4
 492.185546875 -84.89453125 501.232421875 -84.2568359375 527.571289062 -89.4208984375 c 4
673.5 -81.474609375 m 4
 598.87890625 -90.2509765625 611.482421875 -57.193359375 552.790039062 -60.6884765625 c 4
 504.255859375 -63.578125 530.490234375 -39.9248046875 488.9140625 -32.0390625 c 4
 451.297851562 -24.904296875 480.233398438 -6.9560546875 462.2734375 11.5830078125 c 4
 447.233398438 27.1083984375 445.809570312 62.1142578125 438.491210938 71.5771484375 c 4
 426.39453125 87.2197265625 429.759765625 173.4921875 438.952148438 195.349609375 c 4
 444.419921875 208.352539062 489.72265625 288.376953125 539.309570312 241.825195312 c 4
 546.932617188 234.668945312 559.637695312 225.637695312 564.98828125 223.591796875 c 4
 585.44921875 215.768554688 566.026367188 162.151367188 552.84375 148.00390625 c 4
 530.735351562 124.27734375 552.756835938 55.7421875 568.568359375 33.802734375 c 4
 580.709960938 16.95703125 612.458007812 -4.7001953125 622.037109375 1.3955078125 c 4
 626.518554688 4.248046875 643.7890625 6.0751953125 663.071289062 5.4462890625 c 4
 686.18359375 4.6923828125 693.669921875 7.8828125 711.685546875 24.611328125 c 4
 732.4921875 43.931640625 744.883789062 60.455078125 744.883789062 70.9931640625 c 4
 744.883789062 84.0625 763.946289062 84.013671875 765.58984375 133.3203125 c 4
 766.30078125 154.6328125 762.987304688 162.078125 742.1953125 187.852539062 c 4
 651.247070312 300.590820312 665.696289062 218.81640625 619.408203125 239.819335938 c 4
 574.09765625 260.377929688 575.3046875 331.904296875 634.053710938 356.364257812 c 4
 654.876953125 365.034179688 676.41015625 365.076171875 695.374023438 353.03515625 c 4
 718.6015625 338.287109375 744.657226562 342.318359375 768.944335938 319.109375 c 4
 774.666015625 313.642578125 792.497070312 298.208984375 801.690429688 290.754882812 c 4
 818.5859375 277.055664062 829.673828125 264.76953125 829.673828125 260.6484375 c 4
 829.673828125 257 838.362304688 236.106445312 845.861328125 220.905273438 c 4
 879.870117188 151.96875 881.750976562 80.6669921875 856.087890625 47.45703125 c 4
 849.580078125 39.03515625 845.759765625 29.349609375 845.208984375 25.642578125 c 4
 842.791015625 9.3671875 785.34375 -68.3212890625 673.5 -81.474609375 c 4
EndSplineSet
EndChar

StartChar: M
Encoding: 77 77 12
Width: 1500
Flags: HW
LayerCount: 2
Back
Fore
SplineSet
480.728558641 -74.3036421193 m 0
 209.372077182 -285.650114971 218.80145796 -169.844272247 188.470733351 -142.443017751 c 0
 178.521580815 -133.454796593 174 -142.747070312 174 -129.935022472 c 0
 174 -113.639648438 181.314453125 -109.892578125 198.563595093 -111.750259569 c 0
 225.809570312 -114.684570312 253.23828125 -106.32421875 253.23828125 -95.4085262838 c 0
 253.23828125 -84.1142578125 282.602539062 -56.865234375 296.393263483 -62.102398599 c 0
 304.17271497 -65.0567223724 303.071735032 -52.4189453125 319.414939222 -52.4189453125 c 0
 357.058537675 -52.4189453125 408.075689197 14.6279296875 417.530664782 14.6279296875 c 0
 423.232364532 14.6279296875 442.735388552 39.009765625 447.809466614 39.009765625 c 0
 455.94147109 39.009765625 541.674192861 101.634707251 574.109618516 105.086399127 c 0
 596.476057874 107.466576216 568.208799969 129.898642695 689.364659682 133.507871047 c 0
 787.681453121 136.436724502 793.718267235 151.942967354 809.597980531 138.229490051 c 0
 814.154234954 134.294778482 805.767658316 143.243029669 836.348626047 150.74412925 c 0
 863.582169658 157.424150771 852.113709042 145.883180357 881.975380864 140.174497975 c 0
 914.151723259 134.02331796 913.269212579 118.247070312 930.050738606 118.247070312 c 0
 945.135669567 118.247070312 949.307625138 105.499498502 975.663574705 93.176126493 c 0
 1015.33496552 74.6267926554 1026.15699129 45.1044921875 1035.53545674 45.1044921875 c 0
 1055.06363225 45.1044921875 1111.54056226 -82.8955078125 1191.24198763 -82.8955078125 c 0
 1228.37017539 -82.8955078125 1228.43343865 -110.672505093 1308.67683498 -108.381046638 c 0
 1323.8671875 -107.947265625 1326 -108.881835938 1326 -117.043647944 c 0
 1326 -151.148721824 1288.75932946 -142.507389027 1285.87748676 -141.416866249 c 0
 1279.06738281 -138.83984375 1253.44042969 -159.58203125 1257.21298274 -165.5003628 c 0
 1258.24609375 -167.12109375 1258.953125 -172.80078125 1258.953125 -176.441572687 c 0
 1258.953125 -187.131835938 1252.85742188 -187.872070312 1229.20858182 -186.045143762 c 0
 1160.20996094 -180.71484375 1134 -189 1084.6893617 -157.246937457 c 24
 1002 -104 951.752929688 -1.2353515625 891.615783027 29.9037632292 c 0
 831.761605715 60.8963560204 744.719068312 29.9410433427 719.836028506 35.6287678718 c 0
 714.952148438 36.7451171875 710.380859375 35.8310546875 710.380859375 33.4866412814 c 0
 710.380859375 25.2489136364 653.941100358 38.3491115282 646.827810923 27.1724946823 c 0
 644.701171875 23.8310546875 636.93359375 20.7236328125 630.026093322 20.7236328125 c 0
 612.437438581 20.7236328125 592.818203636 0.576018639705 570.966373164 -6.53748656038 c 0
 552.508298643 -12.5462101435 543.757680275 -25.2132998781 480.728558641 -74.3036421193 c 0
1103.74967597 453.485351562 m 0
 1114.83241783 453.485351562 1122.52971158 435.200195312 1133.15761171 435.200195312 c 0
 1145.88183594 435.200195312 1189.20800781 408.990234375 1202.31860655 391.684318656 c 0
 1216.66210938 372.750976562 1208.97167969 345.821289062 1185.17154274 335.868602723 c 0
 1142.96689269 318.219559577 1070.09731969 362.316660002 1055.26657397 364.541433309 c 0
 1041.79660878 366.562074724 1010.41257021 398.62890625 1004.37018191 398.62890625 c 0
 1000.70117188 398.62890625 986.190429688 410.452148438 970.500187417 425.298842168 c 0
 947.791015625 446.787109375 942.40625 455.877929688 944.317874087 472.870553446 c 0
 949.227812127 516.515499303 994.360951219 541.965742723 1053.85015805 485.925089394 c 0
 1068.171875 472.43359375 1092.46777344 453.485351562 1103.74967597 453.485351562 c 0
617.701525565 526.470777488 m 0
 654.938476562 558.505859375 693.28125 540.038085938 700.364143797 491.508021024 c 0
 702.66015625 475.776367188 699.71484375 470.291015625 680.634497719 454.928237681 c 0
 645.724902208 426.820342621 651.400014691 441.813416095 621.801560244 422.575273523 c 0
 612.026367188 416.221679688 594.571289062 406.109375 586.652590005 402.029837362 c 0
 551.539031157 383.940112787 575.464582925 374.247070312 566.292599669 374.247070312 c 0
 560.428710938 374.247070312 558 370.28515625 558 364.834066398 c 0
 558 357.110351562 553.124023438 356.088867188 533.237459028 359.095371974 c 0
 509.23828125 362.723632812 502.987304688 361.107421875 488.12897485 348.685191014 c 0
 472.014648438 335.212890625 464.133789062 332.870117188 448.487548783 335.36238027 c 0
 417.809570312 340.249023438 402.873046875 356.4609375 406.868354744 372.323676326 c 0
 412.323242188 393.981445312 460.4765625 444.3984375 482.050197116 454.561298251 c 0
 495.424834884 460.861793446 586.53021746 514.438476562 598.028552273 514.438476562 c 0
 602.129882812 514.438476562 611.638671875 521.254882812 617.701525565 526.470777488 c 0
907 802 m 5
 930.513671875 799.913085938 940.154296875 728.380859375 943.980380292 707.485443923 c 0
 957.341796875 634.514648438 932.40234375 540.4453125 890.635503335 485.503763318 c 0
 878.805664062 469.942382812 877.844726562 463.763671875 885.442490755 457.397904531 c 0
 907.254908146 439.122426272 908.709206117 380.342773438 926.646653474 380.342773438 c 0
 941.929109166 380.342773438 948.221352847 337.67578125 972.535319146 337.67578125 c 0
 989.615446798 337.67578125 1001.43863904 316.620423164 1027.05680641 321.454364405 c 0
 1049.5716459 325.702732745 1067.63453683 311.124744862 1073.23318455 319.988950623 c 0
 1078.25738036 327.943640348 1090.42328777 312.434838603 1148.75210115 297.268979991 c 0
 1161.48147907 293.959261612 1162.39559166 293.133610178 1162.39652054 293.132771186 c 0
 1220.55273438 240.604492188 1228.4765625 227.3125 1228.4765625 217.011976214 c 0
 1228.4765625 210.895507812 1231.27050781 202.475585938 1234.77544736 200.324800969 c 0
 1242.96582031 195.298828125 1242.30859375 159.0859375 1233.93613091 140.616878214 c 0
 1212.81317938 94.0211450631 1131.21880083 135.299045956 1127.04960582 173.527424726 c 0
 1124.29296875 198.803710938 1089.50488281 208.75390625 1035.8199582 214.973700202 c 0
 970.647460938 222.524414062 920.247070312 237.087890625 915.338451746 250.003403803 c 0
 913.622070312 254.51953125 906.647460938 258.4375 899.666866172 258.4375 c 0
 892.01953125 258.4375 884.854492188 263.139648438 882.075595872 270.920558124 c 0
 877.608398438 283.428710938 849.98046875 321.09375 840.006947869 327.348189768 c 0
 835.943359375 329.896484375 832.286132812 335.56640625 832.286132812 338.845716446 c 0
 832.286132812 343.385742188 825.276367188 353.399414062 817.352539062 360.837890625 c 2
 802.418945312 374.857421875 l 1
 788.400390625 361.602539062 l 2
 763.723632812 338.271484375 702.45703125 297.71484375 671.901980308 284.94861316 c 0
 643.304808778 273.000405753 596.046856662 240.15234375 574.892536182 240.15234375 c 0
 568.971679688 240.15234375 559.354492188 237.579101562 551.108405897 233.102367632 c 0
 547.333007812 231.052734375 538.84375 226.999023438 530.482281632 223.643008289 c 0
 495.829101562 209.734375 451.026367188 180.649414062 447.657270026 161.78156383 c 0
 445.216796875 148.114257812 419.418945312 120.032226562 393.102090312 114.768855562 c 0
 383.06640625 112.76171875 377.400390625 114.961914062 363.807745715 129.543284879 c 0
 348.9921875 145.436523438 346.813476562 152.380859375 348.352910453 173.05755963 c 0
 351.772583178 218.988436136 364.573515175 212.255440639 371.102527913 237.646137212 c 0
 383.93712063 287.55862205 442.190429688 295.711650995 442.190429688 321.033554619 c 0
 442.190429688 329.906634518 449.343239568 297.727809844 457.037939929 317.513833841 c 0
 459.6640625 324.266601562 462.5078125 325.688476562 464.683962456 322.268915799 c 0
 472.872468968 309.401651988 507.955721857 337.67578125 529.63071343 337.67578125 c 0
 543.862971978 337.67578125 539.4779668 349.866210938 565.438342877 349.866210938 c 0
 588.038596162 349.866210938 580.965400312 359.10518329 605.485050824 364.763396289 c 0
 637.67024877 372.190529287 656.962050956 395.373365982 678.701010813 401.116295104 c 0
 705.315973953 408.147351232 714.964031009 437.805931205 735.903164523 443.190651487 c 0
 782.583739827 455.195056561 761.674557738 584.889677195 772.170144962 602.384000922 c 0
 775.206054688 607.444335938 774.044921875 619.276367188 770.452392834 631.115074091 c 0
 759.348632812 667.706054688 763.774414062 729.599609375 780.25 766.78125 c 2
 795.104492188 800.3046875 l 5
 832.651124952 833.465478452 902.986231707 812.388347163 907 802 c 5
EndSplineSet
EndChar

StartChar: N
Encoding: 78 78 13
Width: 1500
Flags: HW
LayerCount: 2
Back
Fore
SplineSet
554.586914062 62.2880859375 m 4
 569.966796875 79.33203125 586.015625 91.5400390625 586.015625 99.462890625 c 4
 586.015625 104.9375 593.6796875 116.50390625 613.91796875 132.694335938 c 4
 619.43359375 137.106445312 619.528320312 137.5859375 615.90625 141.588867188 c 4
 587.349609375 173.150390625 562.791992188 163.98046875 540.983398438 176.16796875 c 4
 535.303710938 179.342773438 520.603515625 186.004882812 513.3515625 177.77734375 c 4
 507.750976562 171.423828125 493.884765625 169.608398438 490.547851562 189.999023438 c 4
 489.037109375 199.235351562 486.068359375 199.61328125 368.952148438 188.858398438 c 5
 330.5 144.25390625 319.94921875 123.555664062 313.614257812 98.427734375 c 4
 301.561523438 50.6142578125 322.1484375 55.681640625 331.344726562 23.08203125 c 4
 355.380859375 -62.119140625 490.658203125 -8.5546875 554.586914062 62.2880859375 c 4
496.678710938 112.775390625 m 4
 491.887695312 73.490234375 379.96875 -18.564453125 375.848632812 78.103515625 c 4
 371.489257812 180.41015625 502.194335938 158 496.678710938 112.775390625 c 4
781.25390625 119.259765625 m 4
 780.9375 80.6796875 829.280273438 56.6572265625 825.69140625 47.296875 c 4
 823.16796875 40.7138671875 854.765625 48.865234375 857.413085938 48.865234375 c 4
 865.211914062 48.865234375 918.733398438 119.569335938 918.733398438 128.727539062 c 4
 918.733398438 138.3359375 859.811523438 189.374023438 859.811523438 183.083007812 c 4
 859.811523438 180.225585938 847.65625 164.676757812 825.654296875 201.171875 c 4
 800.379882812 243.095703125 835.540039062 231.901367188 803.576171875 212.510742188 c 4
 761.951171875 187.260742188 781.456054688 143.9375 781.25390625 119.259765625 c 4
843.791992188 -94.4677734375 m 4
 791.194335938 -112 763.96484375 -19.462890625 762.236328125 -7.322265625 c 4
 759.318359375 13.1787109375 709.181640625 83.7783203125 711.016601562 91.4267578125 c 4
 713.815429688 103.094726562 502.850585938 -125.676757812 402.856445312 -115.39453125 c 4
 386.551757812 -113.717773438 171.461914062 -84.9404296875 233.443359375 145.905273438 c 4
 243.071289062 181.766601562 253.383789062 200.147460938 268.462890625 217.591796875 c 4
 285.762695312 237.60546875 300.458007812 263.098632812 318.225585938 279.342773438 c 4
 380.194335938 336 508.430664062 306.587890625 528.98828125 295.602539062 c 4
 544.173828125 287.48828125 570.255859375 294.892578125 580.278320312 282.255859375 c 4
 583.951171875 277.625 591.534179688 273.475585938 598.0625 273.475585938 c 4
 622.509765625 273.475585938 702.518554688 215.299804688 702.518554688 247.782226562 c 4
 702.518554688 255.081054688 706.557617188 261.5234375 712.4765625 263.775390625 c 4
 725.961914062 268.905273438 715.39453125 290.352539062 693.143554688 294.903320312 c 4
 683.509765625 296.874023438 677.991210938 301.618164062 677.991210938 308.208984375 c 4
 677.991210938 320.637695312 658.370117188 338.66015625 638.446289062 347.56640625 c 4
 629.857421875 351.40625 617.900390625 358.470703125 601.728515625 369.1875 c 4
 578.043945312 384.881835938 573.474609375 386.067382812 561.034179688 379.069335938 c 4
 547.7109375 371.575195312 541.560546875 372.423828125 527.150390625 379.895507812 c 4
 478.84765625 404.94140625 487.465820312 426.76953125 468.975585938 426.76953125 c 4
 454.279296875 426.76953125 452.262695312 440.557617188 444.915039062 437.731445312 c 4
 430.69140625 432.26171875 402.063476562 475.823242188 402.063476562 496.389648438 c 4
 402.063476562 514.698242188 424.750976562 535.5703125 451.69921875 538.8046875 c 4
 492.849609375 543.743164062 539.19140625 506.987304688 569.22265625 504.536132812 c 4
 588.681640625 502.947265625 589.059570312 489.072265625 637.579101562 466.576171875 c 4
 656.530273438 457.790039062 671.859375 448.592773438 671.859375 445.114257812 c 4
 671.859375 439.4609375 712.338867188 428.100585938 721.553710938 416.69140625 c 4
 725.313476562 412.036132812 733.483398438 408.374023438 739.864257812 408.374023438 c 4
 756.37890625 408.374023438 759.57421875 383.84765625 775.212890625 383.84765625 c 4
 789.159179688 383.84765625 802.862304688 364.33984375 811.78515625 377.3671875 c 4
 819.1484375 388.1171875 878.499023438 447.861328125 901.744140625 466.798828125 c 4
 959.294921875 513.684570312 1086.97753906 547.874023438 1177.75878906 537.087890625 c 4
 1196.19628906 534.897460938 1200.41503906 532.360351562 1243.95019531 491.05859375 c 6
 1269.703125 466.625976562 l 5
 1251.00097656 429.834960938 l 6
 1235.10449219 398.563476562 1230.09179688 393.283203125 1208.97949219 395.565429688 c 4
 1193.05664062 397.287109375 1186.92480469 401.26171875 1186.92480469 412.434570312 c 4
 1186.92480469 455.334960938 1096.52539062 449.814453125 1063.90234375 433.373046875 c 4
 1042.97265625 422.825195312 1051.09277344 443.397460938 984.275390625 406.05859375 c 4
 955.217773438 389.821289062 947.759765625 382.62109375 934.869140625 368.370117188 c 4
 877.87890625 305.361328125 873.06640625 279.607421875 886.693359375 279.607421875 c 4
 903.383789062 279.607421875 942.969726562 240.977539062 957.309570312 219.01953125 c 4
 973.803710938 193.763671875 996.580078125 187.971679688 996.758789062 202.448242188 c 4
 996.890625 213.16796875 1009.10449219 187.748046875 1009.10449219 197.0703125 c 4
 1009.10449219 208.162109375 1026.39648438 203.392578125 1073.34667969 231.23046875 c 4
 1135.01757812 267.796875 1184.30664062 271.102539062 1205.52148438 289.37109375 c 4
 1214.53027344 297.12890625 1223.71484375 297.98046875 1244.56445312 294.119140625 c 4
 1277.69238281 287.984375 1281.50683594 280.833984375 1275.22167969 257.978515625 c 4
 1265.46386719 222.495117188 1248.2421875 210.541015625 1193.69042969 199.997070312 c 5
 1080.23242188 141.909179688 1058.15820312 119.814453125 1058.15820312 100.93359375 c 4
 1058.15820312 69.46484375 1119.47558594 15.1455078125 1119.47558594 5.5546875 c 4
 1119.47558594 -2.0888671875 1158.42578125 -36.7119140625 1152.6171875 -46.2158203125 c 4
 1148.85253906 -52.375 1163.72753906 -69.341796875 1168.52929688 -82.1640625 c 6
 1184.19433594 -124 l 5
 1180.77441406 -124.228515625 1186.92480469 -142.868164062 1186.92480469 -151.663085938 c 4
 1186.92480469 -170.4609375 1158.82617188 -193.171875 1125.23632812 -185.870117188 c 4
 1105.37304688 -181.551757812 1103.19433594 -171 1086.71484375 -141.452148438 c 28
 1074.19433594 -119 1039.76367188 -53.42578125 1039.76367188 -45.5146484375 c 4
 1039.76367188 -35.6513671875 986.237304688 28.279296875 976.76171875 38.0595703125 c 4
 933.236328125 82.986328125 907.193359375 -73.333984375 843.791992188 -94.4677734375 c 4
EndSplineSet
EndChar

StartChar: O
Encoding: 79 79 14
Width: 1500
Flags: HW
LayerCount: 2
Back
Fore
SplineSet
1063.1015625 663.087890625 m 1
 1091.25976562 671.958007812 l 1
 1140.16894531 623.409179688 l 1
 1148.25585938 618.416015625 l 1
 1172.73144531 591.203125 l 1
 1171.33789062 578.258789062 l 1
 1167.65234375 553.788085938 l 1
 1155.25878906 545.6953125 l 1
 1090.64160156 472.333984375 l 1
 1064.54003906 457.788085938 l 1
 1040.44628906 472.846679688 l 1
 994.18359375 495.294921875 l 1
 973.924804688 530.048828125 l 1
 988.7734375 579.924804688 l 1
 1063.1015625 663.087890625 l 1
300.678710938 280 m 5
 300.31640625 288.786132812 l 1
 336.736328125 413.9296875 336.736328125 413.9296875 380.748046875 559.147460938 c 1
 388.240234375 580.594726562 l 1
 427.859375 657.071289062 l 1
 436.973632812 665.265625 436.973632812 665.265625 450.809570312 676.444335938 c 1
 486.487304688 722.64453125 l 1
 497.904296875 728.37109375 l 1
 539.916015625 716.559570312 l 1
 602.400390625 686.645507812 l 1
 657.313476562 653.6171875 l 1
 684.8046875 631.624023438 l 1
 688.498046875 596.462890625 l 1
 698.443359375 566.900390625 l 1
 706.813476562 558.180664062 706.813476562 558.180664062 716.942382812 547.6328125 c 1
 731.907226562 544.115234375 l 1
 799.2578125 497.861328125 l 1
 792.053710938 513.348632812 l 1
 854.83984375 456.239257812 854.83984375 456.239257812 875.856445312 437.709960938 c 1
 950.827148438 377.474609375 l 1
 951.041015625 374.234375 l 1
 962.372070312 337.317382812 l 1
 960.758789062 305.96875 l 1
 979.262695312 248.799804688 979.262695312 248.799804688 988.709960938 218.297851562 c 2
 1048.0390625 15.6806640625 l 1
 1089.99121094 76.5029296875 l 1
 1079.93359375 98.3212890625 l 1
 1093.72851562 110.4296875 l 1
 1095.67871094 159 l 1
 1088.95898438 269.880859375 l 1
 1113.33007812 387.799804688 l 1
 1191.25390625 375.365234375 l 1
 1200.64453125 364.088867188 l 1
 1199.36132812 337.317382812 l 1
 1213.80957031 196.833007812 l 1
 1211.88183594 164.255859375 l 1
 1189.19628906 81.0234375 l 1
 1194.95996094 76.2978515625 l 1
 1176.36328125 16.5234375 l 1
 1163.48144531 -10.7080078125 l 1
 1159.67089844 -30.0068359375 l 1
 1085.38085938 -111.875976562 l 1
 1060.40136719 -121.4453125 l 1
 999.620117188 -120.028320312 l 1
 919.622070312 -51.4375 l 1
 919.091796875 -30.787109375 l 1
 913.67578125 2.6767578125 l 1
 905.919921875 16.9482421875 l 1
 892.53515625 50.1025390625 l 1
 877.659179688 108.736328125 l 1
 870.435546875 164.158203125 l 1
 865.5859375 221.802734375 l 1
 852.780273438 248.0859375 l 1
 859.0703125 257.780273438 l 1
 829.342773438 324.220703125 l 1
 798.834960938 364.12109375 l 1
 791.71875 370.78125 l 1
 794.749023438 348.71484375 l 1
 772.064453125 347.708984375 l 1
 738.599609375 393.818359375 l 1
 684.318359375 410.938476562 l 1
 614.075195312 474.80859375 l 1
 587.342773438 517.0390625 l 1
 574.4921875 570.694335938 l 1
 542.395507812 583.705078125 l 1
 511.348632812 563.34765625 l 1
 502.977539062 548.920898438 l 1
 475.459960938 513.662109375 l 1
 472.446289062 504.637695312 472.446289062 504.637695312 442.56640625 430.34765625 c 2
 434.642578125 411.19921875 l 1
 428.880859375 330.625 l 1
 437.423828125 323.673828125 l 1
 424.549804688 320.592773438 l 1
 404.951171875 280.157226562 l 1
 412.22265625 236.92578125 l 1
 394.663085938 203.461914062 l 1
 418.1953125 52.72265625 l 1
 438.655273438 -4.015625 l 1
 443.141601562 -13.884765625 l 1
 462.357421875 -44.1728515625 l 1
 470.887695312 -52.32421875 l 1
 510.678710938 -72 l 1
 515.408203125 -77.884765625 l 1
 547.9453125 -84.4404296875 l 1
 613.9296875 -26.193359375 l 1
 655.091796875 55.2958984375 l 1
 663.525390625 107.240234375 l 1
 665.735351562 118.705078125 l 1
 668.538085938 158.350585938 l 1
 641.192382812 236.220703125 l 1
 651.794921875 271.721679688 l 1
 757.109375 282.393554688 l 1
 761.755859375 272.04296875 l 1
 755.194335938 259.411132812 l 1
 758.604492188 208.704101562 l 1
 794.678710938 108 l 1
 782.678710938 51 l 1
 772.5234375 9.9169921875 l 1
 769.393554688 -30.787109375 l 1
 743.6875 -84.9716796875 l 1
 710.66796875 -103.880859375 l 1
 615.48828125 -207.833984375 560.329101562 -201.131835938 456.59765625 -169.395507812 c 1
 423.631835938 -173.75 l 1
 396.637695312 -129.244140625 l 1
 352.668945312 -86.9599609375 l 1
 342.978515625 -75.3955078125 l 1
 286.677734375 111.295898438 l 1
 286.190429688 116.071289062 l 1
 295.606445312 129.840820312 l 1
 298.668945312 235.583984375 l 1
 300.678710938 280 l 5
EndSplineSet
EndChar

StartChar: P
Encoding: 80 80 15
Width: 1500
Flags: HW
LayerCount: 2
Back
Fore
SplineSet
653.490234375 307.081054688 m 0
 660.58203125 318.400390625 686.28125 321.956054688 691.6328125 313.311523438 c 0
 693.8515625 309.7265625 700.21484375 307.200195312 707.0234375 307.200195312 c 0
 719.537109375 307.200195312 723.462890625 298.666992188 722.744140625 270.629882812 c 0
 722.1640625 248 719.310546875 242.008789062 708.065429688 230.678710938 c 0
 672.322265625 194.666992188 629.814453125 183.323242188 604.204101562 195.315429688 c 0
 569.3828125 211.62109375 582.124023438 263.42578125 585.53125 270.868164062 c 0
 589.974609375 280.572265625 615.947265625 296.533203125 632.083984375 296.533203125 c 0
 641.015625 296.533203125 649.9453125 301.422851562 653.490234375 307.081054688 c 0
524.868164062 -33.5087890625 m 4
 526.508789062 -146.184570312 478.043945312 -177.252929688 460.063476562 -166.071289062 c 0
 448.482421875 -158.870117188 427.745117188 -120.583007812 435.046875 -116.004882812 c 0
 443.506835938 -110.700195312 436.219726562 -46.3955078125 443.0859375 -7.578125 c 0
 452.518554688 45.7509765625 449.471679688 227.6640625 463.225585938 244.407226562 c 0
 468.130859375 250.377929688 459.059570312 262.94140625 464.657226562 266.451171875 c 0
 473.4609375 271.97265625 472.076171875 316.266601562 461.765625 332.921875 c 0
 458.869140625 337.600585938 459.041992188 340.640625 463.479492188 343.334960938 c 0
 470.430664062 347.5546875 471.602539062 355.466796875 468.498046875 379.012695312 c 0
 466.2578125 396 467.107421875 398.30078125 477.487304688 408.087890625 c 0
 517.544921875 445.857421875 520.798828125 426.591796875 529.072265625 439.522460938 c 0
 536.977539062 451.875976562 536.6015625 429.0625 548.400390625 441.844726562 c 0
 556.177734375 450.271484375 581.282226562 467.733398438 621.80859375 492.672851562 c 0
 658.08203125 514.995117188 662.704101562 519.452148438 654.830078125 521.748046875 c 0
 640.0859375 526.048828125 564.206054688 568.533203125 537.581054688 568.533203125 c 0
 522.768554688 568.533203125 510.545898438 581.684570312 493.615234375 585.916992188 c 0
 480.953125 589.08203125 472.669921875 596.799804688 462.633789062 618.126953125 c 0
 458.859375 626.1484375 459.022460938 627.200195312 464.466796875 634.326171875 c 0
 490.84765625 668.853515625 506.615234375 669.810546875 559.016601562 650.504882812 c 0
 616.44921875 629.345703125 612.147460938 639.05859375 632.059570312 625.540039062 c 0
 652.748046875 611.494140625 687.548828125 595.200195312 696.638671875 595.200195312 c 0
 705.436523438 595.200195312 712.7109375 579.93359375 735.055664062 577.489257812 c 0
 746.0390625 576.288085938 762.348632812 571.0078125 781.91796875 561.092773438 c 0
 784.748046875 559.659179688 794.134765625 554.965820312 794.48046875 554.828125 c 0
 795.611328125 554.375 799.715820312 542.666992188 807.118164062 518.416992188 c 0
 811.599609375 503.733398438 811.529296875 503.326171875 807.958007812 500.01953125 c 0
 761.583984375 457.079101562 678.880859375 438.182617188 678.880859375 425.08203125 c 0
 678.880859375 421.514648438 672.748046875 417.696289062 666.997070312 416.28515625 c 0
 646.901367188 411.35546875 569.048828125 364.004882812 568.841796875 362.291015625 c 0
 568.758789062 361.607421875 523.21484375 80 524.868164062 -33.5087890625 c 4
677.818359375 694.12109375 m 0
 672.28125 716.73046875 692.169921875 755.215820312 740.392578125 746.104492188 c 0
 781.282226562 738.37890625 849.91796875 695.040039062 853.98046875 685.266601562 c 0
 855.16015625 682.4296875 860.21484375 680.533203125 865.125 680.533203125 c 0
 879.950195312 680.533203125 885.890625 663.248046875 891.549804688 666.784179688 c 0
 894.490234375 668.622070312 899.583984375 666.133789062 901.934570312 663.3046875 c 0
 910.482421875 653.017578125 978.615234375 619.176757812 1002.24023438 613.197265625 c 0
 1020.62695312 608.543945312 1009.59667969 601.283203125 1042.48339844 575.482421875 c 0
 1073.01367188 551.53125 1075.15820312 536.133789062 1044.57617188 503.865234375 c 0
 1028.52929688 486.93359375 1010.2734375 472.533203125 1003.0546875 472.533203125 c 0
 989.606445312 472.533203125 947.795898438 422.547851562 918.583984375 409.963867188 c 0
 910.615234375 406.53125 902.880859375 400.8203125 902.880859375 397.126953125 c 0
 902.880859375 394.958007812 900.21484375 392.533203125 899.379882812 392.533203125 c 0
 896.77734375 392.533203125 840.913085938 368.991210938 810.989257812 309.858398438 c 0
 802.916015625 293.903320312 798.348632812 291.200195312 781.970703125 291.200195312 c 0
 689.868164062 291.200195312 734.241210938 376.688476562 768.993164062 395.047851562 c 0
 792.375976562 407.400390625 842.302734375 461.8671875 853.091796875 461.8671875 c 0
 862.662109375 461.8671875 891.490234375 504.724609375 897.591796875 502.823242188 c 0
 902.6953125 501.232421875 934.880859375 527.466796875 934.880859375 535.248046875 c 0
 934.880859375 542.400390625 907.681640625 561.349609375 891.85546875 564.927734375 c 0
 880.821289062 567.422851562 865.685546875 577.06640625 857.286132812 585.612304688 c 0
 834.758789062 608.533203125 752.2265625 651.102539062 735.333984375 644.65234375 c 0
 722.012695312 639.56640625 683.497070312 670.93359375 677.818359375 694.12109375 c 0
EndSplineSet
EndChar

StartChar: Q
Encoding: 81 81 16
Width: 1500
Flags: HW
LayerCount: 2
Back
Fore
SplineSet
945.896484375 280.287109375 m 16
 966.55859375 322.40234375 1018.83203125 316.540039062 1032.97460938 293.643554688 c 0
 1063.84179688 243.669921875 956.6953125 157 875.564453125 149.874023438 c 0
 807.057617188 143.856445312 767.6953125 149 698.6953125 149 c 24
 651.724609375 149 650.360351562 240.232421875 701.6953125 238 c 24
 727.6953125 237 734.423828125 197.284179688 760.6953125 194 c 0
 856.6953125 181.999023438 944.829101562 278.112304688 945.896484375 280.287109375 c 16
878.88671875 285.739257812 m 1
 806.16796875 278.594726562 733.450195312 267.889648438 660.73046875 285.739257812 c 0
 636.084960938 291.7890625 615.315429688 302.571289062 616.435546875 329.260742188 c 0
 620.87890625 435.16796875 694.259765625 344.915039062 778.6953125 342 c 0
 863.234375 339.081054688 934.658203125 463.822265625 930.087890625 345.260742188 c 0
 929.193359375 322.049804688 878.88671875 285.739257812 878.88671875 285.739257812 c 1
750 489.5390625 m 0
 750 529.608398438 773.375 552.900390625 803.42578125 542.77734375 c 0
 888.017578125 514.284179688 901.75 418.3046875 821.234375 418.3046875 c 0
 781.166015625 418.3046875 750 449.469726562 750 489.5390625 c 0
559.05078125 605.295898438 m 0
 626.328125 680.982421875 705.478515625 709.861328125 705.478515625 658.721679688 c 0
 705.478515625 646.795898438 662.677734375 578.583007812 613.29296875 511.799804688 c 0
 379.53515625 195.6953125 845.298828125 -70.43359375 1083.77148438 186.791015625 c 2
 1195.21679688 307 l 1
 1195.21679688 115.556640625 l 1
 1191.21679688 -71.88671875 l 5
 937.443359375 -47.400390625 l 6
 884.76953125 -42.318359375 693.62890625 4.9658203125 664 32 c 0
 445.564453125 231.301757812 525.473632812 167.421875 531.0859375 -1.1650390625 c 0
 535.8125 -143.1484375 480.939453125 -17.03515625 484.712890625 64.5830078125 c 0
 493.93359375 264.033203125 540.09375 457.592773438 362.66015625 234.28125 c 0
 326.833984375 189.19140625 304.783203125 198.606445312 304.783203125 237.991210938 c 0
 304.783203125 266.239257812 333.72265625 300.16796875 369.33984375 313.678710938 c 0
 405.37109375 327.345703125 446.68359375 380.4609375 462.833984375 433.88671875 c 0
 478.986328125 487.313476562 521.501953125 563.051757812 559.05078125 605.295898438 c 0
1159 -30 m 0
 1156.08398438 -0.4736328125 1178.71289062 192 1152 192 c 0
 1125.28710938 192 969.170898438 31.1005859375 948.6953125 16 c 0
 927 0 884.086914062 -5.5927734375 896 -4 c 0
 912.557617188 -1.7861328125 1160.77929688 -48.0205078125 1159 -30 c 0
EndSplineSet
EndChar

StartChar: R
Encoding: 82 82 17
Width: 1500
Flags: HW
LayerCount: 2
Back
Fore
SplineSet
421.090820312 -60.9794921875 m 0
 413.32421875 -60.9794921875 421.223632812 -49.474609375 424.688476562 -49.474609375 c 0
 426.23828125 -49.474609375 427.2734375 -51.775390625 427.2734375 -54.38671875 c 0
 427.2734375 -58.5146484375 424.685546875 -60.9794921875 421.090820312 -60.9794921875 c 0
711.461914062 -89.3369140625 m 24
 768.99609375 -100.647460938 826.685546875 -92.69140625 847.0859375 -55.4384765625 c 0
 851.296875 -47.748046875 855.594726562 -44.0498046875 857.125 -45.59765625 c 0
 861.571289062 -50.09375 904.756835938 -25.8876953125 904.756835938 -19.0361328125 c 0
 904.756835938 -17.0205078125 908.49609375 -14.95703125 913.65234375 -14.95703125 c 0
 924.80078125 -14.95703125 923.3359375 -5.3115234375 946.427734375 9.654296875 c 0
 971.947265625 26.1943359375 986.026367188 48.2587890625 999.57421875 48.455078125 c 0
 1010.03320312 48.6064453125 1046.34863281 62.1611328125 1056.74902344 70.6865234375 c 0
 1072.01269531 83.1982421875 1085.04589844 58.9541015625 1090.53222656 72.6708984375 c 0
 1092.65039062 77.966796875 1095.68652344 77.087890625 1100.47851562 70.9267578125 c 0
 1118.94238281 47.1865234375 1123.49804688 86.240234375 1180.28417969 67.8447265625 c 0
 1210.80664062 57.95703125 1226.41796875 41.1904296875 1226.62695312 10.076171875 c 0
 1226.85546875 -24.0361328125 1208.37597656 -46.5380859375 1147.80957031 -37.66796875 c 0
 1021.26660156 -19.1357421875 958.609375 -119.999023438 941.575195312 -121.959960938 c 1
 909.647460938 -143.245117188 l 2
 891.631835938 -155.255859375 874.036132812 -164.530273438 865.889648438 -164.530273438 c 0
 855.944335938 -164.530273438 864.397460938 -178.352539062 789.598632812 -190.819335938 c 0
 701.690429688 -205.470703125 717.5546875 -181.7890625 684.37109375 -181.7890625 c 0
 667.67578125 -181.7890625 669.5546875 -175.794921875 636.107421875 -164.240234375 c 0
 611.364257812 -155.692382812 590.706054688 -144.919921875 564.232421875 -122.818359375 c 8
 549.932617188 -110.87890625 455.012695312 -29.2919921875 427.905273438 -23.7314453125 c 0
 414.07421875 -20.89453125 450.448242188 -12.1845703125 369.357421875 -9.8671875 c 0
 319.12109375 -8.431640625 302.633789062 -4.21875 283.862304688 17.8955078125 c 0
 267.978515625 36.6083984375 268.255859375 47.1728515625 297.78515625 86.1171875 c 0
 297.786132812 86.1181640625 310.9296875 103.452148438 453.7421875 87.1298828125 c 1
 490.85546875 54.3330078125 488.970703125 79.853515625 591.879882812 -20.927734375 c 0
 622.916992188 -51.322265625 651.99609375 -77.6474609375 711.461914062 -89.3369140625 c 24
702.9453125 120.478515625 m 0
 710.375976562 123.741210938 729.296875 126.498046875 751.827148438 127.333007812 c 0
 773.592773438 128.138671875 779.07421875 126.422851562 787.845703125 115.177734375 c 0
 797.890625 102.298828125 799.556640625 93.1953125 796.383789062 53 c 0
 793.65234375 18.4091796875 791.223632812 10.015625 780.451171875 -1.517578125 c 0
 712.120117188 -74.671875 658.427734375 100.934570312 702.9453125 120.478515625 c 0
300.711914062 122.26953125 m 0
 300.711914062 126.397460938 303.30078125 128.86328125 306.895507812 128.86328125 c 0
 314.661132812 128.86328125 306.763671875 117.357421875 303.297851562 117.357421875 c 0
 301.748046875 117.357421875 300.711914062 119.658203125 300.711914062 122.26953125 c 0
553.8359375 434.942382812 m 0
 553.8359375 453.708984375 576.846679688 472.299804688 576.846679688 481.079101562 c 0
 576.846679688 492.762695312 617.590820312 578.776367188 629.118164062 586.845703125 c 0
 636.196289062 591.80078125 616.729492188 599.853515625 641.40625 608.744140625 c 0
 672.34375 619.890625 718.461914062 660.186523438 731.349609375 685.100585938 c 0
 746.724609375 714.823242188 737.622070312 766.771484375 766.510742188 789.161132812 c 0
 796.092773438 812.087890625 837.590820312 782.381835938 833.921875 710.9453125 c 0
 831.348632812 660.856445312 854.31640625 696.215820312 860.549804688 679.21484375 c 0
 867.212890625 661.043945312 900.961914062 680.946289062 912.32421875 660.494140625 c 0
 921.212890625 644.495117188 948.603515625 644.543945312 1007.13671875 573.004882812 c 0
 1007.13769531 573.00390625 1012.07519531 566.969726562 1028.84472656 529.635742188 c 0
 1056.87207031 467.243164062 1059.74902344 446.993164062 1061.296875 354.934570312 c 0
 1062.49511719 283.61328125 1064.5078125 254.451171875 1068.36035156 250.598632812 c 0
 1075.06640625 243.892578125 1146 255.224609375 1172.33007812 228.89453125 c 0
 1186.64453125 214.580078125 1196.34472656 180.565429688 1186.48730469 180.294921875 c 0
 1181.12207031 180.147460938 1170.82128906 169.708007812 1161.47070312 156.249023438 c 0
 1144.15039062 131.317382812 1131.99316406 128.873046875 1107.14160156 139.5546875 c 0
 1045.1328125 166.20703125 985.934570312 143.90234375 919.247070312 207.8125 c 0
 904.756835938 221.69921875 896.78125 225.611328125 890.586914062 223.288085938 c 0
 881.732421875 219.967773438 843.77734375 219.838867188 786.661132812 222.986328125 c 0
 739.076171875 225.609375 726.505859375 224.760742188 695.748046875 214.418945312 c 0
 678.671875 208.677734375 660.620117188 203.649414062 657.213867188 203.649414062 c 0
 645.12890625 203.649414062 588.911132812 140.368164062 570.53125 140.368164062 c 0
 553.443359375 140.368164062 513.56640625 195.064453125 513.56640625 166.970703125 c 0
 513.56640625 159.424804688 510.689453125 158.765625 503.002929688 161.80859375 c 0
 466.4375 176.28125 437.99609375 146.856445312 386.84765625 171.678710938 c 0
 376.626953125 176.638671875 375.499023438 178.912109375 375.499023438 194.90625 c 0
 375.499023438 263.126953125 396.021484375 262.92578125 412.138671875 262.462890625 c 0
 493.431640625 260.12890625 518.438476562 269.264648438 529.787109375 347.678710938 c 0
 538.401367188 407.192382812 553.8359375 419.572265625 553.8359375 434.942382812 c 0
829.813476562 578.44140625 m 0
 816.739257812 580.635742188 796.489257812 584.278320312 790.61328125 585.453125 c 0
 771.974609375 589.181640625 766.315429688 586.2109375 746.6015625 565.28125 c 0
 733.262695312 551.119140625 714.833984375 532.944335938 707.217773438 526.161132812 c 0
 693.62890625 514.05859375 686.150390625 501.7890625 686.150390625 492.44140625 c 0
 686.150390625 486.112304688 682.72265625 479.784179688 678.083984375 479.784179688 c 0
 663.959960938 479.784179688 641.241210938 421.10546875 638.09375 381.293945312 c 0
 634.100585938 330.810546875 601.743164062 313.243164062 625.211914062 312.671875 c 0
 647.12109375 312.13671875 610.6640625 305.595703125 620.104492188 300.087890625 c 0
 625.484375 296.94921875 635.813476562 299.95703125 646.490234375 307.139648438 c 0
 653.071289062 311.56640625 666.799804688 319.3046875 671.944335938 321.586914062 c 0
 695.899414062 332.212890625 794.302734375 340.125 827.734375 334.185546875 c 0
 838.39453125 332.291992188 871.965820312 328.91015625 898.62109375 327.323242188 c 0
 934.096679688 325.211914062 948.624023438 321.896484375 956.846679688 310.64453125 c 0
 967.26953125 296.3828125 975.447265625 311.801757812 970.391601562 351.555664062 c 0
 968.716796875 364.727539062 966.171875 393.4921875 965.440429688 408.2109375 c 0
 962.8828125 459.649414062 947.27734375 499.65234375 909.758789062 542.326171875 c 0
 890.057617188 564.734375 880.020507812 570.014648438 829.813476562 578.44140625 c 0
EndSplineSet
EndChar

StartChar: S
Encoding: 83 83 18
Width: 1500
Flags: HW
LayerCount: 2
Back
Fore
SplineSet
760.4609375 309.112304688 m 0
 760.4609375 315.14453125 762.9296875 318.969726562 768.108398438 318.969726562 c 0
 782.040039062 318.969726562 760.4609375 291.276367188 760.4609375 309.112304688 c 0
452.490234375 280.3515625 m 0
 447.540039062 265.791015625 426.646484375 289.544921875 444.303710938 289.544921875 c 0
 450.907226562 289.544921875 454.485351562 286.221679688 452.490234375 280.3515625 c 0
601.124023438 301.314453125 m 0
 593.1796875 301.314453125 601.26171875 313.084960938 604.805664062 313.084960938 c 0
 606.390625 313.084960938 607.450195312 310.73046875 607.450195312 308.059570312 c 0
 607.450195312 303.836914062 604.801757812 301.314453125 601.124023438 301.314453125 c 0
967.073242188 435.200195312 m 0
 967.853515625 450.012695312 974.451171875 431.147460938 970.060546875 426.756835938 c 0
 968.111328125 424.807617188 966.716796875 428.431640625 967.073242188 435.200195312 c 0
909.932617188 517.107421875 m 0
 917.47265625 528.557617188 921.696289062 528.478515625 935.383789062 511.250976562 c 0
 950.6171875 492.077148438 951.610351562 484.33984375 946.688476562 473.557617188 c 0
 934.684570312 447.264648438 904.192382812 439.42578125 897.286132812 457.608398438 c 0
 892.943359375 469.0390625 895.967773438 495.90234375 909.932617188 517.107421875 c 0
307.947265625 547.015625 m 0
 308.725585938 561.831054688 315.325195312 542.963867188 310.93359375 538.573242188 c 0
 308.984375 536.624023438 307.590820312 540.248046875 307.947265625 547.015625 c 0
894.684570312 -99 m 1
 894.684570312 -102.015625 818.393554688 -149 811.333007812 -149 c 0
 808.809570312 -149 798.684570312 -155 768.956054688 -178.6640625 c 0
 753.754882812 -190.763671875 750.162109375 -194.162109375 690.64453125 -193.67578125 c 0
 640.112304688 -193.263671875 608.540039062 -195.4765625 601.595703125 -201.0859375 c 0
 593.165039062 -207.895507812 572.700195312 -190.115234375 568.083984375 -194.731445312 c 0
 563.157226562 -199.658203125 529.163085938 -190.084960938 488.80078125 -179.694335938 c 2
 488.80078125 -179.694335938 466.208007812 -177.345703125 466.208007812 -173.681640625 c 0
 466.208007812 -166.76171875 385.594726562 -137.358398438 366.684570312 -141 c 1
 344.9765625 -87.6875 l 2
 330.913085938 -53.1474609375 401.509765625 -48.1015625 432.822265625 -64.7578125 c 0
 449.016601562 -73.37109375 447.345703125 -61.08984375 456.12109375 -68.3759765625 c 0
 477.708007812 -86.3017578125 580.966796875 -106.108398438 611.111328125 -100.436523438 c 0
 633.913085938 -96.146484375 601.435546875 -79.80859375 612.459960938 -73.09765625 c 0
 627.239257812 -64.1015625 605.831054688 -12.23828125 617.778320312 -2.28125 c 0
 639.96875 16.2119140625 625.580078125 244.706054688 637.798828125 256.922851562 c 0
 640.89453125 260.018554688 642.759765625 277.48046875 642.759765625 296.3125 c 2
 642.759765625 330.740234375 l 1
 583.909179688 330.740234375 l 1
 583.909179688 308.083007812 l 2
 583.909179688 307.291015625 580.96875 247.220703125 523.169921875 242.875 c 0
 445.784179688 237.057617188 499.62109375 348.395507812 460.482421875 348.395507812 c 0
 430.76953125 348.395507812 387.340820312 412.564453125 414.135742188 437.974609375 c 0
 419.584960938 443.141601562 426.484375 445.327148438 452.37890625 444.321289062 c 2
 482.686523438 443.14453125 l 1
 484.74609375 468.745117188 l 2
 485.8828125 482.869140625 485.090820312 493.2890625 482.486328125 491.685546875 c 0
 475.294921875 487.26171875 478.028320312 572.02734375 425.477539062 572.02734375 c 0
 405.895507812 572.02734375 421.41796875 583.797851562 370.139648438 583.797851562 c 0
 331.440429688 583.797851562 312.721679688 577.09375 299.71484375 564.545898438 c 0
 280.240234375 545.759765625 254.346679688 546.229492188 238.920898438 557.006835938 c 0
 229.641601562 563.489257812 226.545898438 572.02734375 226.083007812 593.34765625 c 0
 225.598632812 615.577148438 228.598632812 623.099609375 241.922851562 637.774414062 c 0
 281.435546875 681.294921875 296.359375 660.6328125 330.122070312 690.838867188 c 1
 480.920898438 676.575195312 498.401367188 672.12109375 500.555664062 665.8984375 c 0
 501.518554688 663.115234375 507.403320312 655.328125 512.767578125 650.330078125 c 0
 526.236328125 637.779296875 554.484375 596.9296875 554.484375 589.201171875 c 0
 554.484375 581.526367188 582.337890625 552.36328125 584.89453125 528.509765625 c 0
 588.340820312 496.346679688 630.328125 524.037109375 607.190429688 500.256835938 c 0
 598.57421875 491.40234375 596.243164062 491.150390625 593.572265625 497.734375 c 0
 587.837890625 511.869140625 590.180664062 478.455078125 596.549804688 460.2109375 c 2
 603.330078125 440.791015625 l 1
 613.923828125 453.443359375 l 2
 621.313476562 462.271484375 625.850585938 463.9609375 628.998046875 458.926757812 c 0
 631.504882812 454.915039062 630.401367188 451 625.786132812 449.475585938 c 0
 616.006835938 446.24609375 617.454101562 430.786132812 629.78125 430.786132812 c 0
 640.536132812 430.786132812 628.611328125 442.556640625 633.482421875 442.556640625 c 0
 645.916015625 442.556640625 643.305664062 519.2265625 660.204101562 556.953125 c 0
 668.538085938 575.55859375 668.920898438 596.478515625 657.817382812 607.58203125 c 0
 643.883789062 621.515625 682.376953125 616.567382812 658.379882812 640.564453125 c 0
 649.528320312 649.416015625 641.219726562 662.288085938 637.715820312 676.174804688 c 0
 629.932617188 707.017578125 650.999023438 722.462890625 733.266601562 733.743164062 c 0
 788.12109375 741.265625 809.186523438 738.571289062 836.043945312 718.655273438 c 0
 850.502929688 707.932617188 854.622070312 701.130859375 852.6953125 690.291992188 c 0
 851.287109375 682.372070312 853.34765625 677.958984375 857.444335938 677.958984375 c 0
 873.505859375 677.958984375 789.88671875 610.090820312 789.88671875 589.213867188 c 0
 789.88671875 579.78515625 772.833984375 579.302734375 766.168945312 529.979492188 c 0
 760.288085938 486.462890625 748.69140625 498.508789062 748.69140625 465.231445312 c 0
 748.69140625 431.706054688 760.4609375 427.366210938 843.313476562 424.00390625 c 0
 912.295898438 421.204101562 966.708984375 416.318359375 989.576171875 411.303710938 c 0
 1003.51464844 408.247070312 1020.96289062 407.0390625 1023.6953125 409.771484375 c 0
 1033.67871094 419.75390625 1020.63183594 655.776367188 1056.5546875 676.634765625 c 0
 1058.41894531 677.717773438 1059.42285156 677.64453125 1073.171875 670.301757812 c 0
 1106.50292969 652.499023438 1110.43554688 647.677734375 1109.61328125 636.172851562 c 0
 1108.81445312 624.993164062 1112.09375 614.3671875 1117.203125 610.393554688 c 0
 1125.49316406 603.9453125 1133.14160156 576.735351562 1131.2734375 553.514648438 c 0
 1129.6171875 532.9296875 1128.79296875 426.59375 1122.3984375 420.197265625 c 0
 1121.08984375 418.889648438 1119.45019531 412.836914062 1119.45019531 407.731445312 c 0
 1119.45019531 397.821289062 1125.62890625 396.953125 1173.88671875 399.30078125 c 2
 1228.32324219 401.94921875 l 1
 1250.09863281 382.528320312 l 2
 1268.00195312 366.560546875 1272.20019531 358.399414062 1273.64355469 337.666992188 c 0
 1276.24023438 300.333984375 1264.81054688 295.4296875 1177.71191406 295.4296875 c 2
 1109.4453125 295.4296875 l 1
 1112.09375 277.774414062 l 2
 1114.12402344 264.239257812 1112.54492188 260.119140625 1106.23730469 260.119140625 c 0
 1100.02929688 260.119140625 1095.91015625 256.12890625 1095.91015625 249.616210938 c 0
 1095.91015625 237.293945312 1081.16113281 226.443359375 1075.47265625 192.024414062 c 0
 1070.96875 164.78125 1058.44628906 138.12890625 1049.29785156 131.533203125 c 0
 1038.41015625 123.68359375 1043.88378906 102.669921875 1035.45117188 91.4267578125 c 0
 1027.61035156 80.9736328125 1041.3671875 74.8388671875 1025.98242188 64.69140625 c 0
 1002.47949219 49.189453125 991.45703125 6.423828125 967.013671875 -15.5068359375 c 0
 953.491210938 -27.6376953125 924.727539062 -63.50390625 916.684570312 -67 c 1
 894.684570312 -99 l 1
166.0703125 -101.811523438 m 1025
1005.12695312 310.46875 m 0
 987.336914062 308.536132812 763.454101562 335.575195312 754.451171875 328.99609375 c 0
 751.379882812 326.750976562 753.489257812 306.09765625 745.09375 284.70703125 c 0
 730.362304688 247.171875 728.653320312 162.674804688 748.177734375 138.465820312 c 4
 750.548828125 135.524414062 750.162109375 134.725585938 744.87890625 136.688476562 c 4
 731.76171875 141.560546875 731.243164062 135.944335938 734.387695312 46.6611328125 c 0
 735.594726562 12.3583984375 737.216796875 -36.7119140625 737.377929688 -42.9287109375 c 0
 738.231445312 -75.91796875 748.428710938 -86.8076171875 748.610351562 -60.560546875 c 0
 748.670898438 -51.7890625 749.826171875 -50.6376953125 751.509765625 -53.29296875 c 0
 766.454101562 -76.8779296875 863.424804688 4.7080078125 909.412109375 72.1318359375 c 4
 927.6484375 98.869140625 928.934570312 110.282226562 915.290039062 115.588867188 c 4
 901.665039062 120.88671875 906.411132812 130.91796875 929.458984375 140.560546875 c 4
 956.912109375 152.045898438 938.81640625 155.890625 954.577148438 175.09375 c 4
 969.780273438 193.618164062 995.864257812 249.494140625 995.864257812 269.181640625 c 0
 995.864257812 276.59765625 999.565429688 285.654296875 1007.30078125 288.590820312 c 0
 1019.73925781 293.314453125 1015.87304688 311.635742188 1005.12695312 310.46875 c 0
EndSplineSet
EndChar

StartChar: T
Encoding: 84 84 19
Width: 1500
Flags: HW
LayerCount: 2
Back
Fore
SplineSet
983.235351562 444.89453125 m 0
 1051.69335938 394.692382812 1189.42480469 658.084960938 1093.42382812 581.036132812 c 0
 1007.375 511.973632812 1034.14355469 656.26171875 995.884765625 586.120117188 c 0
 975.637695312 549 947.637695312 471 983.235351562 444.89453125 c 0
997.845703125 328.522460938 m 0
 985.880859375 323.920898438 976.924804688 333.03125 994.30859375 332.116210938 c 0
 1001.15722656 331.755859375 1002.57226562 330.340820312 997.845703125 328.522460938 c 0
884.673828125 99.5498046875 m 24
 920.637695312 89 921.01953125 77.2685546875 962.470703125 91.421875 c 0
 977.477539062 96.5458984375 990.26171875 99.3564453125 991.68359375 98.0927734375 c 0
 995.583984375 94.6259765625 1121.93261719 88.99609375 1109.05175781 97.0458984375 c 0
 1101.42089844 101.814453125 1145.70410156 99.87109375 1165.19042969 103.28125 c 0
 1176.95507812 105.340820312 1178.51171875 102.080078125 1179.05957031 76.0234375 c 0
 1179.66992188 47.0400390625 1177.90234375 43.55078125 1159.27050781 30.7265625 c 0
 1141.63769531 18.5888671875 1130.4375 8.84375 1130.4375 5.302734375 c 0
 1130.4375 -3.9326171875 1054.27734375 -15.67578125 923.26953125 -23.92578125 c 0
 878.91796875 -26.71875 874.989257812 -26.169921875 851.322265625 -13.8984375 c 0
 822.59765625 0.9951171875 804.33203125 12.658203125 801.395507812 16.3955078125 c 0
 792.838867188 27.28515625 710.59765625 33.5927734375 691.778320312 23.5166015625 c 0
 687.557617188 21.255859375 682.970703125 21.3330078125 681.380859375 25.875 c 0
 672.814453125 50.3515625 573.637695312 -44.5634765625 573.637695312 -70.4443359375 c 0
 573.637695312 -79.7431640625 560.837890625 -78.3388671875 560.837890625 -98.72265625 c 0
 560.837890625 -122.254882812 543.779296875 -118.247070312 539.704101562 -130.813476562 c 0
 536.307617188 -141.287109375 517.637695312 -159.529296875 487.68359375 -182.435546875 c 0
 462.59765625 -201.619140625 454.801757812 -204.799804688 422.309570312 -204.799804688 c 0
 380.357421875 -204.799804688 362.4375 -199.497070312 362.4375 -190.264648438 c 0
 362.4375 -174.719726562 311.637695312 -137 315.576171875 -93.1064453125 c 24
 318.637695312 -59 356.286132812 -4.087890625 375.735351562 -23.5380859375 c 0
 381.099609375 -28.90234375 391.237304688 -32 399.015625 -32 c 0
 421.95703125 -32 483.788085938 -5.060546875 483.973632812 7.7919921875 c 0
 484.10546875 16.9482421875 515.40234375 24.8828125 567.471679688 92.6298828125 c 0
 587.032226562 118.080078125 592.141601562 129.354492188 591.815429688 156.122070312 c 0
 591.271484375 200.783203125 605.385742188 241.233398438 593.177734375 249.373046875 c 0
 577.874023438 259.576171875 614.36328125 313.599609375 586.116210938 313.599609375 c 0
 577.982421875 313.599609375 576.0859375 318.080078125 577.995117188 325.400390625 c 0
 582.931640625 344.3203125 568.290039062 366.693359375 557.025390625 363.729492188 c 0
 546.7578125 361.02734375 545.637695312 382.524414062 545.637695312 384.77734375 c 0
 545.637695312 398.771484375 502.438476562 369.021484375 472.034179688 389.100585938 c 0
 465.797851562 393.219726562 458.298828125 395.719726562 458.043945312 391.395507812 c 0
 457.6484375 384.684570312 440.951171875 413.873046875 434.875 407.797851562 c 0
 424.487304688 397.412109375 398.610351562 505.61328125 414.838867188 495.424804688 c 0
 417.477539062 493.767578125 420.037109375 494.591796875 420.037109375 497.72265625 c 0
 420.037109375 510.038085938 459.637695312 513 474.922851562 515.547851562 c 24
 495.637695312 519 499.397460938 512 515.15625 512 c 0
 551.448242188 512 606.70703125 474.879882812 637.24609375 439.220703125 c 0
 671.931640625 398.719726562 678.336914062 355.890625 678.4921875 360.090820312 c 0
 678.76953125 367.5546875 703.985351562 366.838867188 707.532226562 384.359375 c 0
 709.42578125 393.711914062 701.848632812 391.9921875 701.606445312 421.74609375 c 0
 701.4140625 445.439453125 696.637695312 441 699.400390625 450.2109375 c 24
 708.637695312 481 682.640625 518.58203125 735.438476562 518.205078125 c 0
 770.1171875 517.95703125 797.637695312 501.627929688 797.637695312 484.786132812 c 0
 797.637695312 469.484375 820.354492188 461.279296875 827.110351562 425.142578125 c 0
 831.692382812 400.639648438 845.521484375 378.763671875 856.32421875 390.818359375 c 0
 864.96484375 400.459960938 877.3515625 437.861328125 878.966796875 447.266601562 c 0
 880.637695312 457 886.927734375 456.422851562 881.483398438 463.3515625 c 0
 868.279296875 480.157226562 890.3671875 495.748046875 884.5 523.483398438 c 0
 878.365234375 552.487304688 899.610351562 583.302734375 881.791015625 579.51171875 c 0
 868.037109375 576.5859375 876.997070312 594.16015625 902.833984375 608.693359375 c 0
 933.87890625 626.15625 926.319335938 640 944.534179688 640 c 0
 961.72265625 640 962.137695312 652.328125 1000.62890625 670.059570312 c 0
 1055.51757812 695.34375 1028.63867188 662 1062.28808594 662 c 0
 1074.125 662 1091.66992188 657.05078125 1120.80273438 638.272460938 c 0
 1162.91308594 611.129882812 1168.03613281 594.540039062 1174.96875 590.138671875 c 0
 1187.25 582.341796875 1186.7578125 540.799804688 1179.50488281 533.547851562 c 0
 1176.94433594 530.986328125 1175.23730469 524.16015625 1175.23730469 519.588867188 c 0
 1175.23730469 488.3203125 1095.34863281 403.200195312 1063.45214844 403.200195312 c 0
 1057.47753906 403.200195312 1053.49023438 400.212890625 1055.37792969 395.235351562 c 0
 1061.41894531 379.311523438 1015.23730469 362.891601562 1015.23730469 371.715820312 c 0
 1015.23730469 374.463867188 1019.71777344 377.599609375 1024.89941406 377.599609375 c 0
 1029.95703125 377.599609375 1034.4375 380.586914062 1034.4375 384.890625 c 0
 1034.4375 393.649414062 1015.87792969 382.500976562 982.400390625 352.092773438 c 0
 969.797851562 340.645507812 949.096679688 322.651367188 941.616210938 316.565429688 c 0
 928.517578125 305.909179688 921.341796875 296.537109375 923.20703125 293.551757812 c 0
 930.291992188 282.216796875 1092.03710938 324.142578125 1092.03710938 262.890625 c 0
 1092.03710938 241.787109375 1072.83789062 220.547851562 1053.09863281 214.3671875 c 0
 1039.55761719 210.126953125 1036.37304688 201.962890625 1045.01367188 196.62109375 c 0
 1063.22558594 185.362304688 1029.3984375 161.265625 1001.23046875 177.749023438 c 0
 973.711914062 193.852539062 885.737304688 203.44140625 853.923828125 187.6328125 c 0
 842.216796875 181.815429688 820.01171875 178 816.405273438 178 c 0
 806.995117188 178 773.637695312 152.009765625 773.637695312 149.283203125 c 0
 773.637695312 145.278320312 845.637695312 111 884.673828125 99.5498046875 c 24
710.556640625 205.258789062 m 0
 728.637695312 209 785.6875 371.99609375 728.627929688 328.805664062 c 0
 718.548828125 321.17578125 689.637695312 303.030273438 689.637695312 296.138671875 c 0
 689.637695312 292.790039062 696.462890625 202.342773438 710.556640625 205.258789062 c 0
EndSplineSet
EndChar

StartChar: U
Encoding: 85 85 20
Width: 1500
Flags: HW
LayerCount: 2
Back
Fore
SplineSet
301.600585938 -184.203125 m 1
 309.015625 -159.485351562 l 2
 327.790039062 -96.90234375 278.828125 -34.013671875 298.665039062 -26.9736328125 c 0
 311.90234375 -22.2763671875 291.744140625 6.306640625 329.525390625 51.9052734375 c 0
 359.727539062 88.3564453125 392.165039062 36.4873046875 403.206054688 36.4873046875 c 0
 406.901367188 36.4873046875 409.296875 32.9560546875 409.296875 27.8720703125 c 0
 409.296875 16.4775390625 421.33203125 9.5517578125 424.28125 14.34375 c 0
 432.891601562 28.3369140625 566.427734375 19.4970703125 611.983398438 10.673828125 c 0
 668.828125 -0.3369140625 703.549804688 -33.5703125 703.549804688 -49.16796875 c 0
 703.549804688 -53.5546875 706.296875 -57.673828125 709.521484375 -57.673828125 c 0
 712.745117188 -57.673828125 715.3203125 -61.7939453125 715.3203125 -67.1708984375 c 0
 715.3203125 -104.124023438 836.946289062 -119.001953125 863.947265625 -94.7412109375 c 0
 867.155273438 -91.8583984375 874.40234375 -87.099609375 878.137695312 -87.099609375 c 0
 887.96484375 -87.099609375 927.127929688 -54.142578125 947.0703125 -27.494140625 c 0
 958.836914062 -11.7705078125 976 4.4189453125 986.508789062 8.384765625 c 0
 1010.8046875 17.552734375 1033.27148438 -25.8896484375 1037.20605469 -44.955078125 c 0
 1041.62109375 -66.3525390625 1003.68847656 -75.4013671875 1003.68847656 -87.5986328125 c 0
 1003.68847656 -97.0947265625 927.182617188 -176.913085938 927.182617188 -176.913085938 c 2
 926.658203125 -178.51171875 713.594726562 -205.860351562 678.755859375 -166.323242188 c 0
 676.069335938 -163.274414062 623.587890625 -102.115234375 572.743164062 -94.4658203125 c 0
 552.892578125 -91.4794921875 485.845703125 -89.5107421875 476.333007812 -95.3994140625 c 0
 469.065429688 -99.8984375 441.409179688 -91.64453125 435.3359375 -98.931640625 c 0
 427.350585938 -108.513671875 419.975585938 -189 419.975585938 -189 c 1
 419.975585938 -189 301.975585938 -183 301.600585938 -184.203125 c 1
725.541015625 635.153320312 m 0
 727.346679688 661.033203125 751.162109375 679.931640625 782.672851562 665.388671875 c 0
 803.587890625 655.735351562 808.51171875 640.293945312 812.030273438 580.497070312 c 0
 816.024414062 512.587890625 822.475585938 490.9609375 830.014648438 502.390625 c 0
 834.282226562 508.861328125 843.614257812 512.94140625 890.62109375 522.342773438 c 0
 914.82421875 527.18359375 918.466796875 528.499023438 919.84375 535.96875 c 0
 921.499023438 544.956054688 918.013671875 552.75390625 913.778320312 555.12890625 c 0
 900.111328125 562.793945312 899.62109375 623.911132812 913.803710938 629.387695312 c 0
 917.177734375 630.69140625 919.55859375 635.08203125 917.763671875 639.805664062 c 0
 905.178710938 672.92578125 1109.04394531 660.294921875 1129.4375 666.639648438 c 0
 1140.99023438 670.233398438 1172.00097656 655.473632812 1192.71191406 635.888671875 c 0
 1203.84863281 625.356445312 1206.62402344 618.51953125 1206.09960938 596.665039062 c 0
 1205.16503906 557.750976562 1195.54101562 545.067382812 1177.125 537.2265625 c 0
 1130.90722656 517.548828125 1115.20410156 564.94140625 1034.04882812 559.567382812 c 0
 1016.07421875 558.376953125 1017.47851562 560.845703125 1022.68164062 524.198242188 c 0
 1029.25878906 477.866210938 1029.15039062 458.874023438 1025.3671875 451.505859375 c 0
 1017.68554688 436.547851562 968.377929688 417.944335938 925.723632812 416.19921875 c 0
 889.517578125 414.71875 850.676757812 401.1796875 850.676757812 390.48828125 c 0
 850.676757812 386.432617188 845.0859375 383.705078125 837.65234375 383.705078125 c 0
 822.209960938 383.705078125 832.146484375 371.935546875 842.482421875 371.935546875 c 0
 867.50390625 371.935546875 894.692382812 302.958984375 935.971679688 344.237304688 c 0
 980.86328125 389.127929688 1089.60742188 384.137695312 1116.15625 332.733398438 c 0
 1128.12792969 309.553710938 1135.11132812 254.234375 1128.87695312 254.234375 c 0
 1126.22460938 254.234375 1117.57226562 244.229492188 1109.81933594 232.755859375 c 0
 1087.74902344 200.091796875 1046.77636719 162.147460938 1027.53613281 157.016601562 c 0
 1019.75683594 154.942382812 991.329101562 151.778320312 965.427734375 150.270507812 c 0
 912.469726562 147.188476562 897.666992188 152.63671875 881.734375 179.471679688 c 0
 868.092773438 202.4453125 856.561523438 207.586914062 856.561523438 194.3515625 c 0
 856.561523438 187.733398438 853.677734375 183.61328125 849.108398438 183.61328125 c 0
 841.2890625 183.61328125 836.857421875 171.55078125 782.987304688 136.5078125 c 0
 759.326171875 121.1171875 755.043945312 120.102539062 710.321289062 120.90625 c 0
 663.826171875 121.741210938 658.883789062 123.009765625 653.202148438 135.794921875 c 0
 648.377929688 146.6484375 644.69921875 147.825195312 629.553710938 145.364257812 c 0
 584.673828125 138.0703125 578.075195312 121.416992188 569.41015625 126.930664062 c 0
 564.741210938 129.90234375 557.600585938 128.391601562 554.129882812 125.499023438 c 0
 539.239257812 113.090820312 449.904296875 120.349609375 422.017578125 141.106445312 c 0
 408.643554688 151.060546875 398.233398438 172.431640625 398.53125 206.721679688 c 0
 398.6875 224.713867188 401.646484375 229.516601562 426.84765625 254.717773438 c 0
 482.271484375 310.142578125 505.901367188 324.854492188 532.129882812 324.854492188 c 0
 544.653320312 324.854492188 551.009765625 328.208984375 553.147460938 334.9765625 c 0
 560.729492188 358.98828125 630 367.165039062 640.771484375 350.431640625 c 0
 643.494140625 346.201171875 674.411132812 305.569335938 703.629882812 333.727539062 c 0
 726.91796875 356.168945312 782.998046875 365.4765625 782.998046875 374.92578125 c 0
 782.998046875 382.533203125 746.645507812 391.80859375 742.89453125 395.561523438 c 0
 736.157226562 402.30078125 738.203125 487.639648438 726.502929688 618.849609375 c 0
 725.009765625 635.5859375 725.255859375 631.064453125 725.541015625 635.153320312 c 0
1038.99902344 267.75 m 0
 1038.99902344 274.83203125 1029.61328125 288.150390625 1008.69042969 285.736328125 c 0
 971.567382812 281.454101562 929.22265625 243.795898438 959.827148438 223.8359375 c 0
 976.805664062 212.762695312 998.948242188 226 1009.63769531 226 c 4
 1026.67480469 226 1038.99902344 259.634765625 1038.99902344 267.75 c 0
599.034179688 250.114257812 m 0
 580.06640625 261.06640625 577.211914062 268.358398438 562.966796875 251.36328125 c 0
 535.279296875 218.334960938 512.286132812 226.408203125 512.286132812 212.0703125 c 0
 512.286132812 183.428710938 681.471679688 202.512695312 599.034179688 250.114257812 c 0
762.102539062 264.087890625 m 0
 738.1171875 290.3828125 731.704101562 271.842773438 728.931640625 254.932617188 c 0
 724.922851562 230.474609375 724.28125 183.50390625 746.565429688 209.98046875 c 0
 757.65625 223.157226562 770.034179688 226.419921875 777.03515625 227.232421875 c 0
 801.115234375 230.026367188 776.098632812 248.743164062 762.102539062 264.087890625 c 0
EndSplineSet
EndChar

StartChar: V
Encoding: 86 86 21
Width: 1500
Flags: HW
LayerCount: 2
Back
Fore
SplineSet
628.95703125 -3.0087890625 m 8
 612.959960938 -20.4755859375 598.962890625 -192 598.962890625 -192 c 1
 500.998046875 -186.729492188 l 1
 500.09375 -73.7880859375 l 2
 499.482421875 2.7109375 501.42578125 43.4287109375 507.587890625 55.2158203125 c 0
 510.034179688 59.89453125 513.147460938 71.6796875 513.31640625 81.7294921875 c 0
 513.88671875 115.651367188 548.078125 173.93359375 570.390625 174.64453125 c 0
 585.921875 175.138671875 609.421875 148.178710938 609.421875 126.774414062 c 0
 609.421875 118.663085938 612.796875 106.512695312 618.271484375 99.5048828125 c 0
 623.658203125 92.6103515625 628.396484375 94.1240234375 655.959960938 112.19140625 c 0
 680.198242188 128.078125 698.0390625 138.541015625 701.282226562 138.541015625 c 0
 708.70703125 138.541015625 741.94921875 193.35546875 753.256835938 227.639648438 c 0
 757.4453125 240.338867188 764.9453125 256.770507812 769.911132812 261.819335938 c 0
 782.588867188 274.708007812 789.4921875 339.125 783.020507812 376.415039062 c 0
 769.736328125 452.969726562 841.877929688 476.400390625 875.297851562 411.4375 c 0
 881.8203125 398.7578125 887.1640625 382.135742188 886.209960938 373.07421875 c 0
 885.870117188 369.844726562 885.900390625 361.5703125 886.859375 357.014648438 c 0
 892.401367188 330.69140625 863.22265625 197.842773438 849.305664062 193.203125 c 0
 846.920898438 192.408203125 844.33984375 187.93359375 844.33984375 182.919921875 c 0
 844.33984375 178.296875 842.14453125 174.682617188 840.15625 174.682617188 c 0
 836.436523438 174.682617188 829.2734375 162.033203125 825.975585938 153.388671875 c 0
 808.823242188 108.423828125 708.810546875 12.046875 684.393554688 12.046875 c 0
 678.13671875 12.046875 636.94921875 5.716796875 628.95703125 -3.0087890625 c 8
1102.10449219 -211.08984375 m 1
 1106.41015625 -202.669921875 882.962890625 -213 882.962890625 -203.0625 c 0
 882.962890625 -198 824.962890625 -162 824.962890625 -162 c 25
 768.962890625 -190 l 1
 626.962890625 -190 l 5
 626.962890625 -190 630.765625 -104.146484375 648.80859375 -102.944335938 c 0
 658.853515625 -102.275390625 751.705078125 -69.55859375 763.241210938 -35.345703125 c 0
 765.61328125 -28.310546875 770.451171875 -24.2216796875 773.318359375 -24.8740234375 c 0
 781.55078125 -26.7451171875 820.245117188 7.228515625 820.245117188 14.66796875 c 0
 820.245117188 21.232421875 850.36328125 55.634765625 850.36328125 60.998046875 c 0
 850.36328125 72.322265625 984.671875 231.216796875 944.98828125 380.025390625 c 0
 942.40234375 389.72265625 938.092773438 408.696289062 936.735351562 416.479492188 c 0
 927.631835938 468.676757812 885.629882812 451.51171875 865.452148438 476.13671875 c 0
 848.03515625 497.392578125 797.95703125 507.5234375 694.838867188 506.87890625 c 0
 652.189453125 506.612304688 643.350585938 504.770507812 617.038085938 490.849609375 c 0
 511.978515625 435.266601562 464.888671875 365.165039062 460.913085938 356.327148438 c 0
 457.239257812 348.161132812 412.545898438 278.334960938 393.399414062 339.803710938 c 0
 386.303710938 362.5859375 398.598632812 352.4140625 398.598632812 379.717773438 c 0
 398.598632812 422.450195312 428.715820312 433.649414062 428.715820312 441.018554688 c 0
 428.715820312 447.896484375 454.959960938 480.677734375 472.3203125 498.209960938 c 0
 487.291992188 513.330078125 489.10546875 519.830078125 487 539.651367188 c 0
 478.389648438 620.727539062 441.224609375 576.244140625 430.364257812 635.55859375 c 0
 427.897460938 649.03515625 429.530273438 652.891601562 446.41015625 667.5078125 c 0
 473.36328125 690.844726562 480.518554688 690.8125 502.7265625 671.776367188 c 0
 517.86328125 658.801757812 530.806640625 650.541015625 534.323242188 650.541015625 c 0
 538.77734375 650.541015625 553.03125 637.2890625 564.622070312 623.41796875 c 0
 589.775390625 593.317382812 615.4453125 580.517578125 615.4453125 592.725585938 c 0
 615.4453125 599.596679688 623.577148438 602.352539062 636.265625 602.352539062 c 0
 648.8515625 602.352539062 651.70703125 605.063476562 655.080078125 617.711914062 c 0
 660.31640625 637.348632812 663.03125 666.8046875 663.03125 694.541015625 c 0
 663.03125 723.42578125 665.975585938 738.0859375 676.651367188 756.297851562 c 0
 690.333984375 779.638671875 700.979492188 781.967773438 731.09765625 767.384765625 c 2
 750.974609375 757.759765625 l 1
 745.854492188 701.440429688 l 2
 743.0625 670.719726562 742.377929688 638.137695312 745.717773438 623.942382812 c 0
 747.62109375 615.85546875 750.673828125 614.400390625 769.713867188 614.400390625 c 0
 792.236328125 614.400390625 807.913085938 616.436523438 814.049804688 621.01953125 c 0
 822.655273438 627.446289062 844.846679688 663.033203125 841.180664062 669.08984375 c 0
 837.543945312 675.098632812 868.43359375 695.158203125 868.43359375 711.998046875 c 0
 868.43359375 726.682617188 891.92578125 740.89453125 925.032226562 740.89453125 c 0
 937.1015625 740.89453125 939.875 739.005859375 942.279296875 726.525390625 c 0
 948.21484375 695.717773438 940.091796875 661.669921875 916.873046875 635.56640625 c 0
 890.0078125 605.364257812 884.8515625 566.211914062 907.91015625 566.211914062 c 0
 929.69140625 566.211914062 982.30078125 531.275390625 992.149414062 513.446289062 c 0
 994.9453125 508.385742188 1002.50390625 499.560546875 1006.5 496.580078125 c 0
 1020.33496094 486.263671875 1037.15917969 435.500976562 1043.44335938 365.552734375 c 0
 1048.578125 308.404296875 1045.58886719 250.561523438 1017.765625 173.876953125 c 0
 1009.09667969 149.985351562 1001.01171875 132.517578125 994.177734375 132.517578125 c 0
 991.486328125 132.517578125 988.904296875 129.806640625 988.904296875 126.4140625 c 0
 988.904296875 116.048828125 964.810546875 98.412109375 964.810546875 82.6318359375 c 0
 964.810546875 68.1875 944.623046875 54.7626953125 920.252929688 3.3154296875 c 0
 907.83984375 -22.8896484375 897.974609375 -36.1416015625 892.311523438 -36.1416015625 c 0
 884.03515625 -36.1416015625 873.328125 -64.4521484375 877.119140625 -76.23046875 c 0
 883.478515625 -95.984375 938.077148438 -92.421875 946.901367188 -99.5380859375 c 0
 955 -106.069335938 1014.203125 -113.732421875 1038.50488281 -114.52734375 c 0
 1070.22167969 -115.564453125 1091.3046875 -126.008789062 1091.3046875 -144.59375 c 0
 1091.3046875 -156.009765625 1083.34863281 -185.5390625 1101.61328125 -188.989257812 c 0
 1117.50488281 -191.991210938 1102.10449219 -211.08984375 1102.10449219 -211.08984375 c 1
EndSplineSet
EndChar

StartChar: W
Encoding: 87 87 22
Width: 1500
Flags: HW
LayerCount: 2
Back
Fore
SplineSet
1193.96875 186 m 13
 1213.96875 304 l 25
 1142.96875 257 l 25
 1193.96875 186 l 13
896.774414062 23.5947265625 m 0
 891.047851562 32.8759765625 910.626953125 42.0205078125 910.626953125 30.4599609375 c 0
 910.626953125 22.310546875 900.895507812 16.9150390625 896.774414062 23.5947265625 c 0
398.227539062 -171.16796875 m 0
 404.45703125 -136.163085938 441.817382812 -107.548828125 449.09375 -107.548828125 c 0
 457.549804688 -107.548828125 498.73828125 -68.90234375 498.73828125 -63.599609375 c 0
 498.73828125 -60.6806640625 511.2265625 -37.8564453125 514.228515625 -4.0810546875 c 0
 517.666015625 34.6015625 533.0625 53.4658203125 533.0625 89.4462890625 c 0
 533.0625 117.283203125 542.279296875 122.435546875 546.32421875 214.39453125 c 0
 551.166992188 324.479492188 563.307617188 307.626953125 559.948242188 365.577148438 c 0
 556.221679688 429.868164062 569.33203125 440.7421875 555.896484375 467.229492188 c 0
 548.982421875 480.860351562 544.50390625 499.4140625 544.50390625 513.748046875 c 0
 544.50390625 523.44140625 542.456054688 533.166015625 539.995117188 533.166015625 c 0
 537.462890625 533.166015625 529.580078125 543.463867188 524.208984375 553.049804688 c 0
 502.971679688 590.9453125 444.446289062 636.48046875 430.463867188 627.875 c 0
 426.912109375 625.689453125 419.79296875 626.5703125 414.182617188 629.567382812 c 0
 396.7890625 638.859375 364.302734375 628.129882812 337.028320312 600.85546875 c 0
 310.916992188 574.744140625 287.073242188 570.841796875 287.073242188 553.575195312 c 0
 287.073242188 532.022460938 249.924804688 519.125976562 230.33984375 532.8359375 c 0
 211.546875 545.990234375 211.565429688 581.791992188 226.971679688 605.443359375 c 0
 239.88671875 625.270507812 226.864257812 630.41796875 232.11328125 630.41796875 c 0
 240.319335938 630.41796875 255.794921875 643.002929688 308.010742188 696.875976562 c 0
 348.944335938 739.110351562 353.663085938 741.900390625 386.208984375 740.720703125 c 0
 422.653320312 739.400390625 434.245117188 742.693359375 443.8046875 752.252929688 c 0
 454.966796875 763.415039062 445.185546875 742.318359375 471.291015625 734.0859375 c 0
 494.162109375 726.873046875 542.712890625 693.000976562 557.850585938 669.245117188 c 0
 573.985351562 643.922851562 602.274414062 647.611328125 597.692382812 630.655273438 c 0
 596.16015625 624.983398438 597.473632812 618.543945312 600.080078125 616.98046875 c 0
 608.725585938 611.79296875 627.359375 538.405273438 636.431640625 517.571289062 c 0
 649.279296875 488.071289062 647.018554688 431.905273438 659.178710938 424.124023438 c 0
 663.58203125 421.305664062 664.702148438 413.032226562 661.124023438 390.283203125 c 0
 658.5546875 373.950195312 656.412109375 352.393554688 649.935546875 273.448242188 c 2
 645.759765625 222.534179688 l 1
 659.489257812 226.620117188 l 2
 682.944335938 233.600585938 751.51171875 237.634765625 757.32421875 229.498046875 c 0
 760.8984375 224.493164062 812.677734375 189.834960938 813.184570312 178.676757812 c 0
 813.502929688 171.665039062 833.86328125 159.772460938 839.459960938 141.693359375 c 0
 841.432617188 135.3203125 849.623046875 115.557617188 857.166015625 98.96484375 c 0
 870.331054688 70.001953125 871.390625 62.35546875 868.899414062 28.30859375 c 0
 866.033203125 -10.869140625 866.912109375 -28.1572265625 871.827148438 -31.2001953125 c 0
 874.299804688 -32.73046875 875.57421875 -37.7568359375 873.2421875 -43.9130859375 c 0
 866.748046875 -61.0595703125 897.861328125 -44.0048828125 890.797851562 -21.7333984375 c 0
 888.89453125 -15.7314453125 889.823242188 -10.296875 891.9375 -10.296875 c 0
 898.658203125 -10.296875 927.788085938 44.62109375 927.788085938 53.388671875 c 0
 927.788085938 67.880859375 1007.3828125 204.392578125 982.921875 212.546875 c 0
 976.831054688 214.577148438 978.130859375 224.25 985.876953125 224.25 c 0
 992.536132812 224.25 997.997070312 231.401367188 1000.49511719 242.848632812 c 0
 1001.74121094 248.563476562 1005.40820312 260.915039062 1009.63867188 271.354492188 c 0
 1023.69433594 306.044921875 1029.55664062 356.969726562 1027.09277344 493.135742188 c 0
 1025.85058594 561.76953125 1023.86132812 576.455078125 1010.046875 588.51171875 c 0
 982.537109375 612.520507812 964.362304688 577.036132812 917.54296875 599.35546875 c 0
 908.337890625 603.743164062 898.923828125 609.9375 898.479492188 613.048828125 c 0
 898.296875 614.323242188 897.016601562 633.278320312 896.159179688 647.638671875 c 0
 893.703125 688.768554688 894.66015625 693.131835938 903.19140625 695.69140625 c 0
 911.26171875 698.112304688 923.211914062 705.344726562 931.375 712.130859375 c 0
 986.255859375 757.752929688 1070.80566406 705.913085938 1070.80566406 685.270507812 c 0
 1070.80566406 680.759765625 1074.84375 676.18359375 1079.36425781 676.18359375 c 0
 1084.02441406 676.18359375 1087.96777344 671.3203125 1087.96777344 664.967773438 c 0
 1087.96777344 649.568359375 1111.13769531 640.861328125 1106.15136719 622.413085938 c 0
 1102.75390625 609.83984375 1116.5703125 617.102539062 1116.5703125 582.361328125 c 0
 1116.5703125 568.0625 1118.91113281 555.172851562 1120.95898438 553.905273438 c 0
 1127.89355469 549.612304688 1126.28808594 419.325195312 1118.19335938 350.0703125 c 0
 1115.58984375 327.794921875 1116.26367188 321.501953125 1122.03222656 321.501953125 c 0
 1128.05566406 321.501953125 1137.03320312 328.366210938 1145.33398438 339.725585938 c 0
 1148.73828125 344.384765625 1158.37597656 356.662109375 1161.87792969 360.764648438 c 0
 1169.13769531 369.26953125 1173.77734375 378.9453125 1173.77734375 385.594726562 c 0
 1173.77734375 408.456054688 1228.625 440.5625 1243.92480469 425.262695312 c 0
 1247.54296875 421.64453125 1255.296875 418.752929688 1258.84570312 418.752929688 c 0
 1270.38671875 418.752929688 1295.39453125 388.176757812 1278.52441406 357.034179688 c 0
 1269.18847656 339.799804688 1287.10839844 349.375976562 1275.87402344 169.600585938 c 1
 1263.01953125 156.74609375 1263.01953125 121.278320312 1275.00195312 121.278320312 c 0
 1281.51855469 121.278320312 1262.49707031 110.787109375 1267.7421875 89.802734375 c 0
 1270.22753906 79.8603515625 1267.02441406 73.23828125 1251.91992188 60.3447265625 c 0
 1230.41210938 41.984375 1217.94726562 39.2265625 1194.73632812 49.0576171875 c 0
 1178.984375 55.728515625 1174.77832031 61.2109375 1169.49707031 90.787109375 c 0
 1165.48242188 113.26953125 1162.1875 121.278320312 1156.44042969 121.278320312 c 0
 1150.49121094 121.278320312 1144.36035156 129.859375 1141.21582031 138.557617188 c 0
 1132.77734375 161.89453125 1098.77734375 195.646484375 1086.42480469 195.646484375 c 0
 1071.16796875 195.646484375 1073.84960938 144.161132812 1062.84863281 144.161132812 c 0
 1053.73730469 144.161132812 1068.20703125 108.853515625 1056.56738281 56.9052734375 c 0
 1048.94433594 22.8828125 1048.12304688 -23.62890625 1056.359375 -33.0703125 c 0
 1060.55664062 -37.8818359375 1061.52148438 -51.3154296875 1062.796875 -60.7470703125 c 0
 1072.96875 -136 1123.5625 -109.504882812 1099.34863281 -180.16015625 c 0
 1054.02246094 -312.416992188 984.6640625 -90.3603515625 978.245117188 -86.72265625 c 0
 971.118164062 -82.6845703125 896.96875 -266 771.03125 -174.806640625 c 0
 740.084960938 -152.3984375 742.15234375 -139.583984375 742.15234375 -139.583984375 c 1
 740.322265625 -129.932617188 742.397460938 -117.786132812 746.431640625 -111.591796875 c 0
 756.094726562 -96.751953125 766.986328125 -28.603515625 764.365234375 0.6015625 c 0
 763.720703125 7.7841796875 762.778320312 29.7470703125 762.44921875 48.19921875 c 0
 761.919921875 77.80078125 760.448242188 80.9423828125 745.690429688 95.54296875 c 0
 720.127929688 120.833984375 703.002929688 132.719726562 696.83203125 132.719726562 c 0
 687.749023438 132.719726562 648.620117188 106.9765625 642.04296875 100.399414062 c 0
 618.54296875 76.8984375 591.612304688 -120.899414062 582.12109375 -142.473632812 c 0
 567.114257812 -176.584960938 383.93359375 -251.479492188 398.227539062 -171.16796875 c 0
EndSplineSet
EndChar

StartChar: X
Encoding: 88 88 23
Width: 1500
Flags: HW
LayerCount: 2
Back
Fore
SplineSet
901.8984375 178.826171875 m 0
 898.234375 187.0703125 851.767578125 324 851.767578125 324 c 17
 795.909179688 332.567382812 834.595703125 355.25 765.767578125 294 c 0
 742.975585938 273.717773438 795.001953125 256.513671875 807.767578125 228 c 0
 828.7421875 181.15234375 810.43359375 57.8037109375 811.767578125 58 c 1
 861.922851562 11.6328125 908.26171875 -19.669921875 947.767578125 -24 c 1
 1004.62695312 -27.0546875 1056.27734375 -19.630859375 1117.76757812 -32 c 1
 1147.76757812 14 1115.76757812 58 1115.76757812 58 c 1
 1115.76757812 58 1093.76757812 34 1024.33300781 54.1650390625 c 0
 982.50390625 66.3134765625 925.643554688 125.400390625 901.8984375 178.826171875 c 0
569.723632812 367.973632812 m 1
 494.037109375 381.111328125 420.724609375 367.252929688 400.541015625 347.069335938 c 0
 338.970703125 285.499023438 368.717773438 238.37109375 489.584960938 232.41015625 c 0
 781.767578125 218 603.115234375 66.5830078125 603.115234375 66.5830078125 c 1
 547.767578125 14 l 1
 533.767578125 -50 513.767578125 -66 587.767578125 -70 c 1
 681.767578125 -28 l 17
 743.767578125 10 767.767578125 92.580078125 767.767578125 144 c 0
 767.767578125 264 561.995117188 365.176757812 569.723632812 367.973632812 c 1
689.932617188 508.98828125 m 0
 872.940429688 636.322265625 889.64453125 627.556640625 807.067382812 445.017578125 c 0
 764.771484375 351.521484375 743.180664062 340.8359375 672.124023438 378.234375 c 0
 591.2109375 420.8203125 659.767578125 488 689.932617188 508.98828125 c 0
EndSplineSet
EndChar

StartChar: Y
Encoding: 89 89 24
Width: 1500
Flags: HW
LayerCount: 2
Back
Fore
SplineSet
711.41015625 -83.75390625 m 0
 700.278320312 -88.0361328125 691.948242188 -79.560546875 708.122070312 -80.412109375 c 0
 714.490234375 -80.7470703125 715.805664062 -82.0625 711.41015625 -83.75390625 c 0
675.453125 -88.9609375 m 0
 670.193359375 -83.7021484375 690.522460938 -61.2490234375 683.267578125 -80.4013671875 c 0
 680.34765625 -88.1103515625 677.379882812 -90.888671875 675.453125 -88.9609375 c 0
989.541015625 157.493164062 m 0
 989.541015625 161.765625 992.219726562 164.317382812 995.940429688 164.317382812 c 0
 1003.97851562 164.317382812 995.802734375 152.41015625 992.216796875 152.41015625 c 0
 990.612304688 152.41015625 989.541015625 154.791992188 989.541015625 157.493164062 c 0
534.551757812 278.364257812 m 1024
633.34765625 -210.774414062 m 0
 416.9453125 -191.624023438 408.45703125 -108.690429688 414.737304688 -104.833007812 c 0
 419.711914062 -101.776367188 407.290039062 -54.0791015625 394.9921875 -44.8251953125 c 0
 389.827148438 -40.939453125 378.416015625 -39.1171875 362.534179688 -42.8544921875 c 0
 355.559570312 -44.4951171875 355.002929688 -43.7568359375 356.118164062 -34.1435546875 c 0
 358.662109375 -12.203125 356.53515625 -1.6943359375 352.701171875 0.6064453125 c 0
 348.086914062 3.375 320.96484375 6.28515625 269.477539062 8.287109375 c 0
 239.40234375 9.45703125 237.047851562 10.181640625 225.727539062 23.232421875 c 0
 176.46875 80.017578125 231.06640625 54.7451171875 210.502929688 76.3369140625 c 0
 200.5546875 86.7822265625 201.895507812 92.875 212.034179688 92.875 c 0
 221.541992188 92.875 229.846679688 98.2333984375 234.3359375 106.39453125 c 0
 239.18359375 115.209960938 246.249023438 116.689453125 278.603515625 116.689453125 c 0
 320.072265625 116.689453125 340.611328125 119.120117188 340.611328125 122.372070312 c 0
 340.611328125 125.794921875 363.374023438 91.6640625 375.819335938 91.841796875 c 0
 383.616210938 91.953125 400.286132812 105.715820312 400.286132812 114.59375 c 0
 400.286132812 123.149414062 384.807617188 163.353515625 391.959960938 158.932617188 c 0
 398.852539062 154.670898438 389.4296875 188.955078125 374.95703125 202.424804688 c 0
 362.862304688 213.6796875 365.616210938 228.932617188 380.1484375 216.874023438 c 0
 387.048828125 211.147460938 387.984375 214.326171875 386.422851562 239.84375 c 0
 384.813476562 266.122070312 383.4765625 268.381835938 369.206054688 266.924804688 c 0
 361.892578125 266.178710938 348.053710938 265.395507812 341.0078125 265.272460938 c 0
 326.025390625 265.009765625 322.5 262.502929688 325.489257812 254.783203125 c 0
 327.20703125 250.344726562 326.83203125 247.473632812 323.115234375 249.456054688 c 0
 318.604492188 251.861328125 259.064453125 279.091796875 253.27734375 328.860351562 c 0
 251.157226562 347.088867188 257.47265625 357.8125 281.8828125 363.766601562 c 0
 308.17578125 370.1796875 299.189453125 378.642578125 318.4921875 378.642578125 c 0
 327.215820312 378.642578125 337.989257812 380.37109375 345.719726562 383.327148438 c 0
 351.922851562 385.69921875 352.291015625 387.379882812 344.728515625 392.702148438 c 0
 339.525390625 396.36328125 340.016601562 396.935546875 345.981445312 395.036132812 c 0
 370.974609375 387.07421875 412.248046875 386.725585938 428.830078125 395.48046875 c 0
 448.327148438 405.776367188 461.181640625 381.946289062 493.274414062 386.291992188 c 0
 553.1015625 394.39453125 497.494140625 298 506.561523438 226.373046875 c 24
 507.494140625 219 510.169921875 193.994140625 516.501953125 181.93359375 c 0
 518.874023438 177.415039062 518.204101562 175.896484375 511.036132812 177.090820312 c 0
 500.057617188 178.920898438 498.658203125 175.331054688 499.717773438 160.674804688 c 0
 501.154296875 140.80078125 499.03125 127.96875 494.609375 125.213867188 c 0
 486.815429688 120.358398438 487.662109375 85.1357421875 495.440429688 77.3583984375 c 0
 500.534179688 72.263671875 504.46875 53.58203125 509.131835938 -45.0478515625 c 0
 511.955078125 -104.780273438 510.357421875 -94.6591796875 527.294921875 -94.6591796875 c 0
 547.732421875 -94.6591796875 527.40234375 -109.39453125 558.907226562 -107.940429688 c 0
 593.998046875 -106.3203125 612.932617188 -122.561523438 628.091796875 -106.956054688 c 0
 636.514648438 -98.28515625 649.596679688 -95.849609375 684.00390625 -95.849609375 c 0
 719.848632812 -95.849609375 734.322265625 -93.2060546875 749.069335938 -82.828125 c 0
 770.227539062 -67.939453125 799.029296875 -63.1943359375 799.029296875 -55.453125 c 0
 799.029296875 -52.5087890625 803.197265625 -50.0078125 807.630859375 -50.0078125 c 0
 813.14453125 -50.0078125 816.889648438 -46.138671875 816.889648438 -40.099609375 c 0
 816.889648438 -35.421875 819.13671875 -32.92578125 821.086914062 -34.1171875 c 0
 825.15234375 -36.6015625 842.192382812 -30.1943359375 866.643554688 -16.94140625 c 0
 876.72265625 -11.4775390625 902.758789062 2.154296875 910.809570312 6.1796875 c 0
 956.977539062 29.2646484375 948.6015625 45.248046875 959.434570312 45.248046875 c 0
 974.938476562 45.248046875 1005.8203125 77.9921875 1015.45410156 105.380859375 c 0
 1022.23046875 124.6484375 1034.78710938 133.100585938 1069.90722656 138.40234375 c 0
 1080.03417969 139.930664062 1090.99804688 142.130859375 1093.06933594 142.79296875 c 0
 1099.87304688 144.969726562 1135.45019531 142.241210938 1129.44042969 123.215820312 c 0
 1127.56640625 117.28515625 1128.8359375 110.09375 1131.46972656 108.463867188 c 0
 1143.30859375 101.133789062 1135.47265625 -23.529296875 1096.97851562 -11.5654296875 c 0
 1081.49121094 -6.751953125 1077.84960938 -26.1943359375 1060.99023438 -26.1943359375 c 0
 1035.61816406 -26.1943359375 1016.6875 -70.224609375 1005.16015625 -63.30859375 c 0
 997.528320312 -58.73046875 993.705078125 -80.71484375 929.588867188 -111.6875 c 0
 896.37109375 -127.733398438 840.46484375 -160.14453125 829.737304688 -165.698242188 c 4
 794.955078125 -183.703125 786.889648438 -224.361328125 633.34765625 -210.774414062 c 0
739.495117188 -204.798828125 m 1026
393.22265625 411.858398438 m 1024
1147.47949219 700.416015625 m 0
 1152.94238281 709.522460938 1172.58984375 694.176757812 1155.27148438 694.176757812 c 0
 1147.90234375 694.176757812 1145.40234375 696.955078125 1147.47949219 700.416015625 c 0
589.032226562 322.099609375 m 0
 581.424804688 293.182617188 579.131835938 437.88671875 553.885742188 455.866210938 c 0
 542.060546875 464.288085938 562.25390625 481.297851562 536.071289062 483.677734375 c 0
 526.658203125 484.533203125 519.215820312 482.774414062 519.215820312 478.967773438 c 0
 519.215820312 465.35546875 424.040039062 479.8515625 409.655273438 479.8515625 c 0
 366.743164062 479.8515625 366.487304688 567.33203125 370.291992188 577.431640625 c 0
 378.4375 599.053710938 441.494140625 618 495.541015625 601.110351562 c 0
 545.28125 585.56640625 568.185546875 611.147460938 612.283203125 609.298828125 c 0
 667.517578125 606.984375 684.408203125 564.637695312 686.265625 563.811523438 c 0
 689.852539062 562.216796875 672.952148438 439.828125 688.2421875 424.537109375 c 0
 690.081054688 422.698242188 690.447265625 420.31640625 686.944335938 420.31640625 c 0
 681.838867188 420.31640625 680.938476562 415.256835938 683.383789062 407.397460938 c 0
 690.17578125 385.569335938 686.629882812 335.608398438 696.767578125 323.522460938 c 0
 711.442382812 306.028320312 697.970703125 208.5390625 714.625 214.70703125 c 0
 718.03125 215.96875 721.633789062 213.43359375 721.633789062 208.670898438 c 0
 721.633789062 203.908203125 718.03125 200.038085938 713.994140625 200.038085938 c 0
 698.239257812 200.038085938 706.327148438 141.126953125 734.916992188 140.627929688 c 0
 757.950195312 140.2265625 822.243164062 177.250976562 826.680664062 191.393554688 c 0
 827.8984375 195.275390625 833.361328125 200.038085938 838.166015625 200.038085938 c 0
 851.321289062 200.038085938 857.361328125 235.758789062 863.250976562 235.758789062 c 0
 870.040039062 235.758789062 889.421875 283.208984375 908.96875 309.98046875 c 0
 928.233398438 336.365234375 913.84765625 336.967773438 915.586914062 336.967773438 c 0
 931.791992188 336.967773438 955.221679688 389.303710938 950.451171875 396.979492188 c 0
 948.372070312 400.323242188 953.224609375 409.600585938 963.1484375 419.524414062 c 0
 973.926757812 430.302734375 975.390625 436.986328125 976.298828125 472.206054688 c 0
 977.553710938 520.930664062 980.826171875 551.987304688 985.954101562 561.584960938 c 0
 991.26953125 571.53515625 990.709960938 597.287109375 982.788085938 602.231445312 c 0
 967.719726562 611.634765625 996.684570312 685.438476562 1033.56054688 707.953125 c 0
 1056.81835938 722.153320312 1041.13183594 690.251953125 1071.47851562 696.221679688 c 0
 1084.47460938 698.778320312 1099.68066406 696.484375 1113.08105469 690.622070312 c 0
 1133.0390625 681.889648438 1159.80957031 679.84765625 1207.4296875 681.114257812 c 0
 1246.73046875 682.159179688 1250.22265625 684.127929688 1247.04589844 692.864257812 c 0
 1244.9453125 698.641601562 1246.13574219 700.427734375 1250.00488281 698.009765625 c 0
 1263.78320312 689.3984375 1242.89550781 670.36328125 1261.6875 670.36328125 c 0
 1270.24609375 670.36328125 1275.30761719 674.3125 1275.30761719 681.974609375 c 0
 1275.30761719 694.696289062 1289.26171875 685.841796875 1294.14941406 667.703125 c 0
 1299.68945312 647.14453125 1294.06152344 612.877929688 1282.68164062 603.685546875 c 0
 1278.87890625 600.615234375 1275.30761719 594.4140625 1275.30761719 590.598632812 c 0
 1275.30761719 581.252929688 1253.875 572.100585938 1239.61425781 574.061523438 c 0
 1231.84765625 575.129882812 1227.6796875 572.114257812 1227.6796875 565.9140625 c 0
 1227.6796875 561.116210938 1225.18359375 557.247070312 1221.20019531 557.247070312 c 0
 1218.15332031 557.247070312 1215.7734375 559.508789062 1215.7734375 561.674804688 c 0
 1215.7734375 565.94140625 1206.54394531 572.965820312 1195.52050781 578.23046875 c 0
 1180.24609375 585.526367188 1167.54980469 586.567382812 1119.02929688 580.501953125 c 0
 1100.27539062 578.158203125 1099.47070312 577.665039062 1091.89257812 562.5078125 c 0
 1078.84277344 536.41015625 1072.88964844 521.1953125 1072.88964844 513.609375 c 0
 1072.88964844 499.946289062 1053.57421875 497.108398438 1066.53808594 469.493164062 c 0
 1078.77636719 443.420898438 1052.23730469 460.750976562 1055.79492188 418.561523438 c 0
 1057.12695312 402.75390625 1054.7421875 389.28515625 1047.38769531 382.409179688 c 0
 1040.44335938 375.91796875 1041.3359375 366.735351562 1053.86132812 366.735351562 c 0
 1063.81933594 366.735351562 1063.36425781 360.930664062 1048.55761719 349.826171875 c 0
 1041.15039062 344.270507812 1041.93164062 343.489257812 1053.08886719 343.314453125 c 0
 1095.72070312 342.6484375 1060.73339844 354.424804688 1142.60742188 347.525390625 c 0
 1181.83789062 344.219726562 1192.60839844 341.28515625 1203.49316406 331.30859375 c 0
 1224.10839844 312.41015625 1226.87890625 284.9765625 1208.203125 267.150390625 c 0
 1205.55957031 264.626953125 1196.21777344 255.107421875 1192.84765625 251.456054688 c 0
 1181.75292969 239.4375 1174.09765625 237.651367188 1155.30761719 240.112304688 c 0
 1140.7578125 242.017578125 1124.734375 245.788085938 1120.19921875 247.991210938 c 0
 1104.83007812 255.455078125 1029.70214844 245.879882812 1020.65527344 245.879882812 c 0
 1001.97167969 245.879882812 1029.82910156 205.037109375 1014.05761719 214.500976562 c 0
 1001.88964844 221.801757812 1020.22851562 196.436523438 1008.23730469 200.717773438 c 0
 989.797851562 207.301757812 1012.46191406 243.705078125 986.293945312 214.920898438 c 0
 969.245117188 196.16796875 959.7734375 180.87890625 959.7734375 173.288085938 c 0
 959.7734375 169.080078125 956.86328125 164.317382812 952.836914062 164.317382812 c 0
 949.65234375 164.317382812 947.677734375 161.340820312 948.513671875 158.858398438 c 0
 951.487304688 150.029296875 924.291992188 118.905273438 916.477539062 121.309570312 c 0
 909.35546875 123.501953125 902.286132812 92.875 889.750976562 92.875 c 0
 878.697265625 92.875 872.254882812 69.0615234375 853.326171875 69.0615234375 c 0
 836.954101562 69.0615234375 833.608398438 51.2470703125 787.483398438 34.083984375 c 0
 777.596679688 30.4052734375 755.762695312 21.51953125 746.380859375 17.349609375 c 0
 696.034179688 -5.0263671875 648.868164062 -2.4306640625 614.116210938 34.564453125 c 0
 609.32421875 39.6650390625 609.125 40.7822265625 609.44140625 65.9443359375 c 0
 610.5 150.326171875 613.297851562 182.177734375 618.796875 182.177734375 c 0
 624.259765625 182.177734375 615.662109375 213.62890625 603.860351562 222.665039062 c 0
 593.270507812 230.772460938 594.229492188 250.061523438 618.544921875 240.845703125 c 0
 624.684570312 238.51953125 599.310546875 249.388671875 607.4921875 272.004882812 c 0
 611.12890625 282.05859375 609.479492188 293.5078125 600.301757812 313.9609375 c 0
 593.985351562 328.038085938 591.237304688 330.48046875 589.032226562 322.099609375 c 0
EndSplineSet
EndChar

StartChar: Z
Encoding: 90 90 25
Width: 1500
Flags: HW
LayerCount: 2
Back
Fore
SplineSet
419.487304688 140 m 1
 419.487304688 234 l 1
 419.487304688 234 447.487304688 264 447.487304688 270 c 16
 447.487304688 276 565.870117188 309.853515625 597.487304688 260 c 0
 625.385742188 216.010742188 607.083007812 120.37890625 613.487304688 116 c 1
 639.487304688 76 710.681640625 89.330078125 711.487304688 124 c 0
 716.959960938 359.651367188 511.345703125 440.307617188 373.487304688 328 c 1
 345.592773438 240.885742188 343.413085938 161.120117188 371.487304688 90 c 1
 466.31640625 -0.8603515625 476.48828125 107.669921875 419.487304688 140 c 1
523.487304688 172 m 2
 465.487304688 180 l 1
 463.487304688 236 l 1
 563.487304688 235 l 1
 575.487304688 28 l 21
 575.487304688 31 651.52734375 31.2998046875 783.487304688 28 c 4
 985.251953125 22.9541015625 1048.88183594 23.8359375 1049.48730469 168 c 0
 1051.11328125 555.33984375 655.487304688 322 635.487304688 440 c 0
 616.731445312 550.661132812 616.099609375 578.0546875 613.487304688 578 c 2
 565.487304688 577 l 1
 565.487304688 431 l 25
 463.487304688 437 l 1
 467.8203125 511.799804688 l 17
 467.8203125 565.438476562 483.180664062 624.21875 501.954101562 642.422851562 c 0
 566.970703125 705.467773438 657 672.713867188 686.752929688 575.190429688 c 0
 706.20703125 511.424804688 760.391601562 477.666992188 843.287109375 477.666992188 c 0
 1106.6015625 477.666992188 1240.5546875 190.194335938 1077.34472656 -5.45703125 c 0
 977.881835938 -124.689453125 513.487304688 -21.958984375 521.487304688 -72 c 1
 521.487304688 -72 523.487304688 171 523.487304688 172 c 2
829.736328125 228.98046875 m 0
 847.766601562 258.23828125 886.064453125 269.3203125 913.9921875 253.362304688 c 0
 946.57421875 234.744140625 945.6875 204.599609375 911.553710938 170.466796875 c 0
 850.114257812 109.026367188 784.659179688 155.837890625 829.736328125 228.98046875 c 0
EndSplineSet
EndChar

StartChar: a
Encoding: 97 97 26
Width: 1500
VWidth: 1000
Flags: HW
LayerCount: 2
Fore
SplineSet
1135.89941406 325.049804688 m 5
 1146.30175781 296.852539062 l 5
 1162.546875 211.422851562 l 5
 1172.19628906 107.646484375 l 5
 1131.58105469 37.6142578125 l 5
 1108.140625 29.41015625 l 5
 1085.31640625 55.626953125 l 5
 1061.12792969 116.6015625 l 5
 1062.57519531 196.227539062 l 5
 1022.59863281 313.168945312 l 5
 1005.76074219 297.666015625 l 5
 966.473632812 249.08984375 l 5
 942.10546875 194.416015625 l 5
 980.462890625 86.126953125 979.295898438 90.759765625 990.032226562 4.1669921875 c 5
 1004.71582031 -74.21484375 l 5
 1046.99707031 -60.7158203125 l 5
 1124.34082031 -131.543945312 l 29
 1051.27832031 -176.900390625 l 5
 972.969726562 -169.174804688 l 5
 911.983398438 -183.190429688 911.983398438 -183.190429688 854.711914062 -197.668945312 c 5
 826.490234375 -188.672851562 l 5
 802.791015625 -144.19140625 l 5
 825.615234375 -108.767578125 l 5
 846.3828125 -94.580078125 867.150390625 -80.3916015625 887.918945312 -66.2041015625 c 5
 891.928710938 -19.939453125 l 5
 884.31640625 80.41015625 l 5
 858.379882812 169.947265625 894.77734375 172.997070312 740.131835938 68.3291015625 c 5
 719.072265625 59.1220703125 l 5
 705.270507812 54.0849609375 l 5
 685.46875 44.685546875 l 6
 644.385742188 24.33984375 658.025390625 30.6494140625 625.774414062 17.0732421875 c 5
 565.454101562 72 l 5
 605 86 l 5
 639.859375 106.827148438 649.060546875 136.631835938 685.385742188 155.993164062 c 5
 698.20703125 162.390625 l 5
 913.4140625 271.981445312 745.138671875 247.853515625 755.454101562 286 c 5
 710.260742188 232.9765625 l 5
 693.40625 222.633789062 676.794921875 212.048828125 659.513671875 202.1328125 c 5
 567.392578125 119.2890625 l 5
 525.9609375 36.9013671875 l 5
 554.216796875 -102.473632812 554.216796875 -102.473632812 560.28125 -127.055664062 c 5
 532.036132812 -147.067382812 l 5
 468.094726562 -163.668945312 l 5
 417.897460938 -150.21484375 l 29
 327.803710938 -83.0478515625 l 5
 390.107421875 -44.6142578125 l 5
 419.099609375 -44.6142578125 l 5
 423.370117188 20.7744140625 l 5
 463.459960938 151.676757812 l 5
 494.751953125 199.885742188 l 5
 510.079101562 214.470703125 l 5
 525.713867188 224.294921875 l 5
 571.655273438 264.46875 570.520507812 266.041992188 597.625 286.655273438 c 4
 634.166015625 314.444335938 654.223632812 325.270507812 700.391601562 368.0703125 c 5
 685.89453125 383.80078125 l 5
 663.106445312 399.530273438 l 5
 613.337890625 425.923828125 559.875976562 448.623046875 508.646484375 473.5546875 c 5
 455.096679688 524.998046875 l 5
 492.005859375 576.174804688 l 5
 560.586914062 560.192382812 l 5
 639.666992188 527.0859375 l 6
 673.92578125 512.744140625 668.237304688 516.068359375 710.983398438 485.412109375 c 4
 739.436523438 465.006835938 738.25 463.2890625 781.842773438 430.374023438 c 5
 893.741210938 548.20703125 l 5
 905.852539062 566.9375 l 5
 913.827148438 580.981445312 l 5
 981.384765625 645.721679688 l 5
 988.547851562 645.4453125 l 5
 989.545898438 595.344726562 1110.12988281 642.936523438 875.454101562 342 c 5
 908.454101562 293 l 13
 1016.45410156 450 l 5
 1079.3828125 441.047851562 1115.91796875 402.830078125 1135.89941406 325.049804688 c 5
EndSplineSet
EndChar

StartChar: d
Encoding: 100 100 27
Width: 1500
Flags: HW
LayerCount: 2
Fore
SplineSet
795.755859375 647.0234375 m 4
 783.688476562 642.197265625 762.419921875 650.711914062 786.541015625 650.711914062 c 4
 796.989257812 650.711914062 800.983398438 649.114257812 795.755859375 647.0234375 c 4
692.41015625 205.235351562 m 4
 692.41015625 190.045898438 642.490234375 159.461914062 630.768554688 82.4443359375 c 4
 626.325195312 53.24609375 609.186523438 -16.62109375 601.838867188 -68.6630859375 c 4
 598.459960938 -92.595703125 599.537109375 -95.86328125 610.025390625 -95.86328125 c 4
 620.512695312 -95.86328125 627.048828125 -92.595703125 627.048828125 -88.4150390625 c 4
 627.048828125 -84.7275390625 632.131835938 -81.3388671875 637.942382812 -81.3388671875 c 4
 643.751953125 -81.3388671875 648.8359375 -84.7275390625 648.8359375 -88.2509765625 c 4
 648.8359375 -92.66796875 656.82421875 -95.86328125 665.235351562 -95.86328125 c 4
 683.166992188 -95.86328125 693.974609375 -81.3388671875 696.313476562 -59.6279296875 c 4
 697.155273438 -51.8046875 699.7109375 -39.216796875 704.051757812 -20.734375 c 4
 731.747070312 97.1923828125 743.247070312 76.7275390625 743.247070312 98.7041015625 c 4
 743.247070312 109.662109375 746.106445312 114.74609375 749.309570312 114.74609375 c 4
 753.323242188 114.74609375 758.31640625 122.735351562 760.03515625 129.608398438 c 4
 766.249023438 154.465820312 819.501953125 210.705078125 852.244140625 227.673828125 c 4
 863.077148438 233.288085938 873.970703125 242.069335938 873.970703125 246.110351562 c 4
 873.970703125 249.5703125 881.958984375 252.732421875 890.48828125 252.732421875 c 4
 900.840820312 252.732421875 912.633789062 257.391601562 915.469726562 260.864257812 c 4
 922.388671875 269.340820312 998.215820312 303.934570312 1040.27929688 263.625976562 c 6
 1057.70898438 246.921875 l 5
 1044.07714844 219.325195312 l 6
 1028.67578125 188.146484375 1025.02832031 185.814453125 994.586914062 177.1171875 c 4
 931.34375 159.046875 913.973632812 148.516601562 889.993164062 123.125 c 4
 873.163085938 105.3046875 859.4453125 86.9072265625 859.4453125 81.5107421875 c 4
 859.4453125 77.263671875 850.947265625 57.373046875 844.76171875 45.7431640625 c 4
 819.270507812 -2.1787109375 808.399414062 -89.0771484375 822.510742188 -106.009765625 c 4
 836.966796875 -123.356445312 911.740234375 -108.1875 931.951171875 -129.953125 c 4
 947.680664062 -146.893554688 932.540039062 -188.552734375 935.565429688 -194 c 5
 813.565429688 -190 436.477539062 -234.520507812 460.739257812 -149.60546875 c 5
 447.614257812 -148.377929688 470.60546875 -108.3515625 476.061523438 -95.2578125 c 4
 482.719726562 -79.2783203125 491.522460938 -35.5859375 496.98828125 9.0439453125 c 4
 507.732421875 96.7880859375 521.048828125 96.5439453125 529.005859375 136.896484375 c 6
 534.08984375 162.677734375 l 5
 507.58203125 159.7734375 l 6
 485.068359375 157.305664062 480.471679688 159.166015625 477.504882812 170.494140625 c 4
 474.796875 180.833984375 469.661132812 187.370117188 463.299804688 187.370117188 c 4
 436.625976562 187.370117188 421.567382812 302.267578125 505.670898438 295.509765625 c 4
 546.129882812 292.258789062 552.033203125 318.09375 565.706054688 318.09375 c 4
 577.052734375 318.09375 597.5703125 335.88671875 627.762695312 370.435546875 c 4
 636.91796875 380.913085938 666.091796875 413.774414062 675.35546875 424.017578125 c 4
 700.40625 451.721679688 714.197265625 471.353515625 714.197265625 479.399414062 c 4
 714.197265625 490.311523438 739.567382812 523.654296875 734.505859375 536.625 c 4
 728.848632812 551.120117188 666.991210938 586.802734375 649.09375 586.802734375 c 4
 643.025390625 586.802734375 633.114257812 590.904296875 627.819335938 596.19921875 c 4
 612.17578125 611.842773438 569.807617188 603.506835938 545.529296875 577.662109375 c 4
 535.696289062 567.194335938 521.162109375 557.752929688 512.497070312 557.752929688 c 4
 499.956054688 557.752929688 474.538085938 577.5234375 474.538085938 587.479492188 c 4
 474.538085938 591.931640625 469.454101562 599.875 465.416015625 603.9140625 c 4
 440.905273438 628.423828125 464.370117188 710.263671875 489.87890625 710.263671875 c 4
 497.087890625 710.263671875 506.245117188 716.799804688 518.341796875 731.012695312 c 4
 528.619140625 743.08984375 531.184570312 743.0546875 543.081054688 732.055664062 c 4
 561.686523438 714.854492188 571.916992188 711.111328125 580.731445312 716.599609375 c 4
 592.848632812 724.14453125 621.96484375 723.157226562 638.202148438 712.916015625 c 4
 647.3828125 707.124023438 659.521484375 705.024414062 667.5234375 707.9140625 c 4
 687.40625 715.094726562 699.672851562 679.5 699.672851562 687.33203125 c 4
 699.672851562 702.37890625 744.948242188 676.856445312 764.590820312 651.020507812 c 4
 772.002929688 641.270507812 783.969726562 630.376953125 788.548828125 630.376953125 c 4
 793.27734375 630.376953125 807.5078125 618.7578125 818.7890625 606.295898438 c 4
 849.327148438 572.5625 851.967773438 539.59765625 831.698242188 480.534179688 c 4
 823.305664062 456.079101562 818.830078125 436.067382812 821.8984375 430.806640625 c 4
 825.360351562 424.872070312 843.467773438 429.06640625 870.78125 442.478515625 c 4
 928.499023438 470.822265625 917.967773438 444.671875 934.393554688 454.8671875 c 4
 956.291015625 468.458984375 990.168945312 454.626953125 990.168945312 437.309570312 c 4
 990.168945312 432.11328125 993.21875 427.030273438 997.556640625 427.030273438 c 4
 1006.53710938 427.030273438 1012.90234375 405.2421875 1009.20019531 393.786132812 c 4
 1003.7734375 376.999023438 966.928710938 352.078125 948.702148438 350.208007812 c 4
 931.564453125 348.450195312 888.649414062 325.356445312 865.958984375 325.356445312 c 4
 819.729492188 325.356445312 692.41015625 229.4921875 692.41015625 205.235351562 c 4
EndSplineSet
EndChar

StartChar: s
Encoding: 115 115 28
Width: 1500
Flags: HW
LayerCount: 2
Fore
SplineSet
760.4609375 309.112304688 m 0
 760.4609375 315.14453125 762.9296875 318.969726562 768.108398438 318.969726562 c 0
 782.040039062 318.969726562 760.4609375 291.276367188 760.4609375 309.112304688 c 0
452.490234375 280.3515625 m 0
 447.540039062 265.791015625 426.646484375 289.544921875 444.303710938 289.544921875 c 0
 450.907226562 289.544921875 454.485351562 286.221679688 452.490234375 280.3515625 c 0
601.124023438 301.314453125 m 0
 593.1796875 301.314453125 601.26171875 313.084960938 604.805664062 313.084960938 c 0
 606.390625 313.084960938 607.450195312 310.73046875 607.450195312 308.059570312 c 0
 607.450195312 303.836914062 604.801757812 301.314453125 601.124023438 301.314453125 c 0
967.073242188 435.200195312 m 0
 967.853515625 450.012695312 974.451171875 431.147460938 970.060546875 426.756835938 c 0
 968.111328125 424.807617188 966.716796875 428.431640625 967.073242188 435.200195312 c 0
909.932617188 517.107421875 m 0
 917.47265625 528.557617188 921.696289062 528.478515625 935.383789062 511.250976562 c 0
 950.6171875 492.077148438 951.610351562 484.33984375 946.688476562 473.557617188 c 0
 934.684570312 447.264648438 904.192382812 439.42578125 897.286132812 457.608398438 c 0
 892.943359375 469.0390625 895.967773438 495.90234375 909.932617188 517.107421875 c 0
307.947265625 547.015625 m 0
 308.725585938 561.831054688 315.325195312 542.963867188 310.93359375 538.573242188 c 0
 308.984375 536.624023438 307.590820312 540.248046875 307.947265625 547.015625 c 0
894.684570312 -99 m 1
 894.684570312 -102.015625 818.393554688 -149 811.333007812 -149 c 0
 808.809570312 -149 798.684570312 -155 768.956054688 -178.6640625 c 0
 753.754882812 -190.763671875 750.162109375 -194.162109375 690.64453125 -193.67578125 c 0
 640.112304688 -193.263671875 608.540039062 -195.4765625 601.595703125 -201.0859375 c 0
 593.165039062 -207.895507812 572.700195312 -190.115234375 568.083984375 -194.731445312 c 0
 563.157226562 -199.658203125 529.163085938 -190.084960938 488.80078125 -179.694335938 c 2
 488.80078125 -179.694335938 466.208007812 -177.345703125 466.208007812 -173.681640625 c 0
 466.208007812 -166.76171875 385.594726562 -137.358398438 366.684570312 -141 c 1
 344.9765625 -87.6875 l 2
 330.913085938 -53.1474609375 401.509765625 -48.1015625 432.822265625 -64.7578125 c 0
 449.016601562 -73.37109375 447.345703125 -61.08984375 456.12109375 -68.3759765625 c 0
 477.708007812 -86.3017578125 580.966796875 -106.108398438 611.111328125 -100.436523438 c 0
 633.913085938 -96.146484375 601.435546875 -79.80859375 612.459960938 -73.09765625 c 0
 627.239257812 -64.1015625 605.831054688 -12.23828125 617.778320312 -2.28125 c 0
 639.96875 16.2119140625 625.580078125 244.706054688 637.798828125 256.922851562 c 0
 640.89453125 260.018554688 642.759765625 277.48046875 642.759765625 296.3125 c 2
 642.759765625 330.740234375 l 1
 583.909179688 330.740234375 l 1
 583.909179688 308.083007812 l 2
 583.909179688 307.291015625 580.96875 247.220703125 523.169921875 242.875 c 0
 445.784179688 237.057617188 499.62109375 348.395507812 460.482421875 348.395507812 c 0
 430.76953125 348.395507812 387.340820312 412.564453125 414.135742188 437.974609375 c 0
 419.584960938 443.141601562 426.484375 445.327148438 452.37890625 444.321289062 c 2
 482.686523438 443.14453125 l 1
 484.74609375 468.745117188 l 2
 485.8828125 482.869140625 485.090820312 493.2890625 482.486328125 491.685546875 c 0
 475.294921875 487.26171875 478.028320312 572.02734375 425.477539062 572.02734375 c 0
 405.895507812 572.02734375 421.41796875 583.797851562 370.139648438 583.797851562 c 0
 331.440429688 583.797851562 312.721679688 577.09375 299.71484375 564.545898438 c 0
 280.240234375 545.759765625 254.346679688 546.229492188 238.920898438 557.006835938 c 0
 229.641601562 563.489257812 226.545898438 572.02734375 226.083007812 593.34765625 c 0
 225.598632812 615.577148438 228.598632812 623.099609375 241.922851562 637.774414062 c 0
 281.435546875 681.294921875 296.359375 660.6328125 330.122070312 690.838867188 c 1
 480.920898438 676.575195312 498.401367188 672.12109375 500.555664062 665.8984375 c 0
 501.518554688 663.115234375 507.403320312 655.328125 512.767578125 650.330078125 c 0
 526.236328125 637.779296875 554.484375 596.9296875 554.484375 589.201171875 c 0
 554.484375 581.526367188 582.337890625 552.36328125 584.89453125 528.509765625 c 0
 588.340820312 496.346679688 630.328125 524.037109375 607.190429688 500.256835938 c 0
 598.57421875 491.40234375 596.243164062 491.150390625 593.572265625 497.734375 c 0
 587.837890625 511.869140625 590.180664062 478.455078125 596.549804688 460.2109375 c 2
 603.330078125 440.791015625 l 1
 613.923828125 453.443359375 l 2
 621.313476562 462.271484375 625.850585938 463.9609375 628.998046875 458.926757812 c 0
 631.504882812 454.915039062 630.401367188 451 625.786132812 449.475585938 c 0
 616.006835938 446.24609375 617.454101562 430.786132812 629.78125 430.786132812 c 0
 640.536132812 430.786132812 628.611328125 442.556640625 633.482421875 442.556640625 c 0
 645.916015625 442.556640625 643.305664062 519.2265625 660.204101562 556.953125 c 0
 668.538085938 575.55859375 668.920898438 596.478515625 657.817382812 607.58203125 c 0
 643.883789062 621.515625 682.376953125 616.567382812 658.379882812 640.564453125 c 0
 649.528320312 649.416015625 641.219726562 662.288085938 637.715820312 676.174804688 c 0
 629.932617188 707.017578125 650.999023438 722.462890625 733.266601562 733.743164062 c 0
 788.12109375 741.265625 809.186523438 738.571289062 836.043945312 718.655273438 c 0
 850.502929688 707.932617188 854.622070312 701.130859375 852.6953125 690.291992188 c 0
 851.287109375 682.372070312 853.34765625 677.958984375 857.444335938 677.958984375 c 0
 873.505859375 677.958984375 789.88671875 610.090820312 789.88671875 589.213867188 c 0
 789.88671875 579.78515625 772.833984375 579.302734375 766.168945312 529.979492188 c 0
 760.288085938 486.462890625 748.69140625 498.508789062 748.69140625 465.231445312 c 0
 748.69140625 431.706054688 760.4609375 427.366210938 843.313476562 424.00390625 c 0
 912.295898438 421.204101562 966.708984375 416.318359375 989.576171875 411.303710938 c 0
 1003.51464844 408.247070312 1020.96289062 407.0390625 1023.6953125 409.771484375 c 0
 1033.67871094 419.75390625 1020.63183594 655.776367188 1056.5546875 676.634765625 c 0
 1058.41894531 677.717773438 1059.42285156 677.64453125 1073.171875 670.301757812 c 0
 1106.50292969 652.499023438 1110.43554688 647.677734375 1109.61328125 636.172851562 c 0
 1108.81445312 624.993164062 1112.09375 614.3671875 1117.203125 610.393554688 c 0
 1125.49316406 603.9453125 1133.14160156 576.735351562 1131.2734375 553.514648438 c 0
 1129.6171875 532.9296875 1128.79296875 426.59375 1122.3984375 420.197265625 c 0
 1121.08984375 418.889648438 1119.45019531 412.836914062 1119.45019531 407.731445312 c 0
 1119.45019531 397.821289062 1125.62890625 396.953125 1173.88671875 399.30078125 c 2
 1228.32324219 401.94921875 l 1
 1250.09863281 382.528320312 l 2
 1268.00195312 366.560546875 1272.20019531 358.399414062 1273.64355469 337.666992188 c 0
 1276.24023438 300.333984375 1264.81054688 295.4296875 1177.71191406 295.4296875 c 2
 1109.4453125 295.4296875 l 1
 1112.09375 277.774414062 l 2
 1114.12402344 264.239257812 1112.54492188 260.119140625 1106.23730469 260.119140625 c 0
 1100.02929688 260.119140625 1095.91015625 256.12890625 1095.91015625 249.616210938 c 0
 1095.91015625 237.293945312 1081.16113281 226.443359375 1075.47265625 192.024414062 c 0
 1070.96875 164.78125 1058.44628906 138.12890625 1049.29785156 131.533203125 c 0
 1038.41015625 123.68359375 1043.88378906 102.669921875 1035.45117188 91.4267578125 c 0
 1027.61035156 80.9736328125 1041.3671875 74.8388671875 1025.98242188 64.69140625 c 0
 1002.47949219 49.189453125 991.45703125 6.423828125 967.013671875 -15.5068359375 c 0
 953.491210938 -27.6376953125 924.727539062 -63.50390625 916.684570312 -67 c 1
 894.684570312 -99 l 1
166.0703125 -101.811523438 m 1025
1005.12695312 310.46875 m 0
 987.336914062 308.536132812 763.454101562 335.575195312 754.451171875 328.99609375 c 0
 751.379882812 326.750976562 753.489257812 306.09765625 745.09375 284.70703125 c 0
 730.362304688 247.171875 728.653320312 162.674804688 748.177734375 138.465820312 c 4
 750.548828125 135.524414062 750.162109375 134.725585938 744.87890625 136.688476562 c 4
 731.76171875 141.560546875 731.243164062 135.944335938 734.387695312 46.6611328125 c 0
 735.594726562 12.3583984375 737.216796875 -36.7119140625 737.377929688 -42.9287109375 c 0
 738.231445312 -75.91796875 748.428710938 -86.8076171875 748.610351562 -60.560546875 c 0
 748.670898438 -51.7890625 749.826171875 -50.6376953125 751.509765625 -53.29296875 c 0
 766.454101562 -76.8779296875 863.424804688 4.7080078125 909.412109375 72.1318359375 c 4
 927.6484375 98.869140625 928.934570312 110.282226562 915.290039062 115.588867188 c 4
 901.665039062 120.88671875 906.411132812 130.91796875 929.458984375 140.560546875 c 4
 956.912109375 152.045898438 938.81640625 155.890625 954.577148438 175.09375 c 4
 969.780273438 193.618164062 995.864257812 249.494140625 995.864257812 269.181640625 c 0
 995.864257812 276.59765625 999.565429688 285.654296875 1007.30078125 288.590820312 c 0
 1019.73925781 293.314453125 1015.87304688 311.635742188 1005.12695312 310.46875 c 0
EndSplineSet
EndChar

StartChar: w
Encoding: 119 119 29
Width: 1500
Flags: HW
LayerCount: 2
Fore
SplineSet
1193.96875 186 m 13
 1213.96875 304 l 25
 1142.96875 257 l 25
 1193.96875 186 l 13
896.774414062 23.5947265625 m 0
 891.047851562 32.8759765625 910.626953125 42.0205078125 910.626953125 30.4599609375 c 0
 910.626953125 22.310546875 900.895507812 16.9150390625 896.774414062 23.5947265625 c 0
398.227539062 -171.16796875 m 0
 404.45703125 -136.163085938 441.817382812 -107.548828125 449.09375 -107.548828125 c 0
 457.549804688 -107.548828125 498.73828125 -68.90234375 498.73828125 -63.599609375 c 0
 498.73828125 -60.6806640625 511.2265625 -37.8564453125 514.228515625 -4.0810546875 c 0
 517.666015625 34.6015625 533.0625 53.4658203125 533.0625 89.4462890625 c 0
 533.0625 117.283203125 542.279296875 122.435546875 546.32421875 214.39453125 c 0
 551.166992188 324.479492188 563.307617188 307.626953125 559.948242188 365.577148438 c 0
 556.221679688 429.868164062 569.33203125 440.7421875 555.896484375 467.229492188 c 0
 548.982421875 480.860351562 544.50390625 499.4140625 544.50390625 513.748046875 c 0
 544.50390625 523.44140625 542.456054688 533.166015625 539.995117188 533.166015625 c 0
 537.462890625 533.166015625 529.580078125 543.463867188 524.208984375 553.049804688 c 0
 502.971679688 590.9453125 444.446289062 636.48046875 430.463867188 627.875 c 0
 426.912109375 625.689453125 419.79296875 626.5703125 414.182617188 629.567382812 c 0
 396.7890625 638.859375 364.302734375 628.129882812 337.028320312 600.85546875 c 0
 310.916992188 574.744140625 287.073242188 570.841796875 287.073242188 553.575195312 c 0
 287.073242188 532.022460938 249.924804688 519.125976562 230.33984375 532.8359375 c 0
 211.546875 545.990234375 211.565429688 581.791992188 226.971679688 605.443359375 c 0
 239.88671875 625.270507812 226.864257812 630.41796875 232.11328125 630.41796875 c 0
 240.319335938 630.41796875 255.794921875 643.002929688 308.010742188 696.875976562 c 0
 348.944335938 739.110351562 353.663085938 741.900390625 386.208984375 740.720703125 c 0
 422.653320312 739.400390625 434.245117188 742.693359375 443.8046875 752.252929688 c 0
 454.966796875 763.415039062 445.185546875 742.318359375 471.291015625 734.0859375 c 0
 494.162109375 726.873046875 542.712890625 693.000976562 557.850585938 669.245117188 c 0
 573.985351562 643.922851562 602.274414062 647.611328125 597.692382812 630.655273438 c 0
 596.16015625 624.983398438 597.473632812 618.543945312 600.080078125 616.98046875 c 0
 608.725585938 611.79296875 627.359375 538.405273438 636.431640625 517.571289062 c 0
 649.279296875 488.071289062 647.018554688 431.905273438 659.178710938 424.124023438 c 0
 663.58203125 421.305664062 664.702148438 413.032226562 661.124023438 390.283203125 c 0
 658.5546875 373.950195312 656.412109375 352.393554688 649.935546875 273.448242188 c 2
 645.759765625 222.534179688 l 1
 659.489257812 226.620117188 l 2
 682.944335938 233.600585938 751.51171875 237.634765625 757.32421875 229.498046875 c 0
 760.8984375 224.493164062 812.677734375 189.834960938 813.184570312 178.676757812 c 0
 813.502929688 171.665039062 833.86328125 159.772460938 839.459960938 141.693359375 c 0
 841.432617188 135.3203125 849.623046875 115.557617188 857.166015625 98.96484375 c 0
 870.331054688 70.001953125 871.390625 62.35546875 868.899414062 28.30859375 c 0
 866.033203125 -10.869140625 866.912109375 -28.1572265625 871.827148438 -31.2001953125 c 0
 874.299804688 -32.73046875 875.57421875 -37.7568359375 873.2421875 -43.9130859375 c 0
 866.748046875 -61.0595703125 897.861328125 -44.0048828125 890.797851562 -21.7333984375 c 0
 888.89453125 -15.7314453125 889.823242188 -10.296875 891.9375 -10.296875 c 0
 898.658203125 -10.296875 927.788085938 44.62109375 927.788085938 53.388671875 c 0
 927.788085938 67.880859375 1007.3828125 204.392578125 982.921875 212.546875 c 0
 976.831054688 214.577148438 978.130859375 224.25 985.876953125 224.25 c 0
 992.536132812 224.25 997.997070312 231.401367188 1000.49511719 242.848632812 c 0
 1001.74121094 248.563476562 1005.40820312 260.915039062 1009.63867188 271.354492188 c 0
 1023.69433594 306.044921875 1029.55664062 356.969726562 1027.09277344 493.135742188 c 0
 1025.85058594 561.76953125 1023.86132812 576.455078125 1010.046875 588.51171875 c 0
 982.537109375 612.520507812 964.362304688 577.036132812 917.54296875 599.35546875 c 0
 908.337890625 603.743164062 898.923828125 609.9375 898.479492188 613.048828125 c 0
 898.296875 614.323242188 897.016601562 633.278320312 896.159179688 647.638671875 c 0
 893.703125 688.768554688 894.66015625 693.131835938 903.19140625 695.69140625 c 0
 911.26171875 698.112304688 923.211914062 705.344726562 931.375 712.130859375 c 0
 986.255859375 757.752929688 1070.80566406 705.913085938 1070.80566406 685.270507812 c 0
 1070.80566406 680.759765625 1074.84375 676.18359375 1079.36425781 676.18359375 c 0
 1084.02441406 676.18359375 1087.96777344 671.3203125 1087.96777344 664.967773438 c 0
 1087.96777344 649.568359375 1111.13769531 640.861328125 1106.15136719 622.413085938 c 0
 1102.75390625 609.83984375 1116.5703125 617.102539062 1116.5703125 582.361328125 c 0
 1116.5703125 568.0625 1118.91113281 555.172851562 1120.95898438 553.905273438 c 0
 1127.89355469 549.612304688 1126.28808594 419.325195312 1118.19335938 350.0703125 c 0
 1115.58984375 327.794921875 1116.26367188 321.501953125 1122.03222656 321.501953125 c 0
 1128.05566406 321.501953125 1137.03320312 328.366210938 1145.33398438 339.725585938 c 0
 1148.73828125 344.384765625 1158.37597656 356.662109375 1161.87792969 360.764648438 c 0
 1169.13769531 369.26953125 1173.77734375 378.9453125 1173.77734375 385.594726562 c 0
 1173.77734375 408.456054688 1228.625 440.5625 1243.92480469 425.262695312 c 0
 1247.54296875 421.64453125 1255.296875 418.752929688 1258.84570312 418.752929688 c 0
 1270.38671875 418.752929688 1295.39453125 388.176757812 1278.52441406 357.034179688 c 0
 1269.18847656 339.799804688 1287.10839844 349.375976562 1275.87402344 169.600585938 c 1
 1263.01953125 156.74609375 1263.01953125 121.278320312 1275.00195312 121.278320312 c 0
 1281.51855469 121.278320312 1262.49707031 110.787109375 1267.7421875 89.802734375 c 0
 1270.22753906 79.8603515625 1267.02441406 73.23828125 1251.91992188 60.3447265625 c 0
 1230.41210938 41.984375 1217.94726562 39.2265625 1194.73632812 49.0576171875 c 0
 1178.984375 55.728515625 1174.77832031 61.2109375 1169.49707031 90.787109375 c 0
 1165.48242188 113.26953125 1162.1875 121.278320312 1156.44042969 121.278320312 c 0
 1150.49121094 121.278320312 1144.36035156 129.859375 1141.21582031 138.557617188 c 0
 1132.77734375 161.89453125 1098.77734375 195.646484375 1086.42480469 195.646484375 c 0
 1071.16796875 195.646484375 1073.84960938 144.161132812 1062.84863281 144.161132812 c 0
 1053.73730469 144.161132812 1068.20703125 108.853515625 1056.56738281 56.9052734375 c 0
 1048.94433594 22.8828125 1048.12304688 -23.62890625 1056.359375 -33.0703125 c 0
 1060.55664062 -37.8818359375 1061.52148438 -51.3154296875 1062.796875 -60.7470703125 c 0
 1072.96875 -136 1123.5625 -109.504882812 1099.34863281 -180.16015625 c 0
 1054.02246094 -312.416992188 984.6640625 -90.3603515625 978.245117188 -86.72265625 c 0
 971.118164062 -82.6845703125 896.96875 -266 771.03125 -174.806640625 c 0
 740.084960938 -152.3984375 742.15234375 -139.583984375 742.15234375 -139.583984375 c 1
 740.322265625 -129.932617188 742.397460938 -117.786132812 746.431640625 -111.591796875 c 0
 756.094726562 -96.751953125 766.986328125 -28.603515625 764.365234375 0.6015625 c 0
 763.720703125 7.7841796875 762.778320312 29.7470703125 762.44921875 48.19921875 c 0
 761.919921875 77.80078125 760.448242188 80.9423828125 745.690429688 95.54296875 c 0
 720.127929688 120.833984375 703.002929688 132.719726562 696.83203125 132.719726562 c 0
 687.749023438 132.719726562 648.620117188 106.9765625 642.04296875 100.399414062 c 0
 618.54296875 76.8984375 591.612304688 -120.899414062 582.12109375 -142.473632812 c 0
 567.114257812 -176.584960938 383.93359375 -251.479492188 398.227539062 -171.16796875 c 0
EndSplineSet
EndChar

StartChar: q
Encoding: 113 113 30
Width: 1500
Flags: HW
LayerCount: 2
Fore
SplineSet
945.896484375 280.287109375 m 16
 966.55859375 322.40234375 1018.83203125 316.540039062 1032.97460938 293.643554688 c 0
 1063.84179688 243.669921875 956.6953125 157 875.564453125 149.874023438 c 0
 807.057617188 143.856445312 767.6953125 149 698.6953125 149 c 24
 651.724609375 149 650.360351562 240.232421875 701.6953125 238 c 24
 727.6953125 237 734.423828125 197.284179688 760.6953125 194 c 0
 856.6953125 181.999023438 944.829101562 278.112304688 945.896484375 280.287109375 c 16
878.88671875 285.739257812 m 1
 806.16796875 278.594726562 733.450195312 267.889648438 660.73046875 285.739257812 c 0
 636.084960938 291.7890625 615.315429688 302.571289062 616.435546875 329.260742188 c 0
 620.87890625 435.16796875 694.259765625 344.915039062 778.6953125 342 c 0
 863.234375 339.081054688 934.658203125 463.822265625 930.087890625 345.260742188 c 0
 929.193359375 322.049804688 878.88671875 285.739257812 878.88671875 285.739257812 c 1
750 489.5390625 m 0
 750 529.608398438 773.375 552.900390625 803.42578125 542.77734375 c 0
 888.017578125 514.284179688 901.75 418.3046875 821.234375 418.3046875 c 0
 781.166015625 418.3046875 750 449.469726562 750 489.5390625 c 0
559.05078125 605.295898438 m 0
 626.328125 680.982421875 705.478515625 709.861328125 705.478515625 658.721679688 c 0
 705.478515625 646.795898438 662.677734375 578.583007812 613.29296875 511.799804688 c 0
 379.53515625 195.6953125 845.298828125 -70.43359375 1083.77148438 186.791015625 c 2
 1195.21679688 307 l 1
 1195.21679688 115.556640625 l 1
 1191.21679688 -71.88671875 l 5
 937.443359375 -47.400390625 l 6
 884.76953125 -42.318359375 693.62890625 4.9658203125 664 32 c 0
 445.564453125 231.301757812 525.473632812 167.421875 531.0859375 -1.1650390625 c 0
 535.8125 -143.1484375 480.939453125 -17.03515625 484.712890625 64.5830078125 c 0
 493.93359375 264.033203125 540.09375 457.592773438 362.66015625 234.28125 c 0
 326.833984375 189.19140625 304.783203125 198.606445312 304.783203125 237.991210938 c 0
 304.783203125 266.239257812 333.72265625 300.16796875 369.33984375 313.678710938 c 0
 405.37109375 327.345703125 446.68359375 380.4609375 462.833984375 433.88671875 c 0
 478.986328125 487.313476562 521.501953125 563.051757812 559.05078125 605.295898438 c 0
1159 -30 m 0
 1156.08398438 -0.4736328125 1178.71289062 192 1152 192 c 0
 1125.28710938 192 969.170898438 31.1005859375 948.6953125 16 c 0
 927 0 884.086914062 -5.5927734375 896 -4 c 0
 912.557617188 -1.7861328125 1160.77929688 -48.0205078125 1159 -30 c 0
EndSplineSet
EndChar

StartChar: e
Encoding: 101 101 31
Width: 1500
Flags: HW
LayerCount: 2
Fore
SplineSet
610.1796875 102.399414062 m 6
 551.176757812 102.399414062 564.483398438 124.342773438 548.171875 124.342773438 c 4
 529.337890625 124.342773438 531.671875 153.599609375 514.526367188 153.599609375 c 4
 503.756835938 153.599609375 501.400390625 165.143554688 509.172851562 169.90234375 c 4
 524.284179688 179.153320312 511.733398438 220.548828125 525.317382812 225.2734375 c 4
 529.6953125 226.796875 533.745117188 232.959960938 533.745117188 237.211914062 c 4
 533.745117188 246.66796875 553.772460938 272.741210938 587.200195312 264.91796875 c 4
 592.625976562 263.6484375 605.861328125 261.361328125 611.108398438 260.8984375 c 4
 633.154296875 258.952148438 629.51171875 239.529296875 653.381835938 245.497070312 c 4
 665.611328125 248.5546875 670.940429688 245.028320312 677.87890625 228.838867188 c 4
 682.5390625 217.965820312 690.51953125 203.36328125 694.205078125 198.555664062 c 4
 701.608398438 188.899414062 697.474609375 177.37109375 676.008789062 144.45703125 c 6
 648.580078125 102.399414062 l 5
 610.1796875 102.399414062 l 6
709.288085938 -204.80078125 m 1030
357.774414062 7.3134765625 m 4
 353.935546875 7.3134765625 350.803710938 10.970703125 350.70703125 15.11328125 c 4
 350.432617188 26.9052734375 325.288085938 46.7685546875 307.555664062 52.4765625 c 4
 293.94921875 56.85546875 280.783203125 68.0224609375 274.90234375 77.0166015625 c 4
 258.306640625 102.399414062 250.498046875 185.7890625 263.51171875 201.446289062 c 4
 267.2109375 205.896484375 272.8359375 220.159179688 274.240234375 228.13671875 c 4
 280.981445312 266.440429688 366.248046875 342.861328125 430.340820312 375.950195312 c 4
 456.9453125 389.684570312 469.16796875 401.577148438 472.0546875 411.200195312 c 4
 473.98828125 417.645507812 479.25390625 422.25390625 483.668945312 419.604492188 c 4
 499.775390625 409.94140625 620.157226562 441.096679688 629.775390625 455.111328125 c 4
 632.997070312 459.806640625 643.825195312 459.397460938 659.272460938 454.555664062 c 4
 712.939453125 437.732421875 783.764648438 451.563476562 806.9921875 422.704101562 c 4
 811.947265625 416.547851562 821.268554688 409.599609375 828.008789062 409.599609375 c 4
 841.311523438 409.599609375 833.387695312 382.537109375 809.73828125 355.473632812 c 6
 786.088867188 328.411132812 l 5
 734.888671875 336.5625 l 6
 685.151367188 344.48046875 616.911132812 340.876953125 597.302734375 331.197265625 c 4
 589.830078125 327.5078125 495.389648438 285.256835938 483.8046875 285.256835938 c 4
 472.813476562 285.256835938 421.418945312 247.22265625 402.940429688 225.6640625 c 4
 353.033203125 167.438476562 428.111328125 95.0849609375 451.112304688 95.0849609375 c 4
 455.848632812 95.0849609375 460.602539062 92.017578125 460.602539062 87.671875 c 4
 460.602539062 83.6748046875 464.625976562 80.45703125 468.528320312 80.45703125 c 4
 474.698242188 80.45703125 484.922851562 72.4111328125 491.000976562 64.306640625 c 4
 514.568359375 32.8837890625 570.317382812 42.5322265625 570.317382812 30.794921875 c 4
 570.317382812 11.1728515625 726.111328125 6.939453125 807.92578125 21.3388671875 c 4
 824.854492188 24.318359375 845.754882812 26.6416015625 846.918945312 25.4775390625 c 4
 848.596679688 23.7998046875 849.6484375 -25.5205078125 849.787109375 -29.962890625 c 4
 851.638671875 -89.154296875 764.072265625 -75.205078125 685.350585938 -81.51171875 c 4
 597.021484375 -88.587890625 473.997070312 -72.05078125 436.251953125 -43.4873046875 c 4
 428.419921875 -37.560546875 413.091796875 -29.2578125 406.635742188 -29.2578125 c 4
 393.086914062 -29.2578125 369.915039062 7.3134765625 357.774414062 7.3134765625 c 4
594.2890625 -200 m 6
 586.2890625 -199.94140625 598.391601562 -124.096679688 608.833007812 -119.515625 c 4
 623.189453125 -113.217773438 949.928710938 -103.232421875 986.826171875 -118.501953125 c 4
 1006.39257812 -126.598632812 1020.06445312 -91.4287109375 997.806640625 -50.4541015625 c 4
 975.133789062 -8.71484375 990.692382812 25.2568359375 975.270507812 57.4228515625 c 4
 940.4609375 130.02734375 987.215820312 370.9140625 984.883789062 382.572265625 c 4
 982.833007812 392.822265625 1037.08398438 488.493164062 1019.41210938 495.290039062 c 4
 1007.90820312 499.71484375 895.071289062 493.735351562 842.397460938 487.45703125 c 4
 776.513671875 479.604492188 682.95703125 480.139648438 629.748046875 484.422851562 c 4
 576.168945312 488.736328125 581.760742188 481.192382812 574.376953125 479.442382812 c 4
 568.2890625 478 551.2890625 480 543.787109375 483.209960938 c 4
 534.872070312 487.0234375 528.095703125 497.37109375 520.758789062 497.37109375 c 4
 504.051757812 497.37109375 465.198242188 551.015625 488.234375 581.473632812 c 4
 508.5546875 608.340820312 581.288085938 622.796875 646.155273438 607.9140625 c 4
 689.927734375 597.87109375 749.573242188 598.369140625 749.57421875 598.369140625 c 4
 1048.8828125 600.864257812 1196.375 644.526367188 1227 619.088867188 c 4
 1247.62011719 601.961914062 1247.62011719 526.627929688 1231.07714844 526.627929688 c 4
 1227.140625 526.627929688 1219.29101562 522.361328125 1215.85742188 516.998046875 c 4
 1207.07910156 503.282226562 1155.45996094 474.930664062 1155.45996094 464.586914062 c 4
 1155.45996094 456.72265625 1125.62207031 420.56640625 1130.50683594 415.139648438 c 4
 1135.07617188 410.0625 1111.57421875 375.514648438 1111.57421875 357.146484375 c 4
 1111.57421875 351.084960938 1109.01464844 343.418945312 1106.47167969 340.889648438 c 4
 1091.09472656 325.594726562 1064.27539062 111.6640625 1076.42285156 98.5322265625 c 4
 1079.328125 95.3916015625 1082.31738281 78.2626953125 1082.31738281 57.6279296875 c 4
 1082.31738281 37.302734375 1085.21777344 29.2568359375 1097.53320312 29.2568359375 c 4
 1114.92089844 29.2568359375 1081.73242188 13.220703125 1102.49804688 -9.791015625 c 4
 1129.30175781 -39.4921875 1119.87011719 -117.029296875 1134.83105469 -117.029296875 c 4
 1146.97949219 -117.029296875 1143.83105469 -168.16015625 1142.2890625 -204 c 5
 594.2890625 -200 l 6
EndSplineSet
EndChar

StartChar: b
Encoding: 98 98 32
Width: 1500
Flags: HW
LayerCount: 2
Fore
SplineSet
802.984375 42.015625 m 4
 802.984375 -9.28125 824.170898438 -2.5654296875 824.170898438 -13.0595703125 c 4
 824.170898438 -28.14453125 867.956054688 -64.9404296875 880.264648438 -64.4150390625 c 4
 890.040039062 -63.9970703125 914.540039062 -38.5634765625 921.370117188 -16.7587890625 c 4
 927.79296875 3.7451171875 947.444335938 19.8046875 954.010742188 61.0771484375 c 4
 956.809570312 78.6669921875 963.490234375 101.13671875 970.525390625 114.379882812 c 4
 992.668945312 156.0625 1001.89746094 271.4609375 990.278320312 315.861328125 c 4
 975.655273438 371.7421875 900.293945312 421.081054688 861.848632812 413.713867188 c 4
 848.846679688 411.22265625 832.645507812 415.413085938 820.076171875 422.9921875 c 4
 756.756835938 461.169921875 604.21875 411.592773438 565.891601562 419.36328125 c 4
 549.33203125 422.719726562 531.587890625 411.290039062 524.940429688 390.192382812 c 4
 516.533203125 363.5078125 502.21875 389.890625 494.483398438 367.875976562 c 4
 487.547851562 348.138671875 458.529296875 319.506835938 441.13671875 279.366210938 c 4
 438.323242188 272.874023438 431.58984375 258.337890625 430.2890625 255.807617188 c 4
 413.930664062 223.997070312 401.944335938 -27.29296875 459.022460938 -106.6796875 c 4
 467.3828125 -118.306640625 467.354492188 -124.015625 456.884765625 -147.180664062 c 4
 442.139648438 -179.8046875 426.134765625 -204.014648438 417.5703125 -203.9765625 c 4
 411.453125 -203.94921875 401.859375 -191.51953125 367.840820312 -192.853515625 c 4
 328.668945312 -194.389648438 321.640625 -177.686523438 284.915039062 -177.686523438 c 4
 235.194335938 -177.686523438 195.646484375 -147.069335938 195.646484375 -121.076171875 c 4
 195.646484375 -96.47265625 231.079101562 -49.6533203125 238.211914062 -54.017578125 c 4
 240.70703125 -55.544921875 259.55859375 -58.697265625 279.33203125 -60.8095703125 c 6
 315.702148438 -64.693359375 l 5
 315.702148438 -39.623046875 l 6
 315.702148438 18.744140625 296.192382812 79.1240234375 307.693359375 184.112304688 c 4
 314.86328125 249.568359375 332.606445312 318.84765625 343.965820312 322.727539062 c 4
 347.856445312 324.055664062 351.01171875 332.547851562 351.01171875 343.021484375 c 4
 351.01171875 364.21875 363.934570312 360.325195312 378.53125 389.008789062 c 4
 401.010742188 433.182617188 473.174804688 505.526367188 498.939453125 515.26953125 c 4
 507.790039062 518.616210938 513.439453125 526.069335938 513.439453125 533.037109375 c 4
 513.439453125 541.208007812 505.671875 543.084960938 479.462890625 542.1875 c 4
 420.220703125 540.158203125 290.326171875 546.659179688 281.989257812 551.775390625 c 4
 279.04296875 553.583984375 258.499023438 557.04296875 236.803710938 559.116210938 c 4
 182.934570312 564.262695312 162.177734375 575.469726562 149.576171875 614.142578125 c 4
 145.490234375 626.68359375 146.263671875 629.830078125 158.506835938 638.426757812 c 4
 188.006835938 659.139648438 220.565429688 666.88671875 223.98828125 666.030273438 c 4
 229.720703125 664.59765625 450.771484375 653.8828125 533.688476562 646.310546875 c 4
 664.4609375 634.368164062 822.375 643.506835938 850.271484375 628.62890625 c 4
 873.845703125 616.055664062 993.41796875 618.958007812 1008.4296875 609.349609375 c 4
 1031.296875 594.71484375 1267.14746094 628.061523438 1268.85742188 549.361328125 c 4
 1269.34179688 527.108398438 1251.01367188 500.118164062 1225.609375 491.30859375 c 4
 1207.64160156 485.077148438 1174.76660156 483.999023438 1170.25 488.689453125 c 4
 1165.68164062 493.43359375 1127.83984375 496.690429688 1084.3359375 498.334960938 c 4
 995.073242188 501.708984375 975.778320312 494.749023438 1007.55859375 479.526367188 c 4
 1061.00585938 453.92578125 1064.75195312 406.305664062 1077.70996094 395.508789062 c 4
 1087.52636719 387.329101562 1082.11035156 366.30078125 1122.98730469 342.18359375 c 4
 1151.85058594 325.154296875 1155.54492188 310.897460938 1127.82910156 286.979492188 c 4
 1115.83398438 276.626953125 1113.8984375 271.688476562 1120.98242188 263.286132812 c 4
 1131.95214844 250.275390625 1146.87695312 249.921875 1151.26171875 262.799804688 c 4
 1153.2734375 268.708984375 1156.44140625 268.708984375 1160.23046875 265.573242188 c 4
 1169.88964844 257.579101562 1195.98925781 253.01953125 1236.11230469 251.555664062 c 4
 1266.609375 250.442382812 1273.41113281 248.110351562 1287.2421875 234.571289062 c 4
 1368.05175781 155.462890625 1275.51367188 98.3564453125 1258.8125 125.263671875 c 4
 1250.63378906 138.439453125 1230.41601562 121.569335938 1224.26171875 131.510742188 c 4
 1221.09472656 136.625976562 1210.81933594 140.106445312 1198.5 140.106445312 c 4
 1165.22460938 140.106445312 1176.2109375 165.499023438 1123.8359375 141.866210938 c 4
 1089.35644531 126.307617188 1110.81640625 127.134765625 1100.41210938 118.959960938 c 4
 1081.796875 104.334960938 1081.59472656 52.8447265625 1075.35351562 42.5712890625 c 4
 1068.96679688 32.056640625 1084.56640625 4.154296875 1091.73144531 8.5751953125 c 4
 1095.97265625 11.1923828125 1114.421875 9.4287109375 1127.65917969 6.3955078125 c 4
 1151.39355469 0.9560546875 1199.16699219 -2.0693359375 1277.16992188 -0.9228515625 c 4
 1308.62890625 -0.4599609375 1311.41210938 -1.025390625 1323.21582031 -11.6181640625 c 4
 1357.5625 -42.4423828125 1358.6171875 -59.75 1342.85546875 -81.3486328125 c 4
 1328.53417969 -100.974609375 1316.39746094 -102.122070312 1231.32324219 -102.122070312 c 4
 1105.94726562 -102.122070312 1061.08203125 -99.6298828125 1051.9296875 -90.4775390625 c 4
 1045.21386719 -83.7607421875 1021.90917969 -83.275390625 1021.90917969 -91.037109375 c 4
 1021.90917969 -102.202148438 973.6953125 -114.7578125 957.0546875 -160.500976562 c 4
 936.866210938 -216 874.453125 -210.94921875 846.178710938 -197.59765625 c 4
 818.204101562 -184.387695312 789.58203125 -146.965820312 762.219726562 -115.54296875 c 4
 731.77734375 -80.5830078125 711.177734375 -51.2919921875 711.177734375 -41.0771484375 c 4
 711.177734375 -37.5048828125 708.659179688 -29.484375 705.248046875 -25.7958984375 c 4
 694.8515625 -14.552734375 668.475585938 63.197265625 673.811523438 71.9951171875 c 4
 674.920898438 73.82421875 673.395507812 76.5478515625 669.936523438 76.5478515625 c 4
 665.11328125 76.5478515625 661.743164062 81.8447265625 661.743164062 87.828125 c 4
 661.743164062 108.219726562 622.607421875 87.4140625 589.478515625 94.181640625 c 4
 503.345703125 111.77734375 588.203125 289.126953125 623.537109375 302.262695312 c 4
 634.95703125 306.508789062 629.326171875 319.646484375 672.12890625 329.791992188 c 4
 719.65234375 341.056640625 748.28125 330.001953125 775.876953125 296.79296875 c 4
 806.866210938 259.5 809.965820312 226.263671875 794.276367188 195.162109375 c 4
 784.439453125 175.661132812 777.698242188 146.815429688 775.189453125 111.379882812 c 4
 773.6484375 89.61328125 775.030273438 84.087890625 786.334960938 77.8974609375 c 4
 799.74609375 70.5537109375 802.984375 62.0703125 802.984375 42.015625 c 4
EndSplineSet
EndChar

